<?xml version="1.0" encoding="utf-8"?>
<!-- Generator: Adobe Illustrator 21.1.0, SVG Export Plug-In . SVG Version: 6.00 Build 0)  -->
<svg version="1.1" id="Layer_1" xmlns="http://www.w3.org/2000/svg" xmlns:xlink="http://www.w3.org/1999/xlink" x="0px" y="0px"
	 viewBox="0 0 321 314.7" style="enable-background:new 0 0 321 314.7;" xml:space="preserve">
<style type="text/css">
	.st0{fill-rule:evenodd;clip-rule:evenodd;fill:#FFFFFF;}
	.st1{stroke:#FFFFFF;stroke-width:3.2694;stroke-miterlimit:10;}
	.st2{clip-path:url(#SVGID_2_);fill-rule:evenodd;clip-rule:evenodd;fill:url(#SVGID_3_);}
	.st3{clip-path:url(#SVGID_2_);fill-rule:evenodd;clip-rule:evenodd;}
	.st4{clip-path:url(#SVGID_2_);fill-rule:evenodd;clip-rule:evenodd;fill:#392C2E;}
	.st5{clip-path:url(#SVGID_2_);fill-rule:evenodd;clip-rule:evenodd;fill:#000001;}
	.st6{clip-path:url(#SVGID_2_);fill-rule:evenodd;clip-rule:evenodd;fill:#000005;}
	.st7{clip-path:url(#SVGID_2_);fill-rule:evenodd;clip-rule:evenodd;fill:#000006;}
	.st8{clip-path:url(#SVGID_2_);fill-rule:evenodd;clip-rule:evenodd;fill:#0C0B0E;}
	.st9{clip-path:url(#SVGID_2_);fill-rule:evenodd;clip-rule:evenodd;fill:#0F0D10;}
	.st10{clip-path:url(#SVGID_2_);fill-rule:evenodd;clip-rule:evenodd;fill:#111012;}
	.st11{clip-path:url(#SVGID_2_);fill-rule:evenodd;clip-rule:evenodd;fill:#0E090E;}
	.st12{clip-path:url(#SVGID_2_);fill-rule:evenodd;clip-rule:evenodd;fill:#060005;}
	.st13{clip-path:url(#SVGID_2_);fill-rule:evenodd;clip-rule:evenodd;fill:#171617;}
	.st14{clip-path:url(#SVGID_2_);fill-rule:evenodd;clip-rule:evenodd;fill:#302E2D;}
	.st15{clip-path:url(#SVGID_2_);fill-rule:evenodd;clip-rule:evenodd;fill:#121414;}
	.st16{clip-path:url(#SVGID_2_);fill-rule:evenodd;clip-rule:evenodd;fill:#171515;}
	.st17{clip-path:url(#SVGID_2_);fill-rule:evenodd;clip-rule:evenodd;fill:#252322;}
	.st18{clip-path:url(#SVGID_2_);fill-rule:evenodd;clip-rule:evenodd;fill:#252221;}
	.st19{clip-path:url(#SVGID_2_);fill-rule:evenodd;clip-rule:evenodd;fill:#25201F;}
	.st20{clip-path:url(#SVGID_2_);fill-rule:evenodd;clip-rule:evenodd;fill:#1F2323;}
	.st21{clip-path:url(#SVGID_2_);fill-rule:evenodd;clip-rule:evenodd;fill:#393532;}
	.st22{clip-path:url(#SVGID_2_);fill-rule:evenodd;clip-rule:evenodd;fill:#2D2121;}
	.st23{clip-path:url(#SVGID_2_);fill-rule:evenodd;clip-rule:evenodd;fill:#353432;}
	.st24{clip-path:url(#SVGID_2_);fill-rule:evenodd;clip-rule:evenodd;fill:#0C0000;}
	.st25{clip-path:url(#SVGID_2_);fill-rule:evenodd;clip-rule:evenodd;fill:#53504B;}
	.st26{clip-path:url(#SVGID_2_);fill-rule:evenodd;clip-rule:evenodd;fill:#7F8E82;}
	.st27{clip-path:url(#SVGID_2_);fill-rule:evenodd;clip-rule:evenodd;fill:#55524C;}
	.st28{clip-path:url(#SVGID_2_);fill-rule:evenodd;clip-rule:evenodd;fill:#9B9488;}
	.st29{clip-path:url(#SVGID_2_);fill-rule:evenodd;clip-rule:evenodd;fill:#263532;}
	.st30{clip-path:url(#SVGID_2_);fill-rule:evenodd;clip-rule:evenodd;fill:#52504B;}
	.st31{clip-path:url(#SVGID_2_);fill-rule:evenodd;clip-rule:evenodd;fill:#120100;}
	.st32{clip-path:url(#SVGID_2_);fill-rule:evenodd;clip-rule:evenodd;fill:#2E180A;}
	.st33{clip-path:url(#SVGID_2_);fill:#30190A;stroke:#000000;stroke-width:0.6631;stroke-miterlimit:10;}
	.st34{clip-path:url(#SVGID_2_);}
	.st35{fill:#30190A;stroke:#000000;stroke-width:0.6631;stroke-miterlimit:10;}
	.st36{fill:none;stroke:#CBB28A;stroke-width:4.0603;stroke-miterlimit:10;}
	.st37{fill:#CBB28A;}
	.st38{fill:#FFFFFF;}
	.st39{fill:#BEB8A5;stroke:#000000;stroke-width:0.6833;stroke-miterlimit:10;}
	.st40{fill:#CBB18E;stroke:#000000;stroke-width:0.6833;stroke-miterlimit:10;}
	.st41{fill:none;stroke:#000000;stroke-width:0.6833;stroke-miterlimit:10;}
	.st42{fill:#CBB28A;stroke:#000000;stroke-width:0.6833;stroke-miterlimit:10;}
	.st43{fill:url(#SVGID_4_);}
	.st44{stroke:#FFFFFF;stroke-width:1.9617;stroke-miterlimit:10;}
</style>
<g>
	<ellipse class="st0" cx="160.1" cy="160.3" rx="96.1" ry="95.6"/>
	<path d="M132,212.1l3.4,4.5c-1.6,1.6-3.4,2.5-5.6,2.7c-2.1,0.2-4.4-0.4-6.8-2c-3.2-2.2-5.1-4.7-5.5-7.4c-0.4-2.7,0.2-5.3,1.8-7.8
		c1.7-2.5,3.8-4,6.5-4.7c2.7-0.7,5.3-0.2,7.7,1.5c2,1.3,3.3,2.9,3.9,4.7l0.8-1.1l4.1,2.7l-4.2,6.2l-4.2-2.8c0.3-0.9,0.3-1.8,0.1-2.6
		c-0.2-0.8-0.7-1.4-1.3-1.9c-1.8-1.2-3.8-0.3-5.9,2.9c-2.1,3.2-2.2,5.4-0.3,6.7C128.1,214.8,129.9,214.2,132,212.1z"/>
	<path d="M146.6,216.3l-5.6-1.5c0.9-1.3,2-2.1,3.5-2.4c1.5-0.3,3.6-0.3,6.3,0.2c1,0.2,1.9,0.3,2.7,0.5c0.8,0.2,1.5,0.4,2.1,0.6
		c1.2,0.5,2.1,1,2.7,1.6c0.5,0.6,0.9,1.2,1,1.9c0.2,0.7,0.1,1.6-0.1,2.9l-0.7,4.1l1.8,0.3l-0.7,4.4l-9.1-1.5l0.2-1
		c-1.4,0.6-3.1,0.7-5.2,0.4c-2-0.3-3.4-1-4.3-2c-0.9-1-1.2-2.2-1-3.3c0.2-1.3,1-2.3,2.4-2.9c1.4-0.6,3.1-0.8,5-0.5
		c1.8,0.3,3.2,0.8,4.2,1.4l0.1-0.4c0.1-0.9,0.2-1.5,0.1-1.9c-0.1-0.4-0.3-0.8-0.7-1.1c-0.4-0.3-1-0.5-1.6-0.7
		C148.3,215.2,147.4,215.5,146.6,216.3z M151,223.7l0.4-2.6c-0.6-0.5-1.2-0.7-2-0.9c-0.6-0.1-1.2,0-1.6,0.3
		c-0.4,0.3-0.7,0.7-0.8,1.3c-0.1,0.6,0,1.1,0.3,1.5c0.3,0.4,0.8,0.7,1.3,0.8C149.5,224.2,150.3,224.1,151,223.7z"/>
	<path d="M177.2,226.2l-11.4,1.9l-0.7-4.4l1.8-0.3l-0.9-5.2l-1.8,0.3l-0.7-4.4l1.8-0.3l-0.1-0.3c-0.2-1.5-0.1-2.7,0.4-3.7
		c0.5-1,1.2-1.8,2.1-2.4c0.9-0.6,2.6-1.1,4.9-1.5c1-0.2,2.1-0.3,3.1-0.5l0.7,3.9c-0.7,0-1.3,0.1-1.8,0.2c-0.7,0.1-1.2,0.3-1.5,0.5
		c-0.3,0.2-0.6,0.5-0.6,0.9c-0.1,0.3-0.1,0.9,0.1,1.7l2.7-0.4l0.7,4.4l-2.7,0.4l0.9,5.2l2.4-0.4L177.2,226.2z"/>
	<path d="M192.2,215l5.7-2.2c0.1,0.7,0,1.4-0.2,2c-0.2,0.7-0.5,1.3-1,2c-0.9,1.3-2.2,2.5-4,3.4c-2.9,1.5-5.5,2.1-7.6,1.7
		c-2.1-0.4-3.7-1.6-4.7-3.6c-1-1.9-1.1-3.9-0.3-6c0.8-2,2.4-3.7,4.9-5c2.4-1.3,4.6-1.7,6.8-1.2c2.1,0.4,3.9,1.9,5.2,4.3l-9.9,5.2
		c1.1,2,2.4,2.7,3.9,1.9C191.9,216.9,192.3,216.1,192.2,215z M184.9,206.2l-3.1,1.6l0-6l6-3.2L184.9,206.2z M186.4,213.9l3.7-1.9
		c-0.1-0.3-0.2-0.4-0.2-0.5c-0.4-0.7-0.8-1.2-1.4-1.4c-0.6-0.3-1.2-0.2-1.7,0.1c-0.6,0.3-0.9,0.8-1,1.4c-0.1,0.7,0.1,1.3,0.5,2.1
		C186.3,213.7,186.3,213.8,186.4,213.9z"/>
	<path class="st1" d="M131.3,209.7l3.3,4.5c-1.6,1.5-3.5,2.4-5.6,2.7c-2.1,0.2-4.4-0.5-6.8-2.1c-3.2-2.2-5-4.7-5.4-7.5
		c-0.4-2.7,0.2-5.3,1.9-7.8c1.7-2.4,3.9-4,6.6-4.6c2.7-0.6,5.3-0.1,7.7,1.5c2,1.4,3.2,3,3.8,4.8l0.8-1.1l4,2.8l-4.2,6.1l-4.2-2.9
		c0.3-0.9,0.4-1.8,0.2-2.6c-0.2-0.8-0.7-1.4-1.3-1.9c-1.8-1.3-3.8-0.3-6,2.8c-2.2,3.1-2.3,5.4-0.4,6.7
		C127.3,212.3,129.2,211.8,131.3,209.7z"/>
	<path class="st1" d="M145.8,214l-5.6-1.6c0.9-1.3,2.1-2.1,3.6-2.4c1.5-0.3,3.6-0.2,6.3,0.2c1,0.2,1.9,0.4,2.7,0.6
		c0.8,0.2,1.5,0.4,2.1,0.7c1.2,0.5,2.1,1,2.7,1.6c0.5,0.6,0.9,1.2,1,1.9c0.1,0.7,0.1,1.6-0.1,2.9l-0.7,4l1.8,0.3l-0.8,4.4l-9.1-1.6
		l0.2-1c-1.4,0.6-3.1,0.7-5.2,0.3c-2-0.4-3.4-1.1-4.2-2.1c-0.9-1-1.2-2.2-1-3.3c0.2-1.3,1-2.3,2.4-2.9c1.4-0.6,3.1-0.8,5.1-0.4
		c1.8,0.3,3.2,0.8,4.2,1.5l0.1-0.4c0.2-0.9,0.2-1.5,0.1-1.9c-0.1-0.4-0.3-0.8-0.7-1.1c-0.4-0.3-1-0.6-1.6-0.7
		C147.6,213,146.6,213.3,145.8,214z M150.1,221.5l0.5-2.6c-0.6-0.5-1.2-0.8-2-0.9c-0.6-0.1-1.2,0-1.6,0.3c-0.4,0.3-0.7,0.7-0.8,1.3
		c-0.1,0.6,0,1.1,0.3,1.5c0.3,0.4,0.8,0.7,1.3,0.8C148.7,222,149.4,221.9,150.1,221.5z"/>
	<path class="st1" d="M176.3,224.3l-11.4,1.8l-0.7-4.4l1.8-0.3l-0.8-5.2l-1.8,0.3l-0.7-4.4l1.8-0.3l-0.1-0.3
		c-0.2-1.5-0.1-2.7,0.4-3.7c0.5-1,1.2-1.8,2.2-2.4c0.9-0.6,2.6-1.1,4.9-1.4c1-0.2,2.1-0.3,3.1-0.4l0.6,3.9c-0.7,0-1.3,0.1-1.8,0.2
		c-0.7,0.1-1.2,0.3-1.5,0.5c-0.3,0.2-0.6,0.5-0.6,0.9c-0.1,0.3-0.1,0.9,0.1,1.7l2.7-0.4l0.7,4.4l-2.7,0.4l0.8,5.2l2.4-0.4
		L176.3,224.3z"/>
	<path class="st1" d="M191.5,213.3l5.8-2.1c0,0.7,0,1.4-0.2,2s-0.5,1.3-1,2c-0.9,1.3-2.3,2.4-4,3.3c-3,1.5-5.5,2-7.6,1.6
		c-2.1-0.5-3.7-1.7-4.7-3.7c-1-1.9-1.1-3.9-0.3-6c0.8-2,2.4-3.7,4.9-5c2.4-1.2,4.7-1.6,6.8-1.2c2.1,0.5,3.8,1.9,5.2,4.3l-10,5.1
		c1.1,2,2.4,2.7,3.9,1.9C191.2,215.2,191.6,214.4,191.5,213.3z M184.2,204.4l-3.1,1.6l0-6l6.1-3.1L184.2,204.4z M185.6,212.1
		l3.7-1.9c-0.1-0.3-0.2-0.4-0.2-0.5c-0.4-0.7-0.8-1.2-1.4-1.4c-0.6-0.3-1.2-0.3-1.7,0c-0.6,0.3-0.9,0.8-1,1.4
		c-0.1,0.7,0.1,1.3,0.5,2.1C185.5,211.9,185.6,212,185.6,212.1z"/>
	<g>
		<defs>
			<circle id="SVGID_1_" cx="159.7" cy="158" r="95.5"/>
		</defs>
		<clipPath id="SVGID_2_">
			<use xlink:href="#SVGID_1_"  style="overflow:visible;"/>
		</clipPath>
		<linearGradient id="SVGID_3_" gradientUnits="userSpaceOnUse" x1="157.5282" y1="177.987" x2="157.5282" y2="247.8014">
			<stop  offset="0" style="stop-color:#3C2415"/>
			<stop  offset="1" style="stop-color:#000000"/>
		</linearGradient>
		<path class="st2" d="M307.8,172.2c1-0.9,2.2-1.4,3.5-1.7c1.1-0.3,1.1-0.2,1.2,0.9c0,0.3,0.1,0.7,0.1,1c-0.1,3.5-0.2,7-0.2,10.5
			c-0.3,22.7-0.5,58.6-0.8,81.3c0,2.5,0.2,2.1-2.2,2.1c-55.3-0.6-110.5-1.2-165.8-1.8c-45.4-0.5-90.8-1-136.1-1.5
			c-1.2,0-2.3,0-3.5,0c-1.8,0-1.8,0.2-1.7-1.7c0-0.6,0-1.3,0-1.9c0.1-9.7,0.2-32.5,0.3-42.2c0-0.5,0.3-1.2-0.3-1.6
			c0.3-1.3,1.5-1.5,2.4-1.9c3.2-1.5,6.6-2.5,10.1-2.4c2,0,4,0.7,5.9,1.3c4.6,1.4,8.8,0.9,12.6-2.2c1.4-1.1,2.4-2.5,3.2-4.1
			c1.4-2.8,2.8-5.6,3.8-8.6c1.6-4.7,4.2-6,8.9-4.6c1.6,0.5,2.8,0,3.7-1.5c0.5-0.8,0.7-1.9,1.3-2.6c1.4-1.7,3-2.1,5-1.1
			c3.1,1.5,5.2,0.3,5.4-3.2c0.1-2.1-0.1-4.1-0.7-6.1c-1-3.2-1.2-6.4-0.5-9.7c0.5-2.2,1.5-4,3.9-4.5c2-0.4,3.9-0.1,5.2,1.7
			c1.1,1.5,1.3,3.2,1.4,5c0.1,3.2-0.7,6.3-1.4,9.5c-0.7,3-0.1,4.4,2.4,6c1.2,0.7,2,0.5,3-1c0.9-1.5,2-2.7,3.7-3.3
			c1.6-0.5,3.2-0.4,4.8,0.2c3.8,1.4,6.5,4.2,9.3,6.9c3.3,3.2,6.7,3.2,10.3,0.4c2.1-1.6,3.6-3.5,4.7-5.8c0.9-1.8,1.9-3.5,3-5.1
			c1-1.5,2.3-2.5,4.1-2.8c2.4-0.4,4.6-1.1,7-1.7c3.1-0.8,5.4-2.5,6.8-5.5c2.3-5.1,7.7-8.7,13.9-7.9c4.6,0.6,6.7-1,8.3-5.4
			c1-2.7,1.8-5.4,2.8-8.1c1.5-3.8,4.7-6.3,8.6-6.3c3.8,0,7.5,2.6,8.9,6.2c1.1,2.7,1.2,5.5,1.3,8.3c0.1,2.3,0.2,4.7,0.8,7
			c1.4,5.3,6.2,8.2,11.6,7c1.5-0.3,2.9-0.9,4.3-1.6c2.5-1.3,5.1-2.5,8-2.9c5.9-0.2,9.6,3.4,10.6,8.2c0.4,2.2,1.8,3.9,3.7,5.1
			c0.7,0.5,1.5,0.6,2.5,0.4c1.3-0.4,2.5-0.9,3.8-1.3c2.3-0.6,4.1,0.3,5.8,1.6c1.2,0.9,1.9,2.4,3.5,2.8c2.1,1.8,4.5,1.8,7,1.2
			c0.2,0,0.6,0.4,0.7-0.2c1.7-1.4,2.2-3.1,1.5-5.1c-0.5-2.4-0.3-4.8-0.3-7.1c0-0.5,0-0.9,0.1-1.4c0.3-1.5,0.7-3,2.6-3.3
			c2.1-0.4,4,0.3,5,2c1.3,2,1.6,4.4,1.6,6.7c-0.1,3.2-0.4,6.5-1.4,9.6c-0.1,0.5-0.4,0.9-0.8,1.1c-1.1,2.4-1.8,4.9-2.4,7.4
			c-0.6,2.4-0.5,4.9,0,7.3c0.8,4.2,5.1,6.4,8.6,5.4c2.7-0.8,5.3-1.6,8.2-1.1c1.3,0.2,2.1,0.7,2.5,2c0.2,0.6,0.4,1.2,0.7,1.8
			c0.7,1.3,1.7,1.8,3.2,1.6c2.8-0.4,5-1.9,7.2-3.4c4-2.7,8-5.4,11.9-8.3c0.9-0.7,2.1-1,3.1-1.6c0.5-0.5,0.4-0.7-0.3-0.5
			c-1.6,0.6-3.2,1.2-4.7,2.1c-0.5,0.3-1.2,0.9-1.7,0c1-1.6,2.8-2.4,3.9-3.9c3.1-3.8,6.5-7.4,9.1-11.6c2.4-2,4.1-4.7,6.6-6.7
			c0.9-0.7,2.2-0.9,2.9-1.9c0.6-0.5,1.3-1,2.1-1.3C307.6,172.8,307.7,172.6,307.8,172.2z"/>
		<path class="st3" d="M200.5,165.4c-2.9,0.5-5.6,1.6-8.2,3c-2.1,1.1-4.3,1.8-6.7,1.8c-4,0-8-2.5-9.4-7c-0.6-1.9-0.7-3.9-0.9-5.8
			c-0.1-2-0.2-4.1-0.4-6.1c-0.3-3.1-1.5-5.7-3.9-7.8c-2-1.7-4.4-2.3-6.9-1.9c-3.1,0.5-5.6,2.2-6.8,5.4c-1.2,3-1.9,6.2-3.2,9.2
			c-1,2.3-2.4,4.2-5,5c-0.6,0.2-1.3,0.1-1.9,0.1c-1.9,0-3.8-0.2-5.6,0c-2.6,0.2-4.5,1.9-6.5,3.5c-1.7,1.3-2.7,3.1-3.5,5
			c-1.2,3-3.7,4.1-6.4,4.9c-2.3,0.7-4.7,1.4-7.1,1.8c-1.6,0.3-2.9,1.1-3.8,2.5c-0.9,1.5-2,3-2.7,4.7c-0.8,1.7-1.7,3.2-2.9,4.5
			c-1.9,2-4.2,3.8-7.1,4.1c-1.7,0.2-3.1-0.6-4.6-1.4c-1.3-0.7-2.2-1.8-3.1-2.8c-2.1-2.4-4.8-4.1-7.7-5.3c-2.7-1.1-5.8-0.1-7.4,2.3
			c-0.2,0.2-0.3,0.5-0.4,0.8c-1.1,1.7-2.3,2-3.9,0.7c-1.1-0.9-2.5-1.7-2.6-3.5c0-0.5,0-1,0.1-1.5c0.7-3.2,1.5-6.5,1.6-9.8
			c0-1.5-0.3-2.9-0.8-4.3c-0.6-1.6-1.8-2.6-3.5-2.7c-1.8-0.2-3.4,0.1-4.4,1.8c-0.7,1.1-1.1,2.2-1.2,3.4c0,0.9-0.3,1.8-0.3,2.8
			c0,2,0.4,3.9,1,5.8c0.6,2.1,0.9,4.3,0.6,6.5c-0.1,0.8-0.3,1.6-0.8,2.3c-1.2,1.8-2.8,2.2-4.6,1.2c-0.5-0.3-1-0.6-1.6-0.7
			c-1.7-0.3-3.2,0.5-4,2.2c-0.2,0.5-0.5,0.9-0.6,1.4c-0.8,2.1-2.6,2.8-4.7,2c-1.4-0.5-2.8-0.6-4.3-0.1c-1.3,0.4-2.2,1.1-2.8,2.2
			c-0.3,0.6-0.7,1.1-0.9,1.7c-0.8,3-2.3,5.7-3.6,8.5c-1.8,3.8-4.6,6.6-8.8,7.6c-2.8,0.7-5.5,0.6-8.2-0.5c-1.4-0.5-2.9-0.8-4.4-1.2
			c-1-0.3-1.8,0.3-2.8,0.2c-3.3-0.2-6.2,1.2-9.1,2.6c-0.6,0.3-1.3,0.5-1.7,1.1l0,0c-0.3,0-0.5-0.1-0.4-0.4c0.3-0.3,0.6-0.6,0.8-0.9
			c1.6-0.9,3.3-1.6,5-2.2c3.4-1.2,6.8-1.6,10.3-0.6c0.9,0.3,1.8,0.4,2.7,0.8c2.6,1,5.2,1,7.8,0.4c3.2-0.7,5.7-2.6,7.2-5.4
			c1.7-2.9,3.2-6,4.2-9.2c0.3-0.9,0.7-1.7,1.1-2.6c1.4-2.7,4.4-3.8,7.7-2.9c0.2,0.1,0.4,0.1,0.7,0.2c1.6,0.5,2.5,0.2,3.3-1.3
			c0.3-0.5,0.5-1.1,0.7-1.6c1.5-3,3.7-3.7,6.6-2c1.7,1,2.7,0.7,3.8-1c0.6-1,0.7-2.1,0.7-3.2c0-1.6-0.3-3.3-0.8-4.8
			c-0.9-2.8-1.1-5.7-0.7-8.7c0.1-0.9,0.3-1.8,0.7-2.7c1.5-3.4,5.5-4.4,8.5-2.3c0.8,0.6,1.3,1.4,1.6,2.3c0.8,2.3,0.9,4.7,0.6,7.1
			c-0.4,2.3-0.8,4.6-1.3,6.9c-0.6,2.5,0.4,4.4,2.8,5.3c0.5,0.2,0.9,0.2,1.3-0.2c0.3-0.4,0.6-0.8,0.9-1.3c2-3.3,5.1-4.4,8.7-3
			c3.1,1.2,5.8,2.9,8,5.5c1.1,1.3,2.3,2.5,4,3.2c2.6,1.2,4.8,0.6,6.9-0.9c2.1-1.5,3.8-3.4,5-5.8c0.9-1.9,2-3.7,3.1-5.5
			c1-1.5,2.2-2.4,4-2.9c3.1-0.7,6.3-1.4,9.3-2.6c1.7-0.7,3-1.7,3.8-3.4c0.2-0.4,0.5-0.7,0.6-1.1c1.2-3.4,4.1-5.2,6.7-7.1
			c1.6-1.2,3.5-1.3,5.4-1.2c1.1,0,2.2,0.1,3.3,0.2c3.3,0.3,5.6-1.1,6.6-4.4c0.9-3,2.1-5.9,3.2-8.9c1.2-3.4,3.6-5.6,7.3-6.4
			c4.3-0.9,8.6,1.3,10.7,5.4c1.5,2.9,1.9,6.1,1.9,9.3c0,2.4,0,4.8,0.6,7.1c1,3.8,4.3,6.5,8.3,6.6c2.4,0.1,4.6-0.5,6.7-1.6
			c2.4-1.2,4.9-2.4,7.7-2.9c1-0.2,2-0.3,2.9,0C202.2,165.8,201.1,164.9,200.5,165.4z"/>
		<path class="st4" d="M2,215.2c0.1,0.1,0.3,0.3,0.4,0.4C2.3,216,2,216.2,1.8,216C1.4,215.7,1.6,215.4,2,215.2z"/>
		<path class="st5" d="M295.8,182.7c-0.5,1.7-1.8,2.8-2.8,4.1c-2.4,2.9-4.3,6-7.1,8.5c-1,0.9-2.1,1.8-3.2,2.7
			c-1,1.9-2.7,2.8-4.5,3.7c-0.8,0.4-1.6,0.8-2.4,1.1c-1.7,0.4-3.4,1.2-5.2,1.2c-2.2,0-4.2-0.6-6-2c-0.1-0.1-0.3-0.2-0.4-0.4
			c-0.1-0.1-0.2-0.3-0.4-0.4c-0.1-0.1-0.2-0.3-0.3-0.4c-1.7-2.5-3.9-3.5-7.1-3c-4.9,0.7-8.3-2.5-9.9-7.1c-0.3-0.8-0.4-1.6-0.5-2.4
			c0-1.2,0-2.4,0.5-3.6c0.8-3.2,1.2-6.4,1.4-9.6c0.1-2.5-0.3-5-1.8-7.2c-1-1.4-3.7-2-5.3-1.2c-0.7,0.3-1,0.9-1.2,1.6
			c-0.6,2.6-0.5,5.2-0.3,7.8c0.1,0.6,0.4,1.2-0.2,1.8c-1.2-3.1-0.9-6.2-0.4-9.3c0.4-2.4,1.6-3,4.3-3.1c1.8,0,2.9,1,3.8,2.4
			c0.9,1.4,1.2,2.9,1.4,4.5c0.3,3.9-0.3,7.6-1,11.4c-0.7,3.6-0.4,7.1,2.2,10.1c1.9,2.2,4.2,3.2,7,2.7c2.7-0.5,4.9,0,6.7,2.2
			c0.4,0.4,0.8,0.9,1.1,1.4c1.3,2.3,5.8,3.3,8.2,2.5c2.6-0.9,5.3-1.6,7.5-3.3c2.5-2,5-4,7.1-6.5c2.3-2.7,4.5-5.4,6.7-8.1
			c0.6-0.7,0.8-1.7,1.5-2.3C295.8,182.2,295.9,182.3,295.8,182.7z"/>
		<path class="st5" d="M200.5,165.4c0.3-0.4,0.7-0.3,1-0.3c0.4,0,0.8,0,1.1-0.3c4.6,0.8,7.6,3.3,8.6,8c0.4,1.8,1.3,3.4,2.8,4.7
			c1.1,1,2.2,1.4,3.6,0.7c1.2-0.5,2.4-0.9,3.6-1.2c2.2-0.4,4.1,0.4,5.6,1.8c1.1,1,2.3,2,3.3,3.1c-0.4,0.5-0.7,0.2-1-0.1
			c-0.8-0.9-1.8-1.5-2.6-2.3c-2.2-2.2-4.7-2.2-7.4-1.1c-0.6,0.2-1.2,0.4-1.8,0.7c-1.1,0.5-2.1,0.2-3-0.4c-1.9-1.2-3.3-3-3.8-5.2
			C209.8,169,206.1,165.3,200.5,165.4z"/>
		<path class="st6" d="M295.8,182.7c-0.1-0.1-0.2-0.2-0.3-0.4c2.3-2.1,4-4.8,6.6-6.7c1-0.7,1.9-1.3,3-1.7c0.3,0.6-0.3,0.7-0.6,0.8
			c-2.3,1-3.8,2.9-5.3,4.6C298.1,180.5,297.1,181.7,295.8,182.7z"/>
		<path class="st7" d="M294.5,179.1c-0.8-2.1-0.2-3.8,1-5.4c0.5-0.6,1-1.2,2.1-1.1c-0.7,1.1-1.5,2-2,3.1
			C295.1,176.9,294.9,178,294.5,179.1z"/>
		<path class="st8" d="M34.7,196.7c-1.1-2.2,0.6-5.4,3.5-6.3C36.8,192.4,35.5,194.3,34.7,196.7z"/>
		<path class="st9" d="M90.2,178.3c3.1-0.5,6.1,2.3,5.7,5.1c-0.7-1.3-1.2-2.4-2.3-3.1C92.6,179.7,91.6,179.1,90.2,178.3z"/>
		<path class="st10" d="M36.6,196.2c0.9-2,2.1-3.7,4.1-4.7c-1.2,2-2.9,3.6-3.8,5.8C36.1,197.2,36.5,196.7,36.6,196.2z"/>
		<path class="st11" d="M134.1,159.8c-0.3,0.3-0.6,0.7-1,1c-1.3,1-2.2,2.2-2.4,4.2c-0.8-1.4-0.7-2.4,0-3.3c0.7-0.9,1.5-1.6,2.6-1.9
			C133.7,159.7,133.9,159.7,134.1,159.8z"/>
		<path class="st12" d="M97.1,179.1c0.1,0.1,0.1,0.2,0.1,0.3c0.1,0.3,0.3,0.7-0.3,0.7c-1.2-1.3-2.4-2.7-3.9-3.7
			c0.7-0.6,1.3-0.3,1.9,0.1c0.8,0.6,1.4,1.3,1.9,2.2C97,178.8,97,178.9,97.1,179.1z"/>
		<path class="st13" d="M251.7,169.9c1.6,2.2,1.7,4.5,0.2,6.1c0.4-2.1,0.1-4.1-0.6-6.1C251.4,169.7,251.6,169.7,251.7,169.9z"/>
		<path class="st14" d="M179.1,149.4c-0.4-1.7-0.6-3.4-1.2-5.2C179.4,145.3,180,147.4,179.1,149.4z"/>
		<path class="st15" d="M254.2,171.3c0.7,1.7,0.9,3.4,0.6,5.3c-0.4,0.2-0.5-0.1-0.6-0.3c-0.1-1.2-0.5-2.5-0.4-3.7
			C253.7,172.1,253.3,171.5,254.2,171.3z"/>
		<path class="st16" d="M130.5,159.5c-0.6,1.3-1.2,2.5-1.9,3.9c-0.6-1.9-0.1-3,1.8-4.4C130.5,159.2,130.6,159.3,130.5,159.5z"/>
		<path class="st10" d="M292.3,175.1c0.6-1.4,1.5-2.6,2.9-3.4c0.2,0.1,0.2,0.3,0.1,0.5c-0.7,1.4-1.9,2.4-2.6,3.7
			C292,175.9,292.3,175.5,292.3,175.1z"/>
		<path class="st17" d="M181.1,146.5c0.6,1.8,0.6,2,0,3.5c-0.1-1-0.4-1.8-0.4-2.6C181,147.1,180.8,146.7,181.1,146.5z"/>
		<path class="st18" d="M181.1,146.5c-0.1,0.3-0.1,0.6-0.4,0.8c-0.1-0.1-0.1-0.2-0.1-0.3c-0.1-0.2-0.1-0.5-0.3-0.8
			c-0.1-0.5-0.3-0.9-0.4-1.4c-0.1-0.4,0.1-0.5,0.4-0.4c0.2,0.3,0.4,0.6,0.4,0.9c0,0.2,0.1,0.3,0.2,0.5
			C181.1,146.1,181.1,146.3,181.1,146.5z"/>
		<path class="st19" d="M36.6,196.2c0.1,0.4-0.1,0.8,0.3,1.1c0,0.5-0.2,0.9-0.6,1.5C36.2,197.8,36.1,197,36.6,196.2z"/>
		<path class="st20" d="M254.2,171.3c-0.5,0.3-0.3,0.8-0.4,1.2c-0.4-0.8-0.3-1.6-0.3-2.7C253.9,170.4,254.2,170.8,254.2,171.3z"/>
		<path class="st21" d="M96.9,180.1c0.3-0.2,0.2-0.5,0.3-0.7c0.4,0.4,0.5,0.9,0.3,1.4C97,180.8,97.1,180.3,96.9,180.1z"/>
		<path class="st22" d="M254.1,176.2c0.2,0.1,0.4,0.2,0.6,0.3c0,0.3-0.2,0.7-0.5,0.6C253.9,177,254.1,176.6,254.1,176.2z"/>
		<path class="st23" d="M292.3,175.1c0.1,0.3,0.1,0.6,0.3,0.8c-0.1,0.4-0.4,0.6-0.6,0.1C291.9,175.7,292,175.4,292.3,175.1z"/>
		<path class="st24" d="M307.8,172.2c0.2,0.2,0.2,0.4,0,0.5c-0.3,0.2-0.5,0.2-0.7-0.1C307.3,172.4,307.5,172.3,307.8,172.2z"/>
		<path class="st25" d="M180.4,144.5c-0.2,0-0.3,0.2-0.4,0.4c0,0-0.1-0.1-0.1-0.1c-0.2-0.3-0.4-0.7-0.1-0.9
			C180.1,143.8,180.3,144.2,180.4,144.5z"/>
		<path class="st5" d="M237.8,183c0.1,0.1,0.3,0.3,0.1,0.4c-0.3,0.1-0.5,0-0.7-0.2C237.4,183.1,237.6,183,237.8,183z"/>
		<path class="st26" d="M251.7,169.9c-0.2,0-0.3,0-0.5,0c-0.3-0.1-0.3-0.3-0.1-0.4C251.5,169.4,251.7,169.6,251.7,169.9z"/>
		<path class="st27" d="M295.3,172.2c0-0.2,0-0.3-0.1-0.5c0-0.2,0.2-0.3,0.4-0.3c0.1,0.1,0.1,0.2,0.1,0.2c0,0.1,0,0.1-0.1,0.1
			C295.6,172,295.5,172.1,295.3,172.2z"/>
		<path class="st28" d="M295.6,171.8c0-0.1,0-0.3-0.1-0.4c0.1-0.1,0.2-0.3,0.3-0.1C296,171.5,295.8,171.7,295.6,171.8z"/>
		<path class="st29" d="M134.1,159.8c-0.2,0-0.5-0.1-0.7-0.1c0.2-0.2,0.4-0.4,0.7-0.3C134.3,159.6,134.3,159.8,134.1,159.8z"/>
		<path class="st30" d="M130.5,159.5c0-0.2-0.1-0.3-0.1-0.5c0.1-0.2,0.2-0.3,0.3-0.1C130.9,159.2,130.7,159.4,130.5,159.5z"/>
		<path class="st17" d="M180.4,146.3c0.3,0.2,0.3,0.5,0.3,0.8C180.5,146.8,180.4,146.6,180.4,146.3z"/>
		<path class="st21" d="M97.1,179.1c-0.2-0.1-0.3-0.2-0.2-0.4C97,178.8,97.2,178.9,97.1,179.1z"/>
		<path class="st17" d="M181,145.9c-0.1-0.2-0.2-0.3-0.2-0.5C180.9,145.6,181,145.7,181,145.9z"/>
		<path class="st31" d="M246.6,184.6c0,1.3,0,2.6,0,3.9c-0.1,2.5,0,5,0.9,7.3c1,2.6,3.1,3.8,5.8,3.3c1.4-0.2,2.9-0.6,4.3-0.9
			c2.8-0.6,4.9,0.4,6.5,2.7l0,0c0.1,0.1,0.2,0.2,0.4,0.4l0,0c0.7,0.9,1.5,1.8,2,2.8c0.5,1,1.5,1.3,2.7,1.1c1.8-0.2,3.3-1.2,4.8-1.9
			c0.7-0.3,1.4-0.6,2-0.9c0.7-0.7,1.7-1,2.6-1.4c1.6-0.7,2.8-2.1,4.2-3.1c0.5,0.6,0.9,0.1,1.2-0.1c1.5-1.1,3.4-1.5,5-2.4
			c0.1,0,0.1-0.1,0.2-0.1c0.4-0.1,1-0.4,1.2,0.2c0.3,0.5-0.1,0.8-0.6,1.1c-3,0.7-5.2,2.8-7.6,4.5c-3.8,2.5-7.5,5.1-11.4,7.5
			c-0.7,0.4-1.4,0.7-2.1,0.9c-2.9,0.9-4.4,0.2-5.4-2.7c-0.8-2.2-0.8-2.2-3.2-2.4c-2.6-0.3-5.1,0.5-7.6,1.1c-4.5,1.1-8.3-1.5-8.8-6.1
			c-0.3-3.4-0.4-6.9,1.1-10.1c0.6-1.3,0.5-2.7,1.1-4C246.2,185,246.4,184.8,246.6,184.6z"/>
		<path class="st31" d="M65.4,169.3c0.3-0.3,0.7-0.5,0.9-0.8c0.5-0.8,1-0.6,1.6-0.2c0.1,0.1,0.1,0.2,0,0.4l0,0
			c-1.8,2.1-2.1,4.9-0.8,6.6c0,0,0.1,0.1,0.1,0.1c-0.8,1.2,0,2.3,0.2,3.4c0.1,2.6,0.7,5.1,1.4,7.5c0.9,3.3-0.6,7-3.5,8.6
			c-2.1,1.2-3.7,0.9-5.9-1c-1.5-1.4-1.8-1.3-2.5,0.6c-1.6,4.5-1.6,4.5-6.3,4.3c-1.2-0.1-2.3,0.1-3.4,0.5c-1.6,0.5-2.4,1.7-2.5,3.5
			c0,0.2-0.1,0.6-0.3,0.4c-0.7-0.5-0.9-1.5-0.5-2.2c0.9-1.6,1.9-3.1,3.1-4.4c1.2-1.2,2.7-1.8,4.4-1.8c1.9-0.1,1.9,0,2.5-1.9
			c0.4-1.2,0.7-2.3,1.8-3.2c1.2-1,1.8-1.2,3.1-0.4c1.3,0.7,2.5,1.4,3.9,2c0.8,0.3,1.2,0.2,1.7-0.4c0.8-1,1.3-2.1,1.5-3.3
			c0.7-3.1,0.6-6.2-0.6-9.2c-1-2.5-0.6-5.2-0.5-7.8c0-0.1,0.2-0.3,0.3-0.4c0.5,0.8,0,1.6,0.2,2.4C65,171.5,65.5,170.4,65.4,169.3z"
			/>
		<path class="st31" d="M124.2,179.4c-0.7,0.7-1.4,0.2-2.2,0.4c0.3-1.4,1.4-1.5,2.3-1.8c1.8-0.5,3.6-1,5.3-1.8
			c1.9-0.9,2.7-2.4,3.3-4.4c1.2-4.1,3.5-7.6,8.5-8.4c1.2-0.2,2.3-0.2,3.5-0.3c1.3-0.1,2.7-0.2,4-0.4c1.7-0.3,3.1-1.2,4-2.8
			c1.1-1.9,2.9-2.8,5-3c0,0.1,0.1,0.1,0.1,0.2c0,0.1-0.1,0.1-0.1,0.2l0,0c-0.1,0.1-0.2,0.2-0.4,0.4l0,0c-0.9,1-1.6,2.1-2.2,3.4
			c-1.9,4.1-5.4,5.6-9.6,5.6c-1.6,0-3.1,0.3-4.6,0.7c-2.7,0.8-4.7,2.4-5.6,5.2c-1.5,4.4-4.9,6-9.2,6.1c-0.7,0-1.4,0.2-2,0.4
			c-0.1,0-0.4-0.1-0.2,0.2C124,179.2,124.1,179.3,124.2,179.4z"/>
		<path class="st31" d="M167.4,143.7c0.8-0.7,1.6-0.2,2.2,0.3c2.3,2,3.7,4.5,3.7,7.6c0,0.6,0,1.2,0,1.7c-0.1,2-0.1,3.9-0.3,5.9
			c-0.4,2.8-0.1,5.7,1.4,8.3c0.2,0.5,0.9,1.1,0.2,1.5c-0.6,0.3-0.9-0.5-1.3-0.9c-1.7-2.3-2.7-4.9-3.4-7.6c-0.2-0.8-0.7-1.6-0.8-2.5
			c-0.1-4,0.7-7.9-0.2-11.9C168.6,145.2,168.2,144.4,167.4,143.7z"/>
		<path class="st3" d="M245.9,185.3c0.1,1.9-0.6,3.6-1.2,5.2c-0.5,1.3-0.7,2.6-0.7,3.9c0,1.2,0,2.5,0,3.7c-0.1,1.5,0.4,2.8,1,4
			c1.4,2.6,4.1,3.7,7,3c0.5-0.1,1-0.2,1.5-0.4c2.5-1,5.2-0.8,7.8-0.7c1.1,0,1.6,0.7,2,1.7c0.3,0.8,0.5,1.7,0.9,2.4
			c0.4,0.8,1,1.1,2,1.2c2.3,0.3,4.1-0.8,5.8-2c2.6-1.8,5.3-3.5,8-5.3c1.7-1.2,3.4-2.4,5.1-3.6c1.2-0.9,2.5-1.5,3.9-1.9
			c0.2-0.1,0.4-0.2,0.6,0.1c-5.8,3.1-10.7,7.3-16.2,10.8c-2,1.2-3.9,2.5-6.3,2.8c-1.6,0.2-2.8-0.2-3.5-1.6c-0.4-0.7-0.6-1.5-0.9-2.3
			c-0.5-1.3-0.6-1.2-2-1.5c-2.8-0.6-5.4,0.2-8,1c-4.4,1.4-8.8-2-9.4-6.1c-0.5-3.7-0.3-7.2,1.1-10.6c0.5-1.3,0.9-2.6,0.9-4.1
			c0-0.2,0.2-0.5,0.5-0.3C245.9,184.9,245.9,185.1,245.9,185.3z"/>
		<path class="st3" d="M44.6,202.7c-0.5-1.4,0.1-2.7,1.5-3.5c1.8-1,3.8-1.3,5.7-0.8c2,0.5,3.5,0.2,4.1-2.5c0.2-0.9,0.5-1.8,0.9-2.6
			c0.5-1.1,1.2-1.3,2.2-0.5c0.4,0.3,0.7,0.8,1.1,1.1c1.7,1.5,3.7,1.6,5.4,0.2c2.3-1.9,4-4.7,2.6-8.4c-0.7-1.7-0.7-3.5-1.1-5.3
			c-0.2-0.6-0.3-1.3,0.3-1.8c0.9,1.4,0.8,3,1.2,4.5c0.3,1.1,0.4,2.3,0.8,3.4c0.7,1.9,0.2,3.6-0.7,5.2c-0.7,1.3-1.6,2.6-3,3.3
			c-2.3,1.3-4.1,1.3-6.4-0.7c-1.5-1.3-1.5-1.3-2.1,0.5c-0.3,0.8-0.5,1.7-0.8,2.5c-0.5,1.2-1.3,2-2.8,1.9c-1.2-0.1-2.5-0.1-3.7-0.1
			C46.4,199.3,45.5,200.3,44.6,202.7z"/>
		<path class="st3" d="M124.2,179.4c-0.5,0-0.9,0-1.7,0c1.7-1,3.4-1,5-1.3c0.3-0.1,0.7-0.1,1-0.1c3.4-0.4,5.4-2.7,6.4-5.6
			c1-2.9,2.9-4.5,5.7-5.3c1.7-0.5,3.4-0.7,5.1-0.7c2.9,0,5.6-0.8,7.6-3.2c0.6-0.7,1-1.6,1.5-2.4c0.7-1.2,1.2-2.4,2.5-3.1
			c-1.1,2.2-2.2,4.4-3.7,6.3c-1.2,1.4-2.7,2.2-4.4,2.6c-1.3,0.2-2.5,0.5-3.8,0.5c-2.7-0.1-5,0.9-7.3,2.2c-1.2,0.7-1.7,1.9-2.1,3.1
			c-0.6,1.5-1.3,2.8-2.3,4.1c-0.6,0.8-1.4,1.4-2.4,1.7c-1.6,0.6-3.3,1.1-5.1,1C125.5,179,124.9,179.3,124.2,179.4z"/>
		<path class="st31" d="M13.6,218.2c-0.3,0.4-0.8,0.5-1-0.1c-0.2-0.6-0.3-1.4,0.1-1.9c0.8-1.2,1.8-2.3,3.5-2.3c0.4,0,0.8,0,1.2,0
			c1.2,0,2,0.5,2.4,1.6c0.3,0.9,0.8,1.7,0.8,2.7C18.3,216.6,16,216.5,13.6,218.2z"/>
		<path class="st3" d="M167.4,143.7c1.1,0.2,1.5,1,1.7,1.9c0.4,2.4,1,4.7,0.4,7.2c-0.3,1.1-0.1,2.4-0.1,3.6c0,0.6,0.2,1.2-0.4,1.6
			c-0.5-2.5-0.3-5.1-0.3-7.7c0-2.3-0.1-4.6-1.5-6.6C167.3,143.8,167.4,143.8,167.4,143.7z"/>
		<path class="st3" d="M13.6,218.2c-0.2-0.1-0.6-0.1-0.3-0.3c2-2,5.5-1.8,7.3,0.4c0,0.3,0.1,0.6-0.2,0.8c-1.3-1.7-3-1.8-4.9-1.3
			C14.8,217.9,14.3,218.2,13.6,218.2z"/>
		<path class="st3" d="M67.1,175.2c-0.3,0.4-0.6,0.3-0.8-0.1c-0.3-1-0.7-1.9-0.4-3c0.2-0.8,0.3-1.7,0.7-2.5c0.2-0.5,0.5-1,1.2-1
			c-0.3,0.9-0.5,1.8-0.8,2.6C66.6,172.5,66.6,173.9,67.1,175.2z"/>
		<path class="st3" d="M7.5,216.5c0.1,1.3-0.5,2.3-0.5,3.4c0,1.1,0.3,2.3,0.5,3.5C5.7,221.4,5.7,218.5,7.5,216.5z"/>
		<path class="st3" d="M206.1,169.4c1.4,0.7,3.2,3.6,3.1,5.1c0,0.2-0.1,0.3-0.4,0.4c-0.6-0.8-0.6-1.9-1.2-2.7
			C207,171.3,206.4,170.4,206.1,169.4L206.1,169.4z"/>
		<path class="st3" d="M241,174.1c-1.3-1.4-0.9-3.2,0.8-4.5C241.7,171.2,240.9,172.6,241,174.1z"/>
		<path class="st3" d="M167,149.5c-0.3-1.8-1-3.4-2.2-4.9C166.9,145.4,167.8,147.2,167,149.5z"/>
		<path class="st3" d="M4.8,222c-1.4-1.6-1.3-3,0.3-4.7c0.4,0.8-0.3,1.5-0.2,2.3C4.9,220.4,4.8,221.2,4.8,222z"/>
		<path class="st3" d="M304.3,178.1c-1.3,1.2-2.5,2.4-3.7,3.5C300.7,180.1,302.2,178.6,304.3,178.1z"/>
		<path class="st3" d="M164.9,149.7c-0.6-1.6-1.5-2.8-1.6-4.3C164.8,146.3,165.4,147.8,164.9,149.7z"/>
		<path class="st3" d="M304.2,179.9c-0.1,1.1-0.9,1.4-1.3,1.9c-0.2,0.3-0.3,0.9-0.8,0.6c-0.4-0.3,0-0.8,0.1-1.1
			C302.5,180.6,303.3,180.3,304.2,179.9z"/>
		<path class="st3" d="M206.7,175c-0.1-1.5-1.1-2.6-1.7-4.1C206.9,172.2,207.4,173.5,206.7,175L206.7,175z"/>
		<path class="st3" d="M242.2,174.4c-0.4-1.2,0-2.1,1-3.3C243.1,172.5,242.8,173.5,242.2,174.4z"/>
		<path class="st3" d="M65.4,169.3c0.5,0.3,0.4,0.9,0.3,1.3c-0.3,0.8-0.3,1.7-0.3,2.5c-0.1,0-0.2,0-0.4,0c0-0.9,0-1.8,0-2.8
			C65.1,169.9,65.2,169.6,65.4,169.3z"/>
		<path class="st31" d="M157.8,156.9c0.1-0.2,0.3-0.3,0.5-0.1c0.2,0.2,0,0.4-0.2,0.5C158,157.2,157.9,157.1,157.8,156.9L157.8,156.9
			z"/>
		<path class="st3" d="M206.7,175c0,0.1-0.1,0.1-0.1,0.1C206.5,175.1,206.6,175.1,206.7,175L206.7,175z"/>
		<path class="st3" d="M67.8,168.6c0-0.1,0-0.2,0-0.4C68.1,168.3,68.1,168.5,67.8,168.6z"/>
		<path class="st3" d="M206.1,169.4c-0.1,0-0.1-0.1-0.1-0.1c0,0,0.1,0,0.1,0C206.1,169.3,206.1,169.3,206.1,169.4L206.1,169.4z"/>
		<path class="st3" d="M157.4,157.6c0.1-0.1,0.2-0.2,0.4-0.4C157.7,157.4,157.6,157.5,157.4,157.6z"/>
		<path class="st3" d="M157.8,156.9c0.1,0.1,0.2,0.2,0.3,0.4c-0.1,0-0.2,0-0.3,0C157.8,157.2,157.8,157.1,157.8,156.9z"/>
		<path class="st32" d="M264,200.9c-1.1-0.7-2-1.9-3.5-2.2c-1.5-0.4-2.9,0.1-4.3,0.3c-0.9,0.1-1.8,0.3-2.7,0.6
			c-2.4,0.8-5.5-0.6-6.6-3.5c-0.9-2.4-0.9-4.8-0.7-7.2c0-0.1,0.2-0.3,0.3-0.4c0.4,3.4,2.1,6,4.9,7.9c1.6,1.1,3.6,1.3,5.5,0.8
			C259.6,196.6,262.2,197.5,264,200.9z"/>
		<path class="st32" d="M275.9,202.4c-2.2,1.5-4.4,2.8-7.1,3.3c-1.2,0.2-2.2-0.1-2.7-1.1c-0.6-1.1-1.5-2.1-1.8-3.3
			c3.1,2.4,6.4,2.9,10,1.4C274.9,202.5,275.4,202.4,275.9,202.4z"/>
		<path class="st32" d="M264.4,201.3c-0.1-0.1-0.2-0.2-0.4-0.4C264.1,201,264.2,201.1,264.4,201.3z"/>
		<path class="st33" d="M274.3,196c0.6,1.1,1.9,1.4,3.1,1.1c0.9-0.2,2.2-1,3.1-1.9c0.2-0.1,0.4-0.3,0.5-0.5c0.2-0.3,0.2-0.5,0.2-0.8
			c0.1-0.2,0.1-0.4,0-0.6c0-0.3-0.1-0.6-0.3-0.8c0,0,0-0.1-0.1-0.1c-0.3-0.4-0.6-0.6-1-0.8c-1.6-1.4-4.2-2.2-5.5,0
			C273.7,192.7,273.7,194.7,274.3,196z"/>
		<path class="st33" d="M268,187.4c0.1,0,0.2,0.1,0.3,0.1c1.2,1.2,3,1.8,4.8,1.3c2.1-0.6,3.6-2.5,3.7-4.6c0.1-0.2,0.1-0.3,0.2-0.5
			c0.3-0.8,0.5-1.6,0.5-2.5c0.2-3.3-3.2-5.6-6.2-4.9c-1.6,0.4-3,1-4.3,2c-0.8,0.4-1.4,1-1.8,1.8c-0.5,0.8-0.7,1.6-0.7,2.5
			C264.3,184.8,265.9,186.7,268,187.4z"/>
		<path class="st33" d="M12.1,202.7c0.4,1,1.4,1.7,2.3,2.1c0.3,0.3,0.7,0.5,1,0.7c0.3,0.4,0.6,0.7,1,1c0.8,1.3,2.1,2.2,4,2.2
			c0.2,0,0.4,0,0.5,0c0.2,0,0.3,0,0.5,0c2.5,0,4.4-1.7,4.9-4c0.1-0.4,0.3-0.8,0.4-1.1c0.4-0.8,0.5-1.8,0.5-2.7
			c0.1-2.1-1.5-4.3-3.6-4.8c-0.7-0.2-1.4-0.3-2.1-0.3c-0.1-0.1-0.2-0.1-0.3-0.2c-1.4-0.9-3.1-1.2-4.8-1.4c-2.2-0.2-4.2,1.6-4.8,3.6
			C11.2,199.7,11.4,201.1,12.1,202.7z"/>
		<path class="st33" d="M21.8,189.7c0.2,1,0.4,1.9,0.7,2.9c0.5,1.5,2.2,1.6,3,0.4c0.2-0.2,0.3-0.4,0.4-0.7c0.7-0.8,0.3-2.1,0.1-3
			c-0.2-0.6-0.5-1.2-1.1-1.5c-0.3-0.2-0.7-0.4-1-0.4c-0.3,0-0.6,0.1-0.9,0.3C22.2,187.9,21.6,188.8,21.8,189.7z"/>
		<path class="st33" d="M49.3,179c0.7,0.9,1.6,1.5,2.7,1.8c0.5,0.2,1.2,0,1.6-0.4c0,0,0,0,0,0c0.4-0.2,0.6-0.6,0.8-1
			c0.5-1.2,0.8-2.4,0.6-3.6c-0.1-0.5-0.4-1-0.7-1.3c-0.5-0.5-1-0.6-1.7-0.7c-0.7-0.1-1.6,0.2-2.2,0.6c-0.7,0.5-1.4,1.2-1.6,2.2
			C48.7,177.4,48.8,178.3,49.3,179z"/>
		<path class="st33" d="M83.9,170.1c0.2,0.4,0.5,0.7,0.8,0.9c1.3,1,2.8,0.9,4.3,0.6c0,0,0,0,0,0c0,0,0,0,0,0l0,0
			c0.3-0.1,0.6-0.3,0.9-0.6c0.1-0.1,0.2-0.2,0.3-0.3c2.2-2.5,4-6.5,0.5-8.8c-2.2-1.5-5.8-1.1-7.7,0.8
			C81.1,164.9,81.7,168.6,83.9,170.1z"/>
		<path class="st33" d="M94.3,162.2c1.1,0.6,2.2,0.8,3.5,0.3c0.2-0.1,0.5-0.3,0.7-0.5c0.4,0,0.9-0.1,1.2-0.4c0.6-0.6,0.7-1.8,0-2.3
			c-0.1-0.1-0.2-0.2-0.3-0.3c-0.1-0.1-0.1-0.2-0.2-0.3c-0.2-0.4-0.4-0.7-0.7-1.1c-0.9-1.1-2.5-1-3.7-0.7c-0.7,0.2-1.2,0.8-1.2,1.6
			c0,0.3,0,0.6,0,1c0,0.2,0,0.4,0,0.6c0,0-0.1,0.6,0,0.3C93.5,161.1,93.6,161.9,94.3,162.2z"/>
		<g class="st34">
			<path class="st35" d="M87,155.3C87.1,155.4,87.1,155.3,87,155.3L87,155.3z"/>
			<path class="st35" d="M85.4,153.1c0.2,0.6,0.5,1.1,0.9,1.5c0.2,0.2,0.3,0.3,0.5,0.4c0,0,0.1,0.1,0.2,0.1c0,0,0.1,0.1,0.1,0.1
				c0,0,0-0.1-0.1-0.1c0.5,0.8,1.4,1.1,2.3,0.6c0.4-0.2,0.7-0.6,0.8-1c0.5-0.5,0.7-1.3,0.3-1.9c0-0.1,0-0.2,0-0.3
				c0-0.6-0.2-1.1-0.6-1.6c-0.4-0.5-1.2-0.7-1.9-0.7c-0.6-0.1-1,0.3-1.4,0.7c-0.1,0.1-0.1,0.1-0.2,0.2c0,0-0.4,0.3-0.1,0.1
				C85.5,151.7,85.1,152.3,85.4,153.1z"/>
		</g>
		<path class="st33" d="M179.6,164.8c2.7,3.5,10.1,3.6,12.3-0.4c0.7-1.2,0.8-2.4,0.5-3.5c0-0.4-0.1-0.8-0.2-1.2
			c-0.7-2.6-3.3-4.4-5.7-5.1C180.5,152.9,175.8,159.9,179.6,164.8z"/>
	</g>
	<circle class="st36" cx="159.8" cy="160.1" r="95.5"/>
	<circle class="st36" cx="159.8" cy="160.1" r="63.1"/>
	<circle class="st37" cx="159.8" cy="160.1" r="58.2"/>
	<circle class="st38" cx="159.8" cy="160.1" r="55.3"/>
	<path class="st1" d="M131.4,211.7l3.3,4.5c-1.6,1.5-3.5,2.4-5.6,2.7c-2.1,0.2-4.4-0.5-6.8-2.1c-3.2-2.2-5-4.7-5.4-7.5
		c-0.4-2.7,0.2-5.3,1.9-7.8c1.7-2.4,3.9-4,6.6-4.6c2.7-0.6,5.3-0.1,7.7,1.5c2,1.4,3.2,3,3.8,4.8l0.8-1.1l4,2.8l-4.2,6.1l-4.2-2.9
		c0.3-0.9,0.4-1.8,0.2-2.6c-0.2-0.8-0.7-1.4-1.3-1.9c-1.8-1.3-3.8-0.3-6,2.8c-2.2,3.1-2.3,5.4-0.4,6.7
		C127.4,214.4,129.3,213.9,131.4,211.7z"/>
	<path class="st1" d="M145.9,216.1l-5.6-1.6c0.9-1.3,2.1-2.1,3.6-2.4c1.5-0.3,3.6-0.2,6.3,0.2c1,0.2,1.9,0.4,2.7,0.6
		c0.8,0.2,1.5,0.4,2.1,0.7c1.2,0.5,2.1,1,2.7,1.6c0.5,0.6,0.9,1.2,1,1.9c0.1,0.7,0.1,1.6-0.1,2.9l-0.7,4l1.8,0.3l-0.8,4.4l-9.1-1.6
		l0.2-1c-1.4,0.6-3.1,0.7-5.2,0.3c-2-0.4-3.4-1-4.2-2.1c-0.9-1-1.2-2.2-1-3.3c0.2-1.3,1-2.3,2.4-2.9c1.4-0.6,3.1-0.8,5.1-0.4
		c1.8,0.3,3.2,0.8,4.2,1.5l0.1-0.4c0.2-0.9,0.2-1.5,0.1-1.9c-0.1-0.4-0.3-0.8-0.7-1.1c-0.4-0.3-1-0.6-1.6-0.7
		C147.7,215,146.7,215.3,145.9,216.1z M150.2,223.6l0.5-2.6c-0.6-0.5-1.2-0.8-2-0.9c-0.6-0.1-1.2,0-1.6,0.3
		c-0.4,0.3-0.7,0.7-0.8,1.3c-0.1,0.6,0,1.1,0.3,1.5c0.3,0.4,0.8,0.7,1.3,0.8C148.8,224.1,149.6,224,150.2,223.6z"/>
	<path class="st1" d="M176.4,226.3l-11.4,1.8l-0.7-4.4l1.8-0.3l-0.8-5.2l-1.8,0.3l-0.7-4.4l1.8-0.3l-0.1-0.3
		c-0.2-1.5-0.1-2.7,0.4-3.7c0.5-1,1.2-1.8,2.2-2.4c0.9-0.6,2.6-1.1,4.9-1.4c1-0.2,2.1-0.3,3.1-0.4l0.6,3.9c-0.7,0-1.3,0.1-1.8,0.2
		c-0.7,0.1-1.2,0.3-1.5,0.5c-0.3,0.2-0.6,0.5-0.6,0.9c-0.1,0.3-0.1,0.9,0.1,1.7l2.7-0.4l0.7,4.4l-2.7,0.4l0.8,5.2l2.4-0.4
		L176.4,226.3z"/>
	<path class="st1" d="M191.6,215.3l5.8-2.1c0,0.7,0,1.4-0.2,2c-0.2,0.7-0.5,1.3-1,2c-0.9,1.3-2.3,2.4-4,3.3c-3,1.5-5.5,2-7.6,1.6
		c-2.1-0.5-3.7-1.7-4.7-3.7c-1-1.9-1.1-3.9-0.3-6c0.8-2,2.4-3.7,4.9-5c2.4-1.2,4.7-1.6,6.8-1.2c2.1,0.5,3.8,1.9,5.2,4.3l-10,5.1
		c1.1,2,2.4,2.7,3.9,1.9C191.3,217.3,191.7,216.5,191.6,215.3z M184.4,206.4l-3.1,1.6l0-6l6.1-3.1L184.4,206.4z M185.7,214.2
		l3.7-1.9c-0.1-0.3-0.2-0.4-0.2-0.5c-0.4-0.7-0.8-1.2-1.4-1.4c-0.6-0.3-1.2-0.3-1.7,0c-0.6,0.3-0.9,0.8-1,1.4
		c-0.1,0.7,0.1,1.3,0.5,2.1C185.6,214,185.7,214.1,185.7,214.2z"/>
	<ellipse class="st39" cx="159.8" cy="179.4" rx="35.2" ry="10.3"/>
	<ellipse class="st40" cx="161" cy="179" rx="29.5" ry="8.4"/>
	<ellipse class="st41" cx="160.3" cy="178.5" rx="11.9" ry="3.9"/>
	<g>
		<path class="st42" d="M141.3,133.2c0,0,2.5-4.3,12.3-2.2c9.8,2.2,25.5,8.4,33.5,15.3c5.2,4.9,3.4,5.1,3.4,7.7
			c-3.9,9.5-16.2,18.2-16.2,18.2s-4.3,4.1-13.9,3.6s-13.1-4.4-13.1-4.4s-6.6-10.7-7.6-10.5c-0.9,0.2-12.4,0-12.4-14
			C128.5,128.8,141.3,133.2,141.3,133.2z"/>
		<path d="M187.1,150.8c0,0-9.2-8.8-19.1-12.8c-9.9-4-22-4.8-22-4.8s14.8,3.2,21.2,6S187.1,150.8,187.1,150.8z"/>
		<linearGradient id="SVGID_4_" gradientUnits="userSpaceOnUse" x1="141.3252" y1="155.2134" x2="187.0844" y2="155.2134">
			<stop  offset="0" style="stop-color:#3C2415"/>
			<stop  offset="1" style="stop-color:#000000"/>
		</linearGradient>
		<path class="st43" d="M142,136.3c0,0,21.1,19.9,45.1,18.6c-1,2.1-12.5,22.9-30.2,18.6C136.5,168.6,142,136.3,142,136.3z"/>
		<path d="M139.7,158.2c0,0-9.7-0.5-9.7-10.8s9.1-11.6,9.1-11.6s-8.4,3.5-8.1,11.7C131.3,155.9,139.7,158.2,139.7,158.2z"/>
	</g>
	<path d="M131.4,211.7l3.3,4.5c-1.6,1.5-3.5,2.4-5.6,2.7c-2.1,0.2-4.4-0.5-6.8-2.1c-3.2-2.2-5-4.7-5.4-7.5c-0.4-2.7,0.2-5.3,1.9-7.8
		c1.7-2.4,3.9-4,6.6-4.6c2.7-0.6,5.3-0.1,7.7,1.5c2,1.4,3.2,3,3.8,4.8l0.8-1.1l4,2.8l-4.2,6.1l-4.2-2.9c0.3-0.9,0.4-1.8,0.2-2.6
		c-0.2-0.8-0.7-1.4-1.3-1.9c-1.8-1.3-3.8-0.3-6,2.8c-2.2,3.1-2.3,5.4-0.4,6.7C127.4,214.4,129.3,213.9,131.4,211.7z"/>
	<path d="M145.9,216.1l-5.6-1.6c0.9-1.3,2.1-2.1,3.6-2.4c1.5-0.3,3.6-0.2,6.3,0.2c1,0.2,1.9,0.4,2.7,0.6c0.8,0.2,1.5,0.4,2.1,0.7
		c1.2,0.5,2.1,1,2.7,1.6c0.5,0.6,0.9,1.2,1,1.9c0.1,0.7,0.1,1.6-0.1,2.9l-0.7,4l1.8,0.3l-0.8,4.4l-9.1-1.6l0.2-1
		c-1.4,0.6-3.1,0.7-5.2,0.3c-2-0.4-3.4-1-4.2-2.1c-0.9-1-1.2-2.2-1-3.3c0.2-1.3,1-2.3,2.4-2.9c1.4-0.6,3.1-0.8,5.1-0.4
		c1.8,0.3,3.2,0.8,4.2,1.5l0.1-0.4c0.2-0.9,0.2-1.5,0.1-1.9c-0.1-0.4-0.3-0.8-0.7-1.1c-0.4-0.3-1-0.6-1.6-0.7
		C147.7,215,146.7,215.3,145.9,216.1z M150.2,223.6l0.5-2.6c-0.6-0.5-1.2-0.8-2-0.9c-0.6-0.1-1.2,0-1.6,0.3
		c-0.4,0.3-0.7,0.7-0.8,1.3c-0.1,0.6,0,1.1,0.3,1.5c0.3,0.4,0.8,0.7,1.3,0.8C148.8,224.1,149.6,224,150.2,223.6z"/>
	<path d="M176.4,226.3l-11.4,1.8l-0.7-4.4l1.8-0.3l-0.8-5.2l-1.8,0.3l-0.7-4.4l1.8-0.3l-0.1-0.3c-0.2-1.5-0.1-2.7,0.4-3.7
		c0.5-1,1.2-1.8,2.2-2.4c0.9-0.6,2.6-1.1,4.9-1.4c1-0.2,2.1-0.3,3.1-0.4l0.6,3.9c-0.7,0-1.3,0.1-1.8,0.2c-0.7,0.1-1.2,0.3-1.5,0.5
		c-0.3,0.2-0.6,0.5-0.6,0.9c-0.1,0.3-0.1,0.9,0.1,1.7l2.7-0.4l0.7,4.4l-2.7,0.4l0.8,5.2l2.4-0.4L176.4,226.3z"/>
	<path d="M191.6,215.3l5.8-2.1c0,0.7,0,1.4-0.2,2c-0.2,0.7-0.5,1.3-1,2c-0.9,1.3-2.3,2.4-4,3.3c-3,1.5-5.5,2-7.6,1.6
		c-2.1-0.5-3.7-1.7-4.7-3.7c-1-1.9-1.1-3.9-0.3-6c0.8-2,2.4-3.7,4.9-5c2.4-1.2,4.7-1.6,6.8-1.2c2.1,0.5,3.8,1.9,5.2,4.3l-10,5.1
		c1.1,2,2.4,2.7,3.9,1.9C191.3,217.3,191.7,216.5,191.6,215.3z M184.4,206.4l-3.1,1.6l0-6l6.1-3.1L184.4,206.4z M185.7,214.2
		l3.7-1.9c-0.1-0.3-0.2-0.4-0.2-0.5c-0.4-0.7-0.8-1.2-1.4-1.4c-0.6-0.3-1.2-0.3-1.7,0c-0.6,0.3-0.9,0.8-1,1.4
		c-0.1,0.7,0.1,1.3,0.5,2.1C185.6,214,185.7,214.1,185.7,214.2z"/>
	<path class="st44" d="M126.2,108.7c-0.4-0.1-0.6,0.1-0.7,0.4c-0.1,0.2-0.2,0.2-0.4,0.2c-0.5-0.1-1-0.1-1.5,0
		c-0.2,0-0.5-0.1-0.7-0.2c-0.7-0.2-0.8-0.4-1-0.1c-0.3,0.2-0.3,0.2-0.5,0c-0.2-0.2-0.3-0.3-0.3-0.6c-0.1-0.6-0.6-1-0.3-1.4
		c0,0,0-0.1,0-0.1c-0.1-0.5,0.2-0.9,0-1.4c-0.1-0.3,0.4-0.8,0.1-1.1c-0.1-0.1,0-0.2,0.1-1.2c0.1-1.1,0.1-0.8-0.2-1.3
		c0.2-0.3,0.6-0.7,0.6-1.9c0-0.6,0.1-1.1,0.1-1.6c0-0.3-0.1-0.6,0.1-0.8c0,0,0-0.1,0-0.1c-0.3-0.4,0.3-0.6,0.2-0.9
		c-0.1-0.1,0.1-0.3,0-0.5c-0.1-0.4,0.1-0.7,0.4-1c0.2-0.2,0.2-0.3,0-0.7c-0.1,0.1-0.2,0.2-0.2,0.4l-0.1,0c0-0.3,0.1-0.6,0.3-0.8
		c0.3-0.4,0.3-0.7,0.1-1.1c-0.4-0.6-0.3-0.8-0.3-1c0-2,0.1-1.2-0.1-1.9c-0.1-0.2-0.1-0.3,0-0.6c0.2-1-0.8-1.7-0.5-2.2
		c0.1-0.1-0.3-0.8,0.5-0.8c0,0,0.1,0.1,0.1,0c0.5-0.3,0.9,0,1.3,0.2c0.4,0.2,0.5,0,1,0.1c0.8,0.2,1.1,0.4,1.3,0.1
		c0.1-0.1,0.2-0.1,0.3-0.1c0.6,0.4,0.3,0.5,0.6,1.1c0.1,0.2,0.2,0.3,0.2,0.6c0,0.1,0.2,0.3,0.3,0.4c-0.2,0.3-0.2,0.6-0.1,0.9
		c0,0.2-0.1,1.1-0.1,1.2c-0.1,0.6-0.4-0.2-0.8,0.4c0,0.1-0.1,0.2,0,0.3c0.2,0.3-0.2,0.4-0.2,0.6c0,0.7-0.4,1-0.3,1.3
		c0.1,0.5-0.1,1-0.3,1.4c-0.1,0.1-0.2,0.2-0.1,0.3c0.3,0.5,0.1,0.9,0,1.4c-0.1,0.2-0.1,0.3,0,0.4c0,0.2,0,0.5-0.1,0.6
		c-0.3,0.5,0.2,0.6-0.1,1c-0.1,0.2,0,0.7,0,0.8c0,0.3,0.1,0.3,0.3,0.2c1.1-0.7,1.8-2.3,2.3-2.7c0.7-0.5,0.3-0.8,1-1.9
		c0.4-0.6,0.6-1.7,0.8-2.1c0.6-1.2,0.2-2.6,0.2-3c-0.1-0.8,0-0.7-0.2-1.7c0-0.3,0-0.7-0.2-1c0,0,0-0.1,0-0.1
		c0.1-0.4-0.1-0.8-0.3-1.9c-0.2,0.1-0.3,0.2-0.4,0.3c-0.1-0.3-0.1-0.4-0.1-0.6c0-0.3-0.2-0.4-0.4-0.5c0-0.1,0-0.3,0.1-0.4
		c-0.4-0.1-0.5-0.4-0.8-0.7c-0.4-0.5-0.9-0.9-1.4-1.1c-0.2-0.1-0.8,0-1.3,0c-0.2,0-0.4,0.1-0.6,0.2c-1.5,1.3-2.6,2.3-2.6,2.6
		c-0.1,1.2-1.1,1.9-1.7,3.3c-0.7,1.8-0.8,2.8-0.9,3.5c-0.3,2.4-0.2,2.6-0.3,3c0,0.4,0,0.8,0.2,1.2c0.2,0.3-0.3,1.5,1,2.6
		c0,0,0.1,0.2,0.1,0.2c-0.1,0.1-0.1,0.1-0.2,0.1l-0.7-0.1l-0.3-0.1c-0.3-0.1-0.3-0.1-0.4,0.2c-0.1,0.3-0.2,0.3-0.4,0.2
		c-2-0.5-1,0.2-3.5-0.9c-0.1,0-0.2-0.2-0.3-0.2c-0.4-0.7-0.9-0.5-0.9-1.1c0-0.3,0-0.7,0.1-1c0-0.5,0.1-0.9,0.2-1.4
		c0-0.4,0-0.8,0.2-1.2c0-0.1,0-0.2,0-0.2c0-0.1,0.1-0.2,0.1-0.3c0.2-0.1,0.3-0.3,0.3-0.5c0-0.4,0.3-0.8,0.4-1.2
		c1.1-3.7,1.1-2.5,1.5-3.6c0.1-0.2,0.7-1.7,1.3-2.1c0.7-0.5,0.5-0.7,1.4-1.6c0.6-0.5,1.1-1,1.7-1.4c1.1-0.7,2.7-1.5,2.9-1.5
		c0.7,0.1,1.4-0.2,1.8-0.6c3.4-0.1,2.6,0,3.3-0.1c0.1,0,0.2,0,0.2,0c0.5,0.2,0.9-0.1,1.5,0.1c0.1,0.1,0.3,0.1,0.5,0.2
		c0.2,0.1,0.4,0.2,0.6,0.4c0.2,0.2,0.7,0.2,0.9,0.7c0,0.1,0.2,0.2,0.4,0.2c0.3,0,0.5,0.2,0.6,0.4c0.1,0.2,0.3,0.4,0.4,0.6
		c0.2,0.3,0.1,1,1,1.8c0.1,0.1,0.2,0.3,0.3,0.5c0.2,1.4,0.5,2.3,0.4,3c0,0.5-0.5,0.9-0.3,1.4c0.1,0.2-0.1,0.1,0.1,0.7
		c0.2,0.4,0.1-0.1,0.2,1.1c0,0,0,0.1,0,0.1c-0.2,0.3-0.3,0.7-0.5,1c-0.6,0.9,0,0.8-0.5,1.2c-0.3,0.3-0.5,0.7-0.6,1.1
		c0,0.2-0.1,0.4-0.3,0.6c-0.3,0.3-0.5,0.8-0.8,0.9c-0.5,0.3-0.4,1.2,0,1.1c0.2,0,0.5,0,0.7,0c0.1,0,1.5-0.1,2.2,0.7
		c0.3,0.4,0.5-0.1,1-0.5c0.2-0.2,0.4-0.2,0.6-0.4c0.9-1,2.6-2.2,3.9-2.4c1-0.2,1.9,0.2,2.4,0.6c0.1,0.1,0.2,0.1,0.3,0.1
		c0.5,0.1,0.9,0.4,1.2,0.8c0.4,0.4,0.1-0.2,1.6,1.5c0.3,0.3,0.2,0.6-0.2,0.8c-0.5,0.2-1,0.2-1.5,0.2c-0.3,0-0.7,0-1-0.1
		c-2.1-0.9-2.8,0.9-3.5,0.7c-1-0.4-1.9,0.7-2.1,1c-0.2,0.1-0.2,0.3,0,0.5c0.2,0.2,0.3,0.5,0.5,0.6c0.2,0.1,0.2,1.3,0.4,1.4
		c0.3,0.3,0.3,0.7,0.3,1c0,0.1,0,0.3-0.1,0.3c-0.3,0.3,0,0.3-0.3,0.8c-0.2,0.2-0.9,0.4-0.2,1c-0.1,0.1-0.2,0.1-0.2,0.2
		c0,0.7-0.9,0.7-0.7,1.5c0,0.1,0,0.3-0.1,0.3c0,0.1,0,0.3-0.2,0.2l-0.1,0c0,0.3-0.3,0.4-0.4,0.7c-0.1,0.6-0.5,1.3-0.8,2
		c-0.2,0.5,0.1,0.2-0.2,1.2c-0.2,0.4-0.2,0.7-0.4,1.1c-0.9,1.5-1.1,1.2-1.9,2.2c-0.2,0.3-0.6,0.4-0.9,0.6c0,0-1.2,0.9-1.3,1
		c-0.4,1.1-2.2,0.8-3.4,0.5c-0.2,0-0.4-0.3-0.5-0.3c-0.3,0.1-0.5-0.2-0.7-0.4c-0.6-0.4-0.9-0.6-1.2-0.9c-0.2-0.2-0.4-0.4-0.6-0.5
		c-0.1-0.1-0.2,0-0.3,0c-0.6,0.2-0.7,0.9-2.2,0.6c-0.9-0.2-2-0.7-2.4-1.6c-0.2-0.6,0.7-0.6,1-0.7c2.1-1,2.6-1.1,3.4-2.2
		c0.1-0.1,0.1-0.4,0.2-0.4c0.5-0.1,0.6-0.6,0.8-0.9C125.7,109.7,126,109,126.2,108.7z M126.6,108.2c0.3-0.2,0,0.1,1-1.1
		c1.1-1.5,3.3-4.2,3.3-4.2c0.3-0.4,0.8-0.6,1-1.2c0.1-0.1,0.2-0.1,0.2-0.2c0.2-0.2,0.4-0.5,0.6-0.7c0.2-0.2,0.3-0.3,0.4-0.5
		c0.4-0.3,0.2-0.8,0.2-1.2c0-0.2-0.1-0.3-0.3-0.4c-0.2,0-0.4-0.1-0.5,0.2c-0.1,0.3-0.3-0.2-0.4-0.2c-0.2,0-0.4,0-0.5,0.2
		c-0.2,0.2-0.2,0.6-0.5,0.8c0,0-0.1,0.1-0.1,0.1c0,0.6-1.1,0.6-1.1,1.4c0,0.3-0.5,0.4-1.2,0.9c-0.3,0.2-0.6,0.3-1,0.3
		c-0.1,0-0.2,0-0.3,0c-0.2,0.2-0.5,0.2-0.7,0.1c-0.2-0.1-0.3,0-0.5,0c-0.5,0,0.1,0.1-1.5-0.4c-0.1,0-0.3,0-0.3,0
		c0,0.1-0.1,0.2,0,0.3c0.3,0.5,0,0.9,0.3,1.5c0.1,0.2,0.3,0.4,0.4,0.6c0.2,0.4,0.5,0.8,0.5,1.4c0,0.1,0.1,0.2,0.1,0.3
		c0,0.1,0.1,0.1,0.1,0.2C126.2,107.5,125.9,107.1,126.6,108.2z M133.4,103.3c-1.3,1.3-1.1,1.7-1.5,1.9c-0.7,0.2-0.8,0.7-2.4,2.8
		c-0.2,0.3-0.5,0.5-0.7,0.8c-0.2,0.2-0.4,0.5-0.6,0.7c-0.6,0.6-1.1,1.3-1.5,2.1c-0.2,0.4-1.3,1.8-0.8,2.2c0.3,0.3,0.6,0.5,1,0.4
		c0.1,0,0.5,0.3,0.7,0c0.2-0.3,0.4-0.2,0.5-0.3c0.2-0.4,0.6-0.6,0.8-0.8c0.2-0.1,0.4-0.2,0.5-0.4c0.4-0.5,0.9-1.1,1.3-1.7
		c0.3-0.4,0.7-0.8,0.7-1.4c0-0.2,0.1-0.3,0.8-1.3c0,0,0.1-0.1,0.1-0.1c0.2-0.9,0.4-1.5,0.5-2C133.6,103.6,133.6,104,133.4,103.3z
		 M130.7,96.3l-0.1-0.1c-0.1,0.3-0.1,0.2,0.1,0.3C130.6,96.5,130.6,96.4,130.7,96.3z M132.1,91C132.1,91,132,91,132.1,91
		c-0.2,0.1-0.2,0.2-0.3,0.3c-0.2,0.9-0.2,1.8-0.7,2.3c-0.1,0.1-0.2,0.5-0.1,0.5c0.3,0.1,0.1,0.4,0.2,0.5c0.1,0.2,0,0.3-0.3,0.5
		c0.2,0.4,0.1,0.8,0,1.3c0.2-0.1,0.1,0,0.8-1.3c0.1-0.1,0.7-0.5,0.4-1c0,0,0-0.1,0.1-1.1c0-0.2,0-0.4-0.1-0.6c-0.2-0.1,0-0.6,0-1
		C132.1,91.2,132.1,91.1,132.1,91z M131.9,99.2c0.1,0.1,0.2,0.1,0.2,0.1c0,0.1,0,0.1,0,0.2c0,0-0.1,0-0.1,0
		C131.9,99.3,131.9,99.3,131.9,99.2z M132.7,111.4l-0.1,0c0,0.1-0.1,0.1,0,0.2c0,0,0.1,0.1,0.1,0
		C132.6,111.5,132.6,111.5,132.7,111.4z M133.8,105.8c0,0,0.1,0.1,0.1,0.1c0.2-0.4,0.2-0.3,0.1-0.5
		C133.8,105.5,133.8,105.4,133.8,105.8z"/>
	<path class="st44" d="M164.2,91.8c-0.1,0.4-0.1,0.8-0.2,1.2c0,0.2-0.5,1-0.6,1.4c-0.1,0.1-0.2,0.1-0.3,0.2c0,0.3-0.1,0.5-0.3,0.7
		c-0.1,0-0.1,0.2-0.1,0.2c0.1,0.3-0.1,0.4-1.1,0.8c0,0.1,0,0.2,0,0.3c-0.5,0.1-0.3,0-0.8,0.2c0.3,0.4-0.1,0.7-0.2,1
		c-0.1,0.2-0.3,0.1-0.4,0c-0.2,0.2-0.3,0.3-0.4,0.5l-0.1-0.1l0-0.2c0-0.1-0.1-0.2-0.1-0.3c-0.1,0-0.2-0.1-0.3,0
		c-0.3,0.3-0.7,0.4-0.9,0.8c-0.1,0.1-0.2,0.1-0.4,0.3c-0.2,0.2-0.5,0.2-0.6,0.5c0,0,0,0.1-0.1,0.1c-0.7,0.1-1.1,1-1.7,0.8
		c-0.1,0-0.3,0-0.3,0.1c-0.3,0.3-0.8,0.5-1.1,1c0,0-0.1,0.1-0.2,0.1c-0.8-0.1-0.9,0.5-2.8,0.9c0,0,0,0,0-0.1c0,0,0.1-0.1,0.1-0.1
		c0.6-0.2,1.1-0.5,1.6-1c0.3-0.3,0.3,0.2,1-0.5c0.3-0.3,0.5-0.5,0.9-0.6c0,0,0.1,0,0.1,0c1-0.8,0.8-0.6,1-0.9
		c-0.3,0-0.4,0.2-0.8,0.5c-1,0.7-1.3,0.9-1.7,1c-0.1,0-0.1,0.1-0.2,0.1c-0.3,0.4-0.8,0.5-1.3,0.7c-2.5,1.4-4.2,1.3-5.4,1
		c-0.4-0.1-0.7-0.3-0.8-0.6c-0.1-0.2-0.4-0.3-0.7-0.2c0,0-0.1,0-0.2,0c0.2-0.6,0.2-0.3-1.2-0.7c-0.2-0.1-0.3-0.3-1.3-1.5
		c-0.1-0.1-0.2-0.2-0.2-0.2c-0.1-0.4-0.2-0.8-0.3-1.1c-0.1-0.3-0.2-0.6-0.2-1c0-0.4-0.2-0.7-0.3-1.1c0-0.1-0.2-0.1-0.2-0.1
		c0.1-0.1,0.2-0.3,0.2-0.4c0-0.3,0.1-0.5,0.2-0.7c0.2-0.4,0-0.9,0.2-1.3c0.2-0.2-0.3-0.7,0.5-1.3c0.1-0.1,0.2-0.3,0.3-0.5
		c0.1-0.2,0.4-0.8,0.3-0.9c-0.4-0.4,0.1-0.8,0.5-1.5c0.3-0.4,0.6-0.9,0.8-1.4c0.1-0.2,0.3-0.4,0.4-0.7c0-0.2,0.7-0.4,0.8-0.5
		c0.1-0.1,0.1-0.3,0.3-0.3c0,0,0.1-0.1,0.1-0.1c0-0.4,0.3-0.6,0.5-0.9c0,0,0.1-0.1,0.2-0.1c0.5-0.1,0.8-0.7,1.2-1
		c0.3-0.2,0.6-0.4,0.8-0.6c0.3-0.2,0.6,0.1,1.1-0.6l0.1-0.1c0.4,0.1,0.7,0.2,1,0.5c0.3,0.3,2,0.9,2.8,1.4c0.4,0.2,0.8,0.5,1.4,0.4
		c-0.2,0.4,0,0.6,0.3,0.8c0.2,0.2,0.1,0.7,0.5,1.3c0.2,0.2,0.4,0.9,0.5,1.1c0.3,0.5,0.3,0.9,0.3,1.5c0,0.4-0.3,0.6-0.4,0.9
		c-0.1,0.4-0.4,0.5-0.6,0.8c-0.2,0.1-0.2,0.4-0.4,0.6c0,0,0,0.2-0.1,0.2c-0.4,0.2-0.9,1-1.4,1.3c-0.4,0.2-0.1,0.4-0.7,0.7
		c-0.3,0.2-0.6,0.3-0.8,0.5c-0.1,0.1-0.5,0.2-0.5,0.2c-0.1,0.3-0.3,0.2-0.5,0.2c-0.1,0-0.4,0.1-0.4,0.2c-0.3,0.4-0.7,0.4-1.1,0.5
		c0,0.1,0,0.1,0,0.2c0,0.1-0.1,0.2-0.1,0.2c-0.1,0-0.2,0-0.2-0.1c-0.1-0.1-0.2-0.2-0.3-0.2c-0.4,0-0.3-0.3-0.7-0.2
		c-0.7,0.2-0.9,0.4-1.5,0.2c-0.3-0.1-0.7,0-0.8,0.2c-0.1,0.1-0.2,0.2-0.3,0.3c0-0.1-0.1-0.2-0.1-0.3c-0.1-0.3-0.3-0.3-0.5-0.1
		l-0.3,0.4c-0.3-0.7-0.1-1-0.2-1.5c0-0.3,0.1-0.4,0.5-0.6c-0.1,0.2-0.1,0.4-0.2,0.6c-0.1,0.2-0.2,0.3,0,0.4c0.1,0,0.3,0,0.4,0
		c0.2-0.1,0.3-0.3,0.3-0.5c0.1-0.3,0.2-0.6,0.4-0.9c0.3,0.3-0.2,0.6,0.1,0.9c0.1,0,0.2,0,0.3-0.1c0.9-0.5,1.8-1.1,2.6-1.6
		c1-0.6,1.6-1.5,2.2-1.8c0.4-0.3,1-1.3,1.4-1.8c0.5-0.5,0.7-1.1,0.9-1.7c0-0.1,0.2-0.6-0.2-0.5c-0.7,0.1-1,0.1-1.3,0.5
		c-0.5,0.5-1.1,0.2-1.9,0.8c0.2,0.2,0.4,0.1,0.5,0c0.1-0.1,0.3-0.2,0.6-0.2c0,0,0.1,0.1,0.1,0.1c-0.2,0.4-0.3,0.3-0.6,0.4
		c-0.1,0.1-0.2,0.2-0.3,0.3c-0.2-0.1-0.4-0.2-0.6-0.3c0-0.3,0.3-0.4,0.4-0.7c-0.4-0.3-0.1-0.5,0.1-0.7c-0.2-0.1-0.3-0.1-0.3-0.1
		c-0.4,0.2-0.9,0.2-1,0.7c0,0,0,0.1,0,0.1c-0.1,0.1-0.1,0.2-0.2,0.2c-0.1,0-0.2-0.1-0.1-0.3c0.1-0.2-0.1-0.3-0.2-0.4
		c-0.3-0.2-0.5,0.2-0.8,0.9c0,0,0,0.1,0,0.1l0.3,0c0.1,0.2,0.1,0.3,0.1,0.4c0.1,0.1,0.1,0.2,0,0.3c-0.1,0.1-0.2,0.1-0.3,0
		c0,0-0.1,0,0,0c-1,0.5-1,0.5-1.1,0.6c-0.2,0.2-0.4,0.5-0.7,0.7c-0.3,0.3-0.7,0.1-0.7,0.5c0.5-0.1,0.8-0.2,1,0.2c-0.3,0-0.6,0-1,0.1
		c-0.3,0.1-0.4,0.5-0.4,0.9c0,0.2-0.1,0.2-0.2,0.3c-0.3,0.2-0.4,0.5-0.1,0.8c0.1,0.2,0,0.5-0.4,1.7c-0.1,0.2-0.2,0.3-0.4,0.3
		c-0.2,0.1-0.2,0.2-0.2,0.4c0.1,0,0.3-0.1,0.4,0c0.1,0,0.2,0.1,0.2,0.2c0.1,0.7-0.2,0.7,0,0.9c0,0-0.1,0.7-0.1,0.8l0.1,0.1l0.1-0.4
		c0,0,0.1,0.1,0.1,0.1c0.1,0.3,0.1,0.5,0.4,0.5c0,0.1,0,0.4,0,0.4c0.3,0.2,0.1,0.7,0.7,0.8l0.1-0.4c0.1,0,0.3-0.1,0.5-0.1
		c-0.2,0.6-0.4,0.8-0.1,0.9c0.3,0.1,0.3,0.8,0.8,0.4l0.2,0.7c-0.1,0-0.2,0.1-0.4,0.1c0.4,0.3,0.8,0.5,1.3,0.4c0.1-0.1,0.3,0,0.5,0
		c0.5,0.1,1-0.1,1.4-0.3c2.3-0.8,3.5-1.6,5.1-2.7c0.1,0,0.1-0.1,0.1-0.1c0.7-0.2,1.1-0.5,1.6-1.1c0.1-0.1,0.2-0.1,0.4-0.2
		c0.1,0,0.2,0,0.3-0.1c0.2-0.2,0.5-0.4,0.7-0.6c0.5-0.6,1.1-0.7,1.1-1.2c0-0.2-0.1-0.2-0.3-0.3c-0.2,0-0.2-0.2-0.3-0.3
		c0.5-0.4,0.5,0.5,0.9,0.1c1-1.3,0.8-1.1,1-1.6c0.5-0.2,0.5-0.8,0.7-1.3c0.4-0.3,0.7-0.9,0.5-1.4c-0.2,0.4-0.5,0.8-0.7,1.1
		c0,0-0.1,0-0.1,0c0-0.3,0.1-0.6,0.2-0.9c0.4-1.5,0.1-1.7,0-2c0-0.1,0-0.2,0-0.3c0.1,0,0.3,0,0.3,0c0.1,0.1,0.2,0.2,0.3,0.3
		c0.9-0.3,1-0.4,1.2-0.2c0.7,0.6,1.4,0.9,1.9,2.3C164.4,91.1,164.4,91.4,164.2,91.8z M142.8,96.9c0,0-0.1-0.1-0.1-0.1l-0.2,0.7
		c0.4,0.4,0.3,0.8,0.6,1.1c0,0.1,0.2,0.1,0.2,0.1c0.1,0,0.1-0.2,0.2-0.3C143.5,98.3,142.9,97.1,142.8,96.9z M142.8,95.2
		c0,0.1,0.1,0.1,0.1,0.2c0,0,0.2,0,0.2-0.1c0.1-0.2,0.2-0.4,0.2-0.6c0-0.6,0.3-1.4,0.2-1.6c0-0.6,0.6-0.6,0.4-1.1
		c-0.1,0-0.2,0.1-0.2,0.2c-0.2,0.3-0.2,0.6-0.6,0.8c0,0-0.1,0.1-0.1,0.1c-0.1,0.4,0,0.8-0.3,1.2c0,0-0.1,0.1-0.1,0.2
		C143,94.8,142.7,95.1,142.8,95.2z M143.2,90.1C143.2,90.1,143.3,90.1,143.2,90.1l0.3-0.2l-0.1-0.1C143.3,89.9,143.2,90,143.2,90.1z
		 M143.6,98.8c0,0.1,0,0.1,0.1,0.1C143.7,98.9,143.7,98.9,143.6,98.8z M143.8,89.3C143.8,89.3,143.8,89.4,143.8,89.3
		c0.1,0.1,0.2,0,0.2,0C143.8,89.2,143.9,89.1,143.8,89.3z M144.3,88.8c0.2-0.3,0.5-0.3,0.9-0.4c0.1,0.1,0.1,0.3,0.2,0.4
		c0.2-0.3,0.5-0.5,0.7-0.7c0.2,0.4,0.3,0.4,0.5,0.1c0.1,0,0.2-0.2,0.2-0.1c0.3,0,0.3-0.2,0.3-0.4c-0.1,0-0.2,0.1-0.3,0.1
		c-0.2,0-0.5,0.2-0.7,0.1c-0.3-0.1-0.5,0-0.7,0.2c-0.1,0.1-0.1,0.1-0.3,0.2l0.1-0.4l-0.1,0c-0.2,0.4-0.4,0.4-0.8,0.3
		c-0.1,0-0.2,0.1-0.3,0.3C144.2,88.5,144.1,88.7,144.3,88.8z M144.3,91.6l0.2-0.5c0,0,0,0-0.1,0C144.3,91.2,144.1,91.4,144.3,91.6z
		 M145.3,90.3c0,0-0.1-0.1-0.2-0.1c-0.1,0.1-0.3,0.1-0.5,0.1c0,0,0,0,0-0.1c-0.1,0-0.1,0.1-0.2,0.1c0,0,0,0.1,0,0.1
		c0,0,0.2,0.1,0.3,0c0.1-0.1,0.2-0.2,0.4-0.1c0,0,0.1,0,0.1-0.1C145.4,90.4,145.4,90.3,145.3,90.3z M144.5,97.2c0.1,0,0-0.1,0.2,0.1
		C144.6,97.3,144.6,97.3,144.5,97.2L144.5,97.2z M144.8,96.2c0.1,0,0.1-0.1,0.2-0.2c-0.1-0.1-0.1-0.1-0.2-0.1
		C144.6,96.1,144.6,96,144.8,96.2L144.8,96.2z M145.2,99c-0.3-0.2-0.6-0.4-0.3-0.7c0.1-0.1,0.2-0.2,0.3-0.3c0,0,0.1,0.1,0.1,0.2
		C145,98.5,145.2,98.8,145.2,99z M144.9,93.7C144.9,93.7,144.9,93.8,144.9,93.7c0-0.1-0.1-0.1,0-0.2L144.9,93.7L144.9,93.7z
		 M144.9,98C144.9,98,144.9,97.9,144.9,98L144.9,98C144.9,98,144.9,98,144.9,98C144.9,98,144.9,98,144.9,98z M145.2,93.2l-0.3,0.2
		C145,93.4,145.1,93.2,145.2,93.2C145.2,93.2,145.2,93.2,145.2,93.2z M144.9,93.6l0-0.1l0,0C144.9,93.5,144.9,93.5,144.9,93.6z
		 M145.2,99L145.2,99L145.2,99L145.2,99z M145.6,98.1c0,0.1,0.1,0.3,0.1,0.4C145.4,98.3,145.4,98.3,145.6,98.1L145.6,98.1z
		 M146.2,99.9l-0.4-0.2c0,0,0-0.1,0-0.1C146.2,99.6,146.1,99.5,146.2,99.9z M145.9,94.2C145.9,94.2,145.9,94.2,145.9,94.2l0-0.3
		l0.1,0.1C146,94,146,94.1,145.9,94.2z M146.4,87c0.1,0.2,0.2,0.3,0.4,0.3c0.1-0.1,0.2-0.2,0.1-0.4L146.4,87z M146.6,89.9
		L146.6,89.9l-0.1,0.1c0,0,0,0,0.1,0C146.5,90,146.5,90,146.6,89.9z M147,92.5L147,92.5c-0.1,0.1-0.1,0.1-0.2,0.1l0-0.1L147,92.5z
		 M147,89.5c0,0,0-0.1-0.1-0.1c0,0-0.1,0.1-0.1,0.1C146.9,89.5,146.9,89.6,147,89.5L147,89.5z M147.4,86.5c0.3,0.2,0.3,0.1,0.4-0.2
		c0-0.3,0.5-0.2,0.8-0.4c0.4-0.3,0.7-0.6,1.2-0.7c0.2,0,0.2-0.2,0.1-0.3c-0.2-0.3-0.7-0.3-0.9-0.1c-0.3,0.3-1.4,0.8-1.5,1
		C147.5,86.1,147.5,86.3,147.4,86.5z M147.8,91.1c0,0,0,0,0,0.1C147.7,91.1,147.7,91.1,147.8,91.1L147.8,91.1z M148.5,84.2
		c-0.2-0.1-0.4,0-0.5,0.2C148.2,84.5,148.3,84.4,148.5,84.2L148.5,84.2z M148,90.9C148,90.9,148,90.9,148,90.9
		c0.4-0.8,0.2-0.6,0.9-1.1c0.2-0.2,0.5-0.1,0.7,0c-0.3,0.1-0.5,0.2-0.7,0.3c-0.1,0.1-0.3,0.1-0.3,0.3
		C148.5,90.7,148.3,90.8,148,90.9z M148.7,86.3c-0.4,0.1-0.6,0.2-0.6,0.6L148.7,86.3z M150.5,102.6c0.1,0,0.1,0,0.2-0.1
		C150.6,102.8,150.7,102.7,150.5,102.6C150.5,102.7,150.5,102.7,150.5,102.6z M156.4,99c0.1-0.2,0.1-0.1,0-0.3
		C156.2,99,156.2,98.9,156.4,99L156.4,99z M161.4,97C161.4,97,161.4,97,161.4,97l0,0.2C161.3,97,161.2,97,161.4,97z"/>
	<path class="st44" d="M164,89.6c-0.5,0-0.5,0-0.4,0.5c0.1,0.3,0,0.6,0.1,0.9c0,0.3-0.2,0.5-0.1,0.7c0,0.1,0,0.1-0.1,0.2
		c0,0.1-0.1,0.2-0.1,0.3c-0.2,1.5-0.5,0.2,0,2c-0.3,0.1-0.3,0.2-0.2,0.5c0,0.3,0,0.9,0,1.2c0.1,0,0.2,0.1,0.4,0.2
		c-0.1,0.1-0.3,0.3-0.3,0.4c0,0.3,0,0.6-0.2,0.8c-0.1,0.1,0,0.4,0,0.6l0.1,0.8c0.4,0.1,0.5,0.2,1,0c0.2-0.1,0.2-0.3,0.2-0.5
		c0,0,0-0.1,0-0.1c-0.3-0.3-0.3-0.4,0.1-0.6c0.3-0.1,0.3-0.4,0.3-0.6c0-0.1,0.1-0.3,0.2-0.3c0.4-0.3,0.2-1,0.9-1.5
		c0.3-0.2,0.4-0.5,0.2-0.9c-0.2-0.4,0.3-0.5,0.3-0.5c0.1-0.5,0.7-0.6,0.7-1.3c0.2,0.1,0.3,0.2,0.5,0.3c0.1,0.1,0.1,0.3-0.1,0.5
		c-0.3,0.4-0.3,0.8-0.5,1.2l0,0.2c0.5,0.3-0.2,0.7,0.2,1c0.1,0,0.1,0.2,0.1,0.3c-0.1,0.1-0.2,0-0.3-0.1l-0.1,0
		c0,0.1-0.1,0.2-0.1,0.3c0.1,0.3,0,0.6-0.1,1c-0.1,0.3,0,0.7,0,1.1c0,0.5-0.2,0.9-0.3,1.2c0,0.2-0.1,0.3-0.2,0.3
		c-0.3,0-0.4,0.2-0.2,0.5c0.1,0.2,0.1,0.3,0,0.6c-0.2,0.6-0.2,1.3-0.3,1.4c-0.1,0.1-0.8,0.3-0.9,0.2c-0.3-0.2-0.5-0.2-0.8,0
		c-0.2,0.1-0.4,0.1-0.6-0.1c-0.2-0.2-0.4-0.2-0.7-0.4c-0.4-0.1-0.7-0.4-1-0.5c-0.5-0.3-0.5-0.1-1.7-1c-0.3-0.2,0-0.8-0.9-0.7
		c0,0,0-0.1,0-0.1c0.2-0.2,0.2-0.5,0-0.7c-0.1-0.2-0.1-0.2,0.2-2.1c0-0.3-0.1-0.7,0.3-1.2c0.1-0.1,0.2-0.3,0.2-0.5
		c0-0.3,0.2-0.5,0.1-0.8c0,0,0-0.1,0-0.1c0.2-0.2,0.1-0.4,0.1-0.6c0-0.5,0-0.5,0.4-0.5c0.1,0,0.1-0.1,0.2-0.1
		c-0.1-0.2-0.4-0.3-0.2-0.6l0.3,0c-0.1-0.2-0.2-0.3-0.3-0.4c0.1-0.1,0.2-0.1,0.3-0.1c0.1-0.3,0.1-0.6,0.2-0.8c0-0.2-0.3-0.5,0-0.8
		c0.1-0.1,0.2-0.2,0.3-0.2c0.2,0,0.3-0.2,0.3-0.4c0-0.1,0.1-0.1,0.1-0.3c0.2-0.3,0.1-0.3-0.1-0.6c0.1-0.1,0.3-0.2,0.4-0.3
		c0.1-0.2,0.2-0.8,0.5-1.1c0.2-0.3,0.2-0.7,0.4-1c0.2-0.4,0.5-0.8,0.7-1.3c0.1-0.4,0.5-0.5,0.6-0.9c0.1-0.3,0.2-0.4,0.5-0.4
		c0.4,0,0.7-0.6,0.2-0.8c0.5-0.7,0.6-0.7,0.5-1c0-0.2,0.1-0.4,0.2-0.5c0-0.1,0.2-0.2,0.2-0.1c0.3,0.1,0.3-0.1,0.4-0.2l-0.2-0.5
		c0.2-0.1,0.3-0.1,0.4-0.1c-0.1-0.4,0.2-0.5,0.4-0.7c0.1-0.1,0.2-0.1,0.2-0.2c0-0.4,0.4-0.6,0.6-0.9c0.5-0.8,0.1-0.3,0.8-1.1
		c0,0.1,0,0.2,0,0.3c0.3-0.1,0.1-0.4,0.3-0.6c0.3,0,0.5,0,0.5-0.3c0-0.1,0-0.1,0.1-0.3c0.1-0.3,0.1-0.4,0.4-0.3
		c0.2,0,0.4-0.1,0.5-0.3c0.1-0.2,0.3-0.4,0.4-0.6c0.6-0.8,1-0.5,1.3-1c0.3-0.5,0.8-0.8,1.2-1.1c0.2-0.1,0.3-0.3,0.5-0.5
		c0.2-0.1,0.7-0.3,0.9-0.3c0,0,0.1,0,0.1,0c0.1,0.2,0.3,0.3,0.6,0.3c0.2,0,0.4,0.7,0.6,0.7c0.6,0.1,0.8,0.5,1.3,0.8
		c0.1,0.1,0.3,0.1,0.4,0.2c0.6,0.6,0.5,0.8,0.7,1.2c0.1,0.2,0,0.3-0.1,0.3c-0.2,0.1-0.7,0.4-0.9,0.4c-0.8-0.2-1.4,0.2-2,0.6
		c-2.4,1.4-3.3,2.9-5,4.2c-0.2-0.4,0.2-0.5,0.2-0.8c-0.6,0.5-1,1.2-1.6,1.7c0-0.1,0-0.1,0-0.2c0.1-0.2,0.3-0.4,0.4-0.6
		c0.5-0.8,0-0.3,0.9-1.3c0.1-0.1,0.2-0.2,0.3-0.3c0,0,0.1-0.1,0.1-0.1c0-0.5,0.5-0.6,0.7-1c0.2-0.2,0.4-0.4,0.6-0.7
		c0.2-0.2,0.5-0.4,0.7-0.7c0-0.1,0.3-0.2,0.5-0.3c-0.4-0.1-0.8,0-1,0.3c-0.6,0.6-0.6,0.2-1.4,1.3c-0.6,0.4-0.4,0.3-0.8,0.4
		c0.1,0.1,0.1,0.2,0.2,0.2c-1.2,1.3-1.3,1.4-1,1.7c-0.2,0.1-0.4,0.1-0.7,0.2c0.1,0.1,0.2,0.2,0.2,0.2c-0.1,0.6-0.9,0.3-0.9,0.9
		c0,0-0.1,0.1-0.2,0.2l-0.4,0.1c0.2,0.3,0.2,0.3-0.1,0.7c-0.2,0.3-0.4,0.6-0.6,0.9c0,0.1,0,0.2,0,0.3c-0.4,0.1-0.6,0.2-0.6,0.5
		c-0.5,0.1-0.3,0.5-0.5,0.8c-0.1,0.1,0.3,0.8-0.5,1c0,0,0,0.1,0,0.2c-0.2,0.1-0.4,0-0.4,0.4c0,0.1,0,0.2,0,0.2
		c0.1,0.3,0,0.4-0.3,0.6c-0.2,0.1-0.4,0.4-0.5,0.6c0,0,0,0,0,0.1c-0.1,0.2-0.2,0.4,0,0.5C164,89.4,164,89.5,164,89.6z M160.7,94.9
		l0.1,0c0.1-0.1,0.1-0.3,0.2-0.5l-0.1,0L160.7,94.9z M161.3,93.5c-0.2,0.1-0.2,0.1-0.1,0.3C161.2,93.8,161.2,93.7,161.3,93.5
		L161.3,93.5z M161.4,89.4C161.3,89.4,161.4,89.4,161.4,89.4L161.4,89.4L161.4,89.4z M161.5,90.9C161.5,90.9,161.6,90.9,161.5,90.9
		c0.3,0,0.3,0,0.3-0.2C161.7,90.8,161.6,90.8,161.5,90.9z M163.1,91.1c0,0-0.1,0-0.1-0.1c-0.1,0.1-0.1,0.2-0.2,0.2
		c0,0,0.1,0,0.1,0.1C163,91.3,163,91.2,163.1,91.1z M163.7,94.4c-0.1,0.3-0.1,0.5-0.1,0.8c-0.2-0.1-0.3-0.2-0.4-0.3
		C163.4,94.7,163.5,94.5,163.7,94.4C163.7,94.4,163.7,94.4,163.7,94.4z M163.5,95.8L163.5,95.8C163.5,95.8,163.5,95.9,163.5,95.8
		L163.5,95.8C163.4,95.8,163.4,95.8,163.5,95.8z M163.6,93.7c0,0.1,0,0.2,0.1,0.4c-0.3-0.1-0.3,0-0.2-0.4
		C163.6,93.7,163.6,93.7,163.6,93.7z M163.9,85.3c0.4-0.1,0.3-0.4,0.4-0.7C163.9,84.7,164,85.1,163.9,85.3L163.9,85.3z M164.1,92.4
		l0.3,0l0,0.2c-0.1,0-0.2,0-0.3-0.1L164.1,92.4z M164.5,84.3L164.5,84.3L164.5,84.3C164.5,84.3,164.5,84.3,164.5,84.3z M164.7,83
		l0.1,0.4c0,0,0,0-0.1,0c-0.1,0-0.2-0.1-0.2-0.2C164.6,83.2,164.6,83.1,164.7,83C164.7,83,164.7,83,164.7,83z M165.6,82.8
		c-0.1-0.1-0.1-0.1-0.1,0C165.5,82.9,165.5,82.9,165.6,82.8L165.6,82.8z M166.3,93.3C166.3,93.3,166.3,93.3,166.3,93.3
		C166.3,93.3,166.3,93.3,166.3,93.3L166.3,93.3z M166.9,82.9c-0.1,0-0.1-0.1-0.2-0.1c0,0-0.1,0.1-0.1,0.1
		C166.8,83,166.7,83,166.9,82.9z M167,92.4c0-0.1-0.1-0.2-0.2-0.3l0.3,0l0,0.3L167,92.4z M167,81.1c-0.1,0.1-0.1,0,0,0.1
		C167.1,81.2,167.1,81.2,167,81.1L167,81.1z M167.2,81.9c0.2,0.3,0.5-0.2,0.9-0.6c0.2-0.1,0.2-0.3,0.3-0.5c0,0,0,0-0.1,0
		C167.9,81.1,167.5,81.5,167.2,81.9z M167.6,92.6c-0.2-0.2-0.1-0.3,0.1-0.4c0,0,0.1,0,0.1,0L167.6,92.6z M167.8,80.2
		C167.8,80.2,167.8,80.3,167.8,80.2l0.2,0c0,0,0,0,0-0.1L167.8,80.2z M169.2,78.3c0,0,0,0,0,0.1C169.3,78.3,169.3,78.4,169.2,78.3
		L169.2,78.3z M169.7,77.9l-0.1-0.1c0,0-0.1,0-0.1,0.1c0,0,0.1,0.1,0.1,0.1C169.6,78,169.7,78,169.7,77.9L169.7,77.9z M171.2,80.2
		C171.1,80.2,171.1,80.1,171.2,80.2c-0.1,0-0.1,0-0.1,0c0,0,0,0.1,0,0.1C171.1,80.2,171.1,80.2,171.2,80.2L171.2,80.2z M173.7,77
		l0.5-0.3C173.9,76.5,173.8,76.6,173.7,77z"/>
	<path class="st44" d="M173.8,90.9c-0.5-0.1-0.5-0.1-0.4,0.5c0.1,0.3,0,0.6-0.1,0.9c-0.1,0.3-0.2,0.4-0.2,0.7c0,0.1-0.1,0.1-0.1,0.2
		c-0.1,0.1-0.1,0.2-0.1,0.3c-0.4,1.4-0.5,0.1-0.3,2c-0.3,0.1-0.3,0.2-0.3,0.5c0,0.3-0.1,0.9-0.2,1.1c0.1,0.1,0.2,0.2,0.3,0.2
		c-0.1,0.1-0.4,0.2-0.3,0.3c0,0.3-0.1,0.6-0.3,0.8c-0.1,0.1-0.1,0.4-0.1,0.6l0,0.8c0.4,0.1,0.4,0.2,1,0.1c0.2,0,0.2-0.3,0.3-0.4
		c0,0,0.1-0.1,0.1-0.1c-0.3-0.3-0.3-0.4,0.1-0.5c0.3-0.1,0.4-0.3,0.4-0.6c0-0.1,0.1-0.2,0.2-0.3c0.4-0.3,0.4-1,1.1-1.3
		c0.3-0.2,0.5-0.5,0.4-0.9c-0.1-0.4,0.3-0.4,0.3-0.5c0.2-0.5,0.8-0.5,0.8-1.2c0.2,0.1,0.3,0.2,0.4,0.4c0.1,0.1,0,0.3-0.2,0.5
		c-0.4,0.3-0.4,0.8-0.6,1.1l0,0.2c0.4,0.4-0.3,0.7,0,1c0.1,0.1,0.1,0.2,0.1,0.3c-0.1,0.1-0.2,0-0.2-0.1l-0.1,0
		c-0.1,0.1-0.1,0.2-0.1,0.2c0,0.3-0.1,0.6-0.2,0.9c-0.1,0.3-0.1,0.7-0.2,1.1c-0.1,0.5-0.3,0.9-0.4,1.1c0,0.2-0.1,0.2-0.3,0.2
		c-0.3,0-0.4,0.1-0.3,0.4c0.1,0.2,0.1,0.4,0,0.6c-0.3,0.6-0.4,1.2-0.5,1.4c-0.1,0.1-0.9,0.2-1,0.1c-0.3-0.2-0.5-0.3-0.8-0.1
		c-0.2,0.1-0.4,0.1-0.5-0.1c-0.1-0.2-0.4-0.3-0.6-0.5c-0.3-0.2-0.6-0.5-1-0.7c-0.5-0.4-0.5-0.2-1.5-1.2c-0.2-0.2,0.1-0.8-0.7-0.8
		c0,0,0-0.1,0-0.1c0.2-0.2,0.2-0.4,0.1-0.7c-0.1-0.2-0.1-0.2,0.5-2.1c0.1-0.3-0.1-0.7,0.4-1.1c0.1-0.1,0.2-0.3,0.3-0.4
		c0.1-0.3,0.3-0.5,0.2-0.8c0,0,0-0.1,0.1-0.1c0.2-0.1,0.2-0.3,0.2-0.5c0-0.5,0.1-0.5,0.5-0.4c0.1,0,0.1-0.1,0.2-0.1
		c-0.1-0.2-0.3-0.4-0.1-0.6l0.3,0.1c-0.1-0.2-0.2-0.3-0.3-0.4c0.1-0.1,0.2,0,0.3-0.1c0.1-0.3,0.2-0.5,0.3-0.8
		c0.1-0.2-0.3-0.5,0.2-0.8c0.1-0.1,0.2-0.2,0.3-0.2c0.2,0,0.3-0.1,0.4-0.3c0-0.1,0.1-0.1,0.2-0.2c0.2-0.2,0.2-0.3,0-0.6
		c0.1-0.1,0.3-0.2,0.4-0.3c0.1-0.2,0.3-0.7,0.7-1c0.3-0.3,0.3-0.7,0.5-1c0.3-0.4,0.6-0.7,0.9-1.2c0.2-0.4,0.5-0.4,0.8-0.8
		c0.1-0.3,0.2-0.3,0.6-0.3c0.4,0,0.8-0.5,0.4-0.8c0.6-0.6,0.7-0.7,0.7-0.9c0-0.2,0.1-0.4,0.3-0.5c0.1-0.1,0.2-0.2,0.2-0.1
		c0.2,0.1,0.3-0.1,0.4-0.2l-0.1-0.5c0.2,0,0.3-0.1,0.4-0.1c-0.1-0.4,0.3-0.5,0.5-0.7c0.1-0.1,0.2-0.1,0.2-0.2c0-0.4,0.4-0.5,0.7-0.8
		c0.6-0.7,0.2-0.3,1-0.9c0,0.1,0,0.2,0,0.3c0.3-0.1,0.1-0.4,0.3-0.5c0.3,0.1,0.5,0,0.6-0.3c0-0.1,0.1-0.1,0.1-0.2
		c0.1-0.3,0.2-0.3,0.5-0.2c0.2,0.1,0.4,0,0.6-0.2c0.2-0.2,0.3-0.4,0.5-0.5c0.8-0.7,1.1-0.4,1.4-0.8c0.4-0.5,0.9-0.7,1.3-0.9
		c0.2-0.1,0.4-0.3,0.6-0.4c0.2-0.1,0.7-0.2,1-0.2c0,0,0.1,0,0.1,0.1c0.1,0.2,0.3,0.4,0.5,0.4c0.2,0,0.3,0.7,0.5,0.8
		c0.5,0.1,0.7,0.6,1.1,1c0.1,0.1,0.3,0.2,0.4,0.3c0.5,0.6,0.4,0.9,0.6,1.3c0,0.2,0,0.3-0.2,0.3c-0.2,0.1-0.7,0.3-0.9,0.3
		c-0.7-0.3-1.4,0-2.1,0.3c-2.6,1-3.7,2.4-5.6,3.4c-0.1-0.4,0.2-0.4,0.3-0.7c-0.7,0.4-1.2,1.1-1.8,1.5c0-0.1,0-0.1,0.1-0.2
		c0.2-0.2,0.3-0.4,0.5-0.5c0.6-0.7,0.1-0.3,1-1.1c0.1-0.1,0.2-0.1,0.3-0.2c0,0,0.1-0.1,0.1-0.1c0.1-0.5,0.6-0.6,0.9-0.9
		c0.2-0.2,0.5-0.4,0.7-0.6c0.2-0.2,0.6-0.3,0.8-0.6c0.1-0.1,0.3-0.2,0.5-0.3c-0.4-0.2-0.8-0.1-1.1,0.1c-0.6,0.5-0.6,0.1-1.6,1.1
		c-0.6,0.3-0.4,0.2-0.8,0.2c0.1,0.1,0.1,0.2,0.1,0.3c-1.3,1.2-1.5,1.2-1.3,1.5c-0.2,0-0.4,0.1-0.7,0.1c0.1,0.1,0.2,0.2,0.2,0.2
		c-0.2,0.6-0.9,0.2-1,0.8c0,0-0.1,0.1-0.2,0.2l-0.4,0c0.2,0.4,0.2,0.4-0.2,0.7c-0.2,0.3-0.5,0.5-0.7,0.8c-0.1,0.1,0,0.2-0.1,0.3
		c-0.4,0.1-0.6,0.1-0.6,0.4c-0.5,0-0.3,0.5-0.6,0.7c-0.1,0.1,0.2,0.8-0.6,0.9c0,0,0,0.1,0,0.2c-0.2,0.1-0.4,0-0.4,0.3
		c0,0.1,0,0.2,0,0.2c0.1,0.3-0.1,0.4-0.3,0.6c-0.2,0.1-0.4,0.3-0.6,0.5c0,0,0,0-0.1,0.1c-0.1,0.2-0.2,0.3-0.1,0.5
		C173.8,90.7,173.8,90.8,173.8,90.9z M169.8,95.7l0.1,0c0.1-0.1,0.2-0.3,0.3-0.5l-0.1,0L169.8,95.7z M170.5,94.5
		c-0.2,0.1-0.2,0.1-0.2,0.3C170.4,94.7,170.5,94.6,170.5,94.5z M171.2,91.9C171.2,91.9,171.2,91.9,171.2,91.9
		c0.3,0.1,0.3,0.1,0.3-0.2C171.3,91.8,171.3,91.8,171.2,91.9z M171.2,90.4C171.2,90.4,171.2,90.4,171.2,90.4L171.2,90.4L171.2,90.4z
		 M172.9,95.6c-0.1,0.2-0.2,0.5-0.2,0.8c-0.2-0.1-0.3-0.2-0.3-0.4C172.5,95.9,172.6,95.7,172.9,95.6
		C172.8,95.6,172.9,95.6,172.9,95.6z M172.4,97L172.4,97C172.5,97,172.4,97.1,172.4,97L172.4,97C172.4,97,172.4,97,172.4,97z
		 M172.7,92.3C172.7,92.3,172.7,92.2,172.7,92.3c-0.2,0-0.2,0.1-0.3,0.1c0,0,0.1,0.1,0.1,0.1C172.5,92.4,172.6,92.4,172.7,92.3z
		 M172.9,95c0,0.1,0,0.2,0,0.4c-0.3-0.1-0.3,0-0.1-0.4C172.8,94.9,172.8,94.9,172.9,95z M173.5,93.8l0.3,0.1l0,0.2
		c-0.1-0.1-0.2-0.1-0.2-0.1L173.5,93.8z M174.3,86.7c0.4,0,0.4-0.4,0.5-0.6C174.4,86.1,174.5,86.5,174.3,86.7L174.3,86.7z
		 M175.1,85.7L175.1,85.7L175.1,85.7C175.1,85.7,175,85.7,175.1,85.7z M175.4,84.5l0,0.4c0,0,0,0-0.1,0c-0.1-0.1-0.2-0.1-0.2-0.2
		C175.2,84.7,175.3,84.6,175.4,84.5C175.4,84.5,175.4,84.5,175.4,84.5z M175.6,94.9C175.6,94.9,175.6,94.9,175.6,94.9
		C175.6,94.9,175.6,94.9,175.6,94.9L175.6,94.9z M176.3,84.4c-0.1-0.1-0.1-0.1-0.1,0C176.2,84.5,176.2,84.5,176.3,84.4L176.3,84.4z
		 M176.4,94.1c0-0.1-0.1-0.2-0.2-0.3l0.3,0.1l-0.1,0.3L176.4,94.1z M177,94.4c-0.2-0.3,0-0.3,0.1-0.4c0,0,0.1,0.1,0.1,0.1L177,94.4z
		 M177.6,84.7c-0.1-0.1-0.1-0.1-0.2-0.1c0,0-0.1,0.1-0.1,0.1C177.5,84.8,177.4,84.8,177.6,84.7z M178,82.9c-0.1,0.1-0.1,0-0.1,0.1
		C178,83,178,83,178,82.9L178,82.9z M178,83.7c0.2,0.3,0.5-0.1,1-0.5c0.2-0.1,0.3-0.3,0.3-0.5c0,0,0,0-0.1-0.1
		C178.8,83.1,178.4,83.4,178,83.7z M178.9,82.2C178.9,82.2,178.9,82.2,178.9,82.2l0.2,0c0,0,0,0,0-0.1L178.9,82.2z M180.5,80.5
		c0,0,0,0-0.1,0.1C180.6,80.5,180.6,80.5,180.5,80.5L180.5,80.5z M181.1,80.1L181.1,80.1c-0.1-0.1-0.2-0.1-0.2,0
		c0,0,0.1,0.1,0.1,0.1C181,80.2,181,80.2,181.1,80.1L181.1,80.1z M182.2,82.6C182.2,82.6,182.1,82.5,182.2,82.6
		c-0.1-0.1-0.1-0.1-0.1,0c0,0,0,0.1,0,0.1C182.1,82.6,182.2,82.6,182.2,82.6L182.2,82.6z M185.2,79.8l0.5-0.3
		C185.4,79.3,185.3,79.4,185.2,79.8z"/>
	<path class="st44" d="M189.5,99c0,0.3-0.3,0.5-0.5,0.6c-0.1,0-0.2,0-0.3-0.1c-0.3-0.1-0.3,0-0.5,0.2c-0.1,0.2-0.3,0.4-0.5,0.6
		c-0.3,0.5-0.7,1.1-1,1.6c-0.3,0.5-0.6,0.9-0.9,1.3c-0.2,0.2-0.9,1.6-0.9,1.7c0,0.1-0.1,0.3-0.1,0.4c0.2,0.3,0.7,0.2,1.1,0.2
		c0.3,0,0.8,0,0.9,0c0.9-0.3,1.7-0.5,2.6-0.6c0.3,0,0.6-0.2,0.9-0.3c0,0,0.1-0.1,0.1-0.1c0.6,0.1,1.1-0.3,1.7-0.3
		c1.4-0.1,2.3-0.8,3.7-0.4c0.6,0.1,0.9-0.2,1.1,0.3c0.1,0.4,0.4,0.7,0.8,0.8c0.5,0.1,0.5,0.5,1.6,2.8c0.1,0.2,0.2,0.5,0.2,0.7
		c0,0.2,0.2,0.3,0,0.7c-0.1,0.1-0.1,0.3-0.1,0.4c-1.3-0.2-1.1-0.2-1.4-0.4c-0.1-0.1-0.7-0.6-0.7-0.7c-0.3-0.6-0.9-0.6-1.3-1
		c-0.5-0.6-2-0.3-2.9-0.6c-0.2-0.1-0.5,0.1-0.5-0.3c0-0.2-0.2-0.2-0.3-0.2c-0.9-0.1-1.7,0.2-3,0.7c-0.1,0-0.1,0.1-0.2,0
		c-0.4-0.1-0.5,0.2-1.5,0.4c-0.9,0.2-1.7,0.4-2.6,0.2c-0.9-0.3-1.6-0.7-2.2-1.3c-0.3-0.3-0.9-0.5-1.2-0.9c-0.1-0.1-0.5-0.6-0.6-0.7
		c-0.1-0.5-0.5-1-0.4-1.6c0.3-0.2,0.3-0.2,0.3-0.6c0-0.2,0.1-0.3,0.2-0.3c0.4-0.3,0.4-0.8,0.7-1.1c0,0,0,0-0.1-0.1
		c-0.5,0.1,0.1-0.1-1.3,0.6c-0.1,0.1-0.3,0.1-0.5,0.2c0,0-0.1,0-0.1,0.1c-0.2,0.3-0.5,0.3-0.7,0.4c-1.5,0.8-1.6,1.2-2.2,1.2l-0.2,0
		c-0.6,0.4-1-0.2-1.4-0.3c-0.9-0.1-0.9-0.7-1.8-1.2c-0.5-0.3-0.6-1.4-0.4-2.7c0.1-0.4,0.4-0.8,0.5-1.2c0.1-0.3,0.3-0.5,0.5-0.8
		c0.1-0.1,0.1-0.3,0.3-0.4c0.4-0.2,0.7-0.6,1-0.8c0.3-0.3,0.7-0.6,1-1c0.4-0.4,0.3-0.8,0.7-1.1c0.6-0.4,0.7-0.4,0.8-0.3
		c0.2,0.1,0.4,0,0.6-0.1c1.7-1,1.2-0.6,1.5-0.9c-0.1-0.1-0.1-0.2-0.2-0.3c0.5-0.3,0.1-0.3,1.5-0.4c0.6,0,0.1-0.4,1-0.4
		c0.4,0,1.2-0.3,1.7,0c0.3,0.2,0.4-0.2,0.7,0.2c0.4,0.5,0.8,0.8,1.2,1.3l0.9,1.2c0.4,0.4,0.9,0.5,0.9,1.1c0,0.1,0,0.2,0.1,0.4
		c1.3-0.5,1.6-0.8,1.9-0.4c0,0,0.1,0.1,0.1,0.1c0.6-0.1,1,0.4,2.3,2.2c0.2,0.2,0.1,0.5-0.2,0.6l-1.5,0.3c-0.2,0.1-0.4,0-0.5,0.2
		C189.9,99,189.7,99,189.5,99z M176.8,98.4c0.5,0.8-0.5,0.3-0.4,1c0.1,0.5-0.5,0.7-0.5,1.3c0,0.1,0,0.2-0.1,0.2
		c-0.3,0.2-0.3,0.5-0.4,0.8c-0.1,0.1-0.1,0.3-0.1,0.4c0,0.3,0.3,0.3,0.5,0.1c0.4-0.2,0.8-0.5,1.2-0.7c0.6-0.4,1.3-0.6,1.8-1
		c0.3-0.2,0.7-0.4,1-0.5c0.5-0.2,0.9-0.7,1.5-0.9c0,0,0.1,0,0.1-0.1c1.2-0.8,1.7-0.8,2.4-1.4c0.2-0.1,0.8-0.3,1.1-0.5
		c0.3-0.3,0.6-0.2,1.2-0.7l-0.2-0.2c-0.4-0.3-0.9-0.4-1.1-0.8c-0.1-0.1-0.6-0.1-0.6-0.1c-0.4,0-0.7,0-1,0.2
		c-0.1,0.1-0.3,0.1-0.5,0.2c0,0.4-0.4,0.1-1.1,0.4c-0.3,0.1-0.6,0.3-0.9,0.3c-0.4,0.1-0.7,0.1-0.9,0.4c0,0-0.1,0-0.2,0.1
		c-1.8,1-1,0.8-1.6,1C177.6,98,178.1,97.7,176.8,98.4z M177.9,97.7c0.1,0,0.2-0.1,0.2-0.2c0,0,0-0.2,0-0.1
		C177.8,97.4,177.9,97.5,177.9,97.7z M182,101.7C182,101.6,182,101.6,182,101.7c-0.1-0.1-0.1,0-0.1,0
		C181.9,101.7,181.9,101.7,182,101.7C182,101.7,182,101.7,182,101.7z"/>
	<path d="M126.2,108.7c-0.4-0.1-0.6,0.1-0.7,0.4c-0.1,0.2-0.2,0.2-0.4,0.2c-0.5-0.1-1-0.1-1.5,0c-0.2,0-0.5-0.1-0.7-0.2
		c-0.7-0.2-0.8-0.4-1-0.1c-0.3,0.2-0.3,0.2-0.5,0c-0.2-0.2-0.3-0.3-0.3-0.6c-0.1-0.6-0.6-1-0.3-1.4c0,0,0-0.1,0-0.1
		c-0.1-0.5,0.2-0.9,0-1.4c-0.1-0.3,0.4-0.8,0.1-1.1c-0.1-0.1,0-0.2,0.1-1.2c0.1-1.1,0.1-0.8-0.2-1.3c0.2-0.3,0.6-0.7,0.6-1.9
		c0-0.6,0.1-1.1,0.1-1.6c0-0.3-0.1-0.6,0.1-0.8c0,0,0-0.1,0-0.1c-0.3-0.4,0.3-0.6,0.2-0.9c-0.1-0.1,0.1-0.3,0-0.5
		c-0.1-0.4,0.1-0.7,0.4-1c0.2-0.2,0.2-0.3,0-0.7c-0.1,0.1-0.2,0.2-0.2,0.4l-0.1,0c0-0.3,0.1-0.6,0.3-0.8c0.3-0.4,0.3-0.7,0.1-1.1
		c-0.4-0.6-0.3-0.8-0.3-1c0-2,0.1-1.2-0.1-1.9c-0.1-0.2-0.1-0.3,0-0.6c0.2-1-0.8-1.7-0.5-2.2c0.1-0.1-0.3-0.8,0.5-0.8
		c0,0,0.1,0.1,0.1,0c0.5-0.3,0.9,0,1.3,0.2c0.4,0.2,0.5,0,1,0.1c0.8,0.2,1.1,0.4,1.3,0.1c0.1-0.1,0.2-0.1,0.3-0.1
		c0.6,0.4,0.3,0.5,0.6,1.1c0.1,0.2,0.2,0.3,0.2,0.6c0,0.1,0.2,0.3,0.3,0.4c-0.2,0.3-0.2,0.6-0.1,0.9c0,0.2-0.1,1.1-0.1,1.2
		c-0.1,0.6-0.4-0.2-0.8,0.4c0,0.1-0.1,0.2,0,0.3c0.2,0.3-0.2,0.4-0.2,0.6c0,0.7-0.4,1-0.3,1.3c0.1,0.5-0.1,1-0.3,1.4
		c-0.1,0.1-0.2,0.2-0.1,0.3c0.3,0.5,0.1,0.9,0,1.4c-0.1,0.2-0.1,0.3,0,0.4c0,0.2,0,0.5-0.1,0.6c-0.3,0.5,0.2,0.6-0.1,1
		c-0.1,0.2,0,0.7,0,0.8c0,0.3,0.1,0.3,0.3,0.2c1.1-0.7,1.8-2.3,2.3-2.7c0.7-0.5,0.3-0.8,1-1.9c0.4-0.6,0.6-1.7,0.8-2.1
		c0.6-1.2,0.2-2.6,0.2-3c-0.1-0.8,0-0.7-0.2-1.7c0-0.3,0-0.7-0.2-1c0,0,0-0.1,0-0.1c0.1-0.4-0.1-0.8-0.3-1.9
		c-0.2,0.1-0.3,0.2-0.4,0.3c-0.1-0.3-0.1-0.4-0.1-0.6c0-0.3-0.2-0.4-0.4-0.5c0-0.1,0-0.3,0.1-0.4c-0.4-0.1-0.5-0.4-0.8-0.7
		c-0.4-0.5-0.9-0.9-1.4-1.1c-0.2-0.1-0.8,0-1.3,0c-0.2,0-0.4,0.1-0.6,0.2c-1.5,1.3-2.6,2.3-2.6,2.6c-0.1,1.2-1.1,1.9-1.7,3.3
		c-0.7,1.8-0.8,2.8-0.9,3.5c-0.3,2.4-0.2,2.6-0.3,3c0,0.4,0,0.8,0.2,1.2c0.2,0.3-0.3,1.5,1,2.6c0,0,0.1,0.2,0.1,0.2
		c-0.1,0.1-0.1,0.1-0.2,0.1l-0.7-0.1l-0.3-0.1c-0.3-0.1-0.3-0.1-0.4,0.2c-0.1,0.3-0.2,0.3-0.4,0.2c-2-0.5-1,0.2-3.5-0.9
		c-0.1,0-0.2-0.2-0.3-0.2c-0.4-0.7-0.9-0.5-0.9-1.1c0-0.3,0-0.7,0.1-1c0-0.5,0.1-0.9,0.2-1.4c0-0.4,0-0.8,0.2-1.2c0-0.1,0-0.2,0-0.2
		c0-0.1,0.1-0.2,0.1-0.3c0.2-0.1,0.3-0.3,0.3-0.5c0-0.4,0.3-0.8,0.4-1.2c1.1-3.7,1.1-2.5,1.5-3.6c0.1-0.2,0.7-1.7,1.3-2.1
		c0.7-0.5,0.5-0.7,1.4-1.6c0.6-0.5,1.1-1,1.7-1.4c1.1-0.7,2.7-1.5,2.9-1.5c0.7,0.1,1.4-0.2,1.8-0.6c3.4-0.1,2.6,0,3.3-0.1
		c0.1,0,0.2,0,0.2,0c0.5,0.2,0.9-0.1,1.5,0.1c0.1,0.1,0.3,0.1,0.5,0.2c0.2,0.1,0.4,0.2,0.6,0.4c0.2,0.2,0.7,0.2,0.9,0.7
		c0,0.1,0.2,0.2,0.4,0.2c0.3,0,0.5,0.2,0.6,0.4c0.1,0.2,0.3,0.4,0.4,0.6c0.2,0.3,0.1,1,1,1.8c0.1,0.1,0.2,0.3,0.3,0.5
		c0.2,1.4,0.5,2.3,0.4,3c0,0.5-0.5,0.9-0.3,1.4c0.1,0.2-0.1,0.1,0.1,0.7c0.2,0.4,0.1-0.1,0.2,1.1c0,0,0,0.1,0,0.1
		c-0.2,0.3-0.3,0.7-0.5,1c-0.6,0.9,0,0.8-0.5,1.2c-0.3,0.3-0.5,0.7-0.6,1.1c0,0.2-0.1,0.4-0.3,0.6c-0.3,0.3-0.5,0.8-0.8,0.9
		c-0.5,0.3-0.4,1.2,0,1.1c0.2,0,0.5,0,0.7,0c0.1,0,1.5-0.1,2.2,0.7c0.3,0.4,0.5-0.1,1-0.5c0.2-0.2,0.4-0.2,0.6-0.4
		c0.9-1,2.6-2.2,3.9-2.4c1-0.2,1.9,0.2,2.4,0.6c0.1,0.1,0.2,0.1,0.3,0.1c0.5,0.1,0.9,0.4,1.2,0.8c0.4,0.4,0.1-0.2,1.6,1.5
		c0.3,0.3,0.2,0.6-0.2,0.8c-0.5,0.2-1,0.2-1.5,0.2c-0.3,0-0.7,0-1-0.1c-2.1-0.9-2.8,0.9-3.5,0.7c-1-0.4-1.9,0.7-2.1,1
		c-0.2,0.1-0.2,0.3,0,0.5c0.2,0.2,0.3,0.5,0.5,0.6c0.2,0.1,0.2,1.3,0.4,1.4c0.3,0.3,0.3,0.7,0.3,1c0,0.1,0,0.3-0.1,0.3
		c-0.3,0.3,0,0.3-0.3,0.8c-0.2,0.2-0.9,0.4-0.2,1c-0.1,0.1-0.2,0.1-0.2,0.2c0,0.7-0.9,0.7-0.7,1.5c0,0.1,0,0.3-0.1,0.3
		c0,0.1,0,0.3-0.2,0.2l-0.1,0c0,0.3-0.3,0.4-0.4,0.7c-0.1,0.6-0.5,1.3-0.8,2c-0.2,0.5,0.1,0.2-0.2,1.2c-0.2,0.4-0.2,0.7-0.4,1.1
		c-0.9,1.5-1.1,1.2-1.9,2.2c-0.2,0.3-0.6,0.4-0.9,0.6c0,0-1.2,0.9-1.3,1c-0.4,1.1-2.2,0.8-3.4,0.5c-0.2,0-0.4-0.3-0.5-0.3
		c-0.3,0.1-0.5-0.2-0.7-0.4c-0.6-0.4-0.9-0.6-1.2-0.9c-0.2-0.2-0.4-0.4-0.6-0.5c-0.1-0.1-0.2,0-0.3,0c-0.6,0.2-0.7,0.9-2.2,0.6
		c-0.9-0.2-2-0.7-2.4-1.6c-0.2-0.6,0.7-0.6,1-0.7c2.1-1,2.6-1.1,3.4-2.2c0.1-0.1,0.1-0.4,0.2-0.4c0.5-0.1,0.6-0.6,0.8-0.9
		C125.7,109.7,126,109,126.2,108.7z M126.6,108.2c0.3-0.2,0,0.1,1-1.1c1.1-1.5,3.3-4.2,3.3-4.2c0.3-0.4,0.8-0.6,1-1.2
		c0.1-0.1,0.2-0.1,0.2-0.2c0.2-0.2,0.4-0.5,0.6-0.7c0.2-0.2,0.3-0.3,0.4-0.5c0.4-0.3,0.2-0.8,0.2-1.2c0-0.2-0.1-0.3-0.3-0.4
		c-0.2,0-0.4-0.1-0.5,0.2c-0.1,0.3-0.3-0.2-0.4-0.2c-0.2,0-0.4,0-0.5,0.2c-0.2,0.2-0.2,0.6-0.5,0.8c0,0-0.1,0.1-0.1,0.1
		c0,0.6-1.1,0.6-1.1,1.4c0,0.3-0.5,0.4-1.2,0.9c-0.3,0.2-0.6,0.3-1,0.3c-0.1,0-0.2,0-0.3,0c-0.2,0.2-0.5,0.2-0.7,0.1
		c-0.2-0.1-0.3,0-0.5,0c-0.5,0,0.1,0.1-1.5-0.4c-0.1,0-0.3,0-0.3,0c0,0.1-0.1,0.2,0,0.3c0.3,0.5,0,0.9,0.3,1.5
		c0.1,0.2,0.3,0.4,0.4,0.6c0.2,0.4,0.5,0.8,0.5,1.4c0,0.1,0.1,0.2,0.1,0.3c0,0.1,0.1,0.1,0.1,0.2
		C126.2,107.5,125.9,107.1,126.6,108.2z M133.4,103.3c-1.3,1.3-1.1,1.7-1.5,1.9c-0.7,0.2-0.8,0.7-2.4,2.8c-0.2,0.3-0.5,0.5-0.7,0.8
		c-0.2,0.2-0.4,0.5-0.6,0.7c-0.6,0.6-1.1,1.3-1.5,2.1c-0.2,0.4-1.3,1.8-0.8,2.2c0.3,0.3,0.6,0.5,1,0.4c0.1,0,0.5,0.3,0.7,0
		c0.2-0.3,0.4-0.2,0.5-0.3c0.2-0.4,0.6-0.6,0.8-0.8c0.2-0.1,0.4-0.2,0.5-0.4c0.4-0.5,0.9-1.1,1.3-1.7c0.3-0.4,0.7-0.8,0.7-1.4
		c0-0.2,0.1-0.3,0.8-1.3c0,0,0.1-0.1,0.1-0.1c0.2-0.9,0.4-1.5,0.5-2C133.6,103.6,133.6,104,133.4,103.3z M130.7,96.3l-0.1-0.1
		c-0.1,0.3-0.1,0.2,0.1,0.3C130.6,96.5,130.6,96.4,130.7,96.3z M132.1,91C132.1,91,132,91,132.1,91c-0.2,0.1-0.2,0.2-0.3,0.3
		c-0.2,0.9-0.2,1.8-0.7,2.3c-0.1,0.1-0.2,0.5-0.1,0.5c0.3,0.1,0.1,0.4,0.2,0.5c0.1,0.2,0,0.3-0.3,0.5c0.2,0.4,0.1,0.8,0,1.3
		c0.2-0.1,0.1,0,0.8-1.3c0.1-0.1,0.7-0.5,0.4-1c0,0,0-0.1,0.1-1.1c0-0.2,0-0.4-0.1-0.6c-0.2-0.1,0-0.6,0-1
		C132.1,91.2,132.1,91.1,132.1,91z M131.9,99.2c0.1,0.1,0.2,0.1,0.2,0.1c0,0.1,0,0.1,0,0.2c0,0-0.1,0-0.1,0
		C131.9,99.3,131.9,99.3,131.9,99.2z M132.7,111.4l-0.1,0c0,0.1-0.1,0.1,0,0.2c0,0,0.1,0.1,0.1,0
		C132.6,111.5,132.6,111.5,132.7,111.4z M133.8,105.8c0,0,0.1,0.1,0.1,0.1c0.2-0.4,0.2-0.3,0.1-0.5
		C133.8,105.5,133.8,105.4,133.8,105.8z"/>
	<path d="M164.2,91.8c-0.1,0.4-0.1,0.8-0.2,1.2c0,0.2-0.5,1-0.6,1.4c-0.1,0.1-0.2,0.1-0.3,0.2c0,0.3-0.1,0.5-0.3,0.7
		c-0.1,0-0.1,0.2-0.1,0.2c0.1,0.3-0.1,0.4-1.1,0.8c0,0.1,0,0.2,0,0.3c-0.5,0.1-0.3,0-0.8,0.2c0.3,0.4-0.1,0.7-0.2,1
		c-0.1,0.2-0.3,0.1-0.4,0c-0.2,0.2-0.3,0.3-0.4,0.5l-0.1-0.1l0-0.2c0-0.1-0.1-0.2-0.1-0.3c-0.1,0-0.2-0.1-0.3,0
		c-0.3,0.3-0.7,0.4-0.9,0.8c-0.1,0.1-0.2,0.1-0.4,0.3c-0.2,0.2-0.5,0.2-0.6,0.5c0,0,0,0.1-0.1,0.1c-0.7,0.1-1.1,1-1.7,0.8
		c-0.1,0-0.3,0-0.3,0.1c-0.3,0.3-0.8,0.5-1.1,1c0,0-0.1,0.1-0.2,0.1c-0.8-0.1-0.9,0.5-2.8,0.9c0,0,0,0,0-0.1c0,0,0.1-0.1,0.1-0.1
		c0.6-0.2,1.1-0.5,1.6-1c0.3-0.3,0.3,0.2,1-0.5c0.3-0.3,0.5-0.5,0.9-0.6c0,0,0.1,0,0.1,0c1-0.8,0.8-0.6,1-0.9
		c-0.3,0-0.4,0.2-0.8,0.5c-1,0.7-1.3,0.9-1.7,1c-0.1,0-0.1,0.1-0.2,0.1c-0.3,0.4-0.8,0.5-1.3,0.7c-2.5,1.4-4.2,1.3-5.4,1
		c-0.4-0.1-0.7-0.3-0.8-0.6c-0.1-0.2-0.4-0.3-0.7-0.2c0,0-0.1,0-0.2,0c0.2-0.6,0.2-0.3-1.2-0.7c-0.2-0.1-0.3-0.3-1.3-1.5
		c-0.1-0.1-0.2-0.2-0.2-0.2c-0.1-0.4-0.2-0.8-0.3-1.1c-0.1-0.3-0.2-0.6-0.2-1c0-0.4-0.2-0.7-0.3-1.1c0-0.1-0.2-0.1-0.2-0.1
		c0.1-0.1,0.2-0.3,0.2-0.4c0-0.3,0.1-0.5,0.2-0.7c0.2-0.4,0-0.9,0.2-1.3c0.2-0.2-0.3-0.7,0.5-1.3c0.1-0.1,0.2-0.3,0.3-0.5
		c0.1-0.2,0.4-0.8,0.3-0.9c-0.4-0.4,0.1-0.8,0.5-1.5c0.3-0.4,0.6-0.9,0.8-1.4c0.1-0.2,0.3-0.4,0.4-0.7c0-0.2,0.7-0.4,0.8-0.5
		c0.1-0.1,0.1-0.3,0.3-0.3c0,0,0.1-0.1,0.1-0.1c0-0.4,0.3-0.6,0.5-0.9c0,0,0.1-0.1,0.2-0.1c0.5-0.1,0.8-0.7,1.2-1
		c0.3-0.2,0.6-0.4,0.8-0.6c0.3-0.2,0.6,0.1,1.1-0.6l0.1-0.1c0.4,0.1,0.7,0.2,1,0.5c0.3,0.3,2,0.9,2.8,1.4c0.4,0.2,0.8,0.5,1.4,0.4
		c-0.2,0.4,0,0.6,0.3,0.8c0.2,0.2,0.1,0.7,0.5,1.3c0.2,0.2,0.4,0.9,0.5,1.1c0.3,0.5,0.3,0.9,0.3,1.5c0,0.4-0.3,0.6-0.4,0.9
		c-0.1,0.4-0.4,0.5-0.6,0.8c-0.2,0.1-0.2,0.4-0.4,0.6c0,0,0,0.2-0.1,0.2c-0.4,0.2-0.9,1-1.4,1.3c-0.4,0.2-0.1,0.4-0.7,0.7
		c-0.3,0.2-0.6,0.3-0.8,0.5c-0.1,0.1-0.5,0.2-0.5,0.2c-0.1,0.3-0.3,0.2-0.5,0.2c-0.1,0-0.4,0.1-0.4,0.2c-0.3,0.4-0.7,0.4-1.1,0.5
		c0,0.1,0,0.1,0,0.2c0,0.1-0.1,0.2-0.1,0.2c-0.1,0-0.2,0-0.2-0.1c-0.1-0.1-0.2-0.2-0.3-0.2c-0.4,0-0.3-0.3-0.7-0.2
		c-0.7,0.2-0.9,0.4-1.5,0.2c-0.3-0.1-0.7,0-0.8,0.2c-0.1,0.1-0.2,0.2-0.3,0.3c0-0.1-0.1-0.2-0.1-0.3c-0.1-0.3-0.3-0.3-0.5-0.1
		l-0.3,0.4c-0.3-0.7-0.1-1-0.2-1.5c0-0.3,0.1-0.4,0.5-0.6c-0.1,0.2-0.1,0.4-0.2,0.6c-0.1,0.2-0.2,0.3,0,0.4c0.1,0,0.3,0,0.4,0
		c0.2-0.1,0.3-0.3,0.3-0.5c0.1-0.3,0.2-0.6,0.4-0.9c0.3,0.3-0.2,0.6,0.1,0.9c0.1,0,0.2,0,0.3-0.1c0.9-0.5,1.8-1.1,2.6-1.6
		c1-0.6,1.6-1.5,2.2-1.8c0.4-0.3,1-1.3,1.4-1.8c0.5-0.5,0.7-1.1,0.9-1.7c0-0.1,0.2-0.6-0.2-0.5c-0.7,0.1-1,0.1-1.3,0.5
		c-0.5,0.5-1.1,0.2-1.9,0.8c0.2,0.2,0.4,0.1,0.5,0c0.1-0.1,0.3-0.2,0.6-0.2c0,0,0.1,0.1,0.1,0.1c-0.2,0.4-0.3,0.3-0.6,0.4
		c-0.1,0.1-0.2,0.2-0.3,0.3c-0.2-0.1-0.4-0.2-0.6-0.3c0-0.3,0.3-0.4,0.4-0.7c-0.4-0.3-0.1-0.5,0.1-0.7c-0.2-0.1-0.3-0.1-0.3-0.1
		c-0.4,0.2-0.9,0.2-1,0.7c0,0,0,0.1,0,0.1c-0.1,0.1-0.1,0.2-0.2,0.2c-0.1,0-0.2-0.1-0.1-0.3c0.1-0.2-0.1-0.3-0.2-0.4
		c-0.3-0.2-0.5,0.2-0.8,0.9c0,0,0,0.1,0,0.1l0.3,0c0.1,0.2,0.1,0.3,0.1,0.4c0.1,0.1,0.1,0.2,0,0.3c-0.1,0.1-0.2,0.1-0.3,0
		c0,0-0.1,0,0,0c-1,0.5-1,0.5-1.1,0.6c-0.2,0.2-0.4,0.5-0.7,0.7c-0.3,0.3-0.7,0.1-0.7,0.5c0.5-0.1,0.8-0.2,1,0.2c-0.3,0-0.6,0-1,0.1
		c-0.3,0.1-0.4,0.5-0.4,0.9c0,0.2-0.1,0.2-0.2,0.3c-0.3,0.2-0.4,0.5-0.1,0.8c0.1,0.2,0,0.5-0.4,1.7c-0.1,0.2-0.2,0.3-0.4,0.3
		c-0.2,0.1-0.2,0.2-0.2,0.4c0.1,0,0.3-0.1,0.4,0c0.1,0,0.2,0.1,0.2,0.2c0.1,0.7-0.2,0.7,0,0.9c0,0-0.1,0.7-0.1,0.8l0.1,0.1l0.1-0.4
		c0,0,0.1,0.1,0.1,0.1c0.1,0.3,0.1,0.5,0.4,0.5c0,0.1,0,0.4,0,0.4c0.3,0.2,0.1,0.7,0.7,0.8l0.1-0.4c0.1,0,0.3-0.1,0.5-0.1
		c-0.2,0.6-0.4,0.8-0.1,0.9c0.3,0.1,0.3,0.8,0.8,0.4l0.2,0.7c-0.1,0-0.2,0.1-0.4,0.1c0.4,0.3,0.8,0.5,1.3,0.4c0.1-0.1,0.3,0,0.5,0
		c0.5,0.1,1-0.1,1.4-0.3c2.3-0.8,3.5-1.6,5.1-2.7c0.1,0,0.1-0.1,0.1-0.1c0.7-0.2,1.1-0.5,1.6-1.1c0.1-0.1,0.2-0.1,0.4-0.2
		c0.1,0,0.2,0,0.3-0.1c0.2-0.2,0.5-0.4,0.7-0.6c0.5-0.6,1.1-0.7,1.1-1.2c0-0.2-0.1-0.2-0.3-0.3c-0.2,0-0.2-0.2-0.3-0.3
		c0.5-0.4,0.5,0.5,0.9,0.1c1-1.3,0.8-1.1,1-1.6c0.5-0.2,0.5-0.8,0.7-1.3c0.4-0.3,0.7-0.9,0.5-1.4c-0.2,0.4-0.5,0.8-0.7,1.1
		c0,0-0.1,0-0.1,0c0-0.3,0.1-0.6,0.2-0.9c0.4-1.5,0.1-1.7,0-2c0-0.1,0-0.2,0-0.3c0.1,0,0.3,0,0.3,0c0.1,0.1,0.2,0.2,0.3,0.3
		c0.9-0.3,1-0.4,1.2-0.2c0.7,0.6,1.4,0.9,1.9,2.3C164.4,91.1,164.4,91.4,164.2,91.8z M142.8,96.9c0,0-0.1-0.1-0.1-0.1l-0.2,0.7
		c0.4,0.4,0.3,0.8,0.6,1.1c0,0.1,0.2,0.1,0.2,0.1c0.1,0,0.1-0.2,0.2-0.3C143.5,98.3,142.9,97.1,142.8,96.9z M142.8,95.2
		c0,0.1,0.1,0.1,0.1,0.2c0,0,0.2,0,0.2-0.1c0.1-0.2,0.2-0.4,0.2-0.6c0-0.6,0.3-1.4,0.2-1.6c0-0.6,0.6-0.6,0.4-1.1
		c-0.1,0-0.2,0.1-0.2,0.2c-0.2,0.3-0.2,0.6-0.6,0.8c0,0-0.1,0.1-0.1,0.1c-0.1,0.4,0,0.8-0.3,1.2c0,0-0.1,0.1-0.1,0.2
		C143,94.8,142.7,95.1,142.8,95.2z M143.2,90.1C143.2,90.1,143.3,90.1,143.2,90.1l0.3-0.2l-0.1-0.1C143.3,89.9,143.2,90,143.2,90.1z
		 M143.6,98.8c0,0.1,0,0.1,0.1,0.1C143.7,98.9,143.7,98.9,143.6,98.8z M143.8,89.3C143.8,89.3,143.8,89.4,143.8,89.3
		c0.1,0.1,0.2,0,0.2,0C143.8,89.2,143.9,89.1,143.8,89.3z M144.3,88.8c0.2-0.3,0.5-0.3,0.9-0.4c0.1,0.1,0.1,0.3,0.2,0.4
		c0.2-0.3,0.5-0.5,0.7-0.7c0.2,0.4,0.3,0.4,0.5,0.1c0.1,0,0.2-0.2,0.2-0.1c0.3,0,0.3-0.2,0.3-0.4c-0.1,0-0.2,0.1-0.3,0.1
		c-0.2,0-0.5,0.2-0.7,0.1c-0.3-0.1-0.5,0-0.7,0.2c-0.1,0.1-0.1,0.1-0.3,0.2l0.1-0.4l-0.1,0c-0.2,0.4-0.4,0.4-0.8,0.3
		c-0.1,0-0.2,0.1-0.3,0.3C144.2,88.5,144.1,88.7,144.3,88.8z M144.3,91.6l0.2-0.5c0,0,0,0-0.1,0C144.3,91.2,144.1,91.4,144.3,91.6z
		 M145.3,90.3c0,0-0.1-0.1-0.2-0.1c-0.1,0.1-0.3,0.1-0.5,0.1c0,0,0,0,0-0.1c-0.1,0-0.1,0.1-0.2,0.1c0,0,0,0.1,0,0.1
		c0,0,0.2,0.1,0.3,0c0.1-0.1,0.2-0.2,0.4-0.1c0,0,0.1,0,0.1-0.1C145.4,90.4,145.4,90.3,145.3,90.3z M144.5,97.2c0.1,0,0-0.1,0.2,0.1
		C144.6,97.3,144.6,97.3,144.5,97.2L144.5,97.2z M144.8,96.2c0.1,0,0.1-0.1,0.2-0.2c-0.1-0.1-0.1-0.1-0.2-0.1
		C144.6,96.1,144.6,96,144.8,96.2L144.8,96.2z M145.2,99c-0.3-0.2-0.6-0.4-0.3-0.7c0.1-0.1,0.2-0.2,0.3-0.3c0,0,0.1,0.1,0.1,0.2
		C145,98.5,145.2,98.8,145.2,99z M144.9,93.7C144.9,93.7,144.9,93.8,144.9,93.7c0-0.1-0.1-0.1,0-0.2L144.9,93.7L144.9,93.7z
		 M144.9,98C144.9,98,144.9,97.9,144.9,98L144.9,98C144.9,98,144.9,98,144.9,98C144.9,98,144.9,98,144.9,98z M145.2,93.2l-0.3,0.2
		C145,93.4,145.1,93.2,145.2,93.2C145.2,93.2,145.2,93.2,145.2,93.2z M144.9,93.6l0-0.1l0,0C144.9,93.5,144.9,93.5,144.9,93.6z
		 M145.2,99L145.2,99L145.2,99L145.2,99z M145.6,98.1c0,0.1,0.1,0.3,0.1,0.4C145.4,98.3,145.4,98.3,145.6,98.1L145.6,98.1z
		 M146.2,99.9l-0.4-0.2c0,0,0-0.1,0-0.1C146.2,99.6,146.1,99.5,146.2,99.9z M145.9,94.2C145.9,94.2,145.9,94.2,145.9,94.2l0-0.3
		l0.1,0.1C146,94,146,94.1,145.9,94.2z M146.4,87c0.1,0.2,0.2,0.3,0.4,0.3c0.1-0.1,0.2-0.2,0.1-0.4L146.4,87z M146.6,89.9
		L146.6,89.9l-0.1,0.1c0,0,0,0,0.1,0C146.5,90,146.5,90,146.6,89.9z M147,92.5L147,92.5c-0.1,0.1-0.1,0.1-0.2,0.1l0-0.1L147,92.5z
		 M147,89.5c0,0,0-0.1-0.1-0.1c0,0-0.1,0.1-0.1,0.1C146.9,89.5,146.9,89.6,147,89.5L147,89.5z M147.4,86.5c0.3,0.2,0.3,0.1,0.4-0.2
		c0-0.3,0.5-0.2,0.8-0.4c0.4-0.3,0.7-0.6,1.2-0.7c0.2,0,0.2-0.2,0.1-0.3c-0.2-0.3-0.7-0.3-0.9-0.1c-0.3,0.3-1.4,0.8-1.5,1
		C147.5,86.1,147.5,86.3,147.4,86.5z M147.8,91.1c0,0,0,0,0,0.1C147.7,91.1,147.7,91.1,147.8,91.1L147.8,91.1z M148.5,84.2
		c-0.2-0.1-0.4,0-0.5,0.2C148.2,84.5,148.3,84.4,148.5,84.2L148.5,84.2z M148,90.9C148,90.9,148,90.9,148,90.9
		c0.4-0.8,0.2-0.6,0.9-1.1c0.2-0.2,0.5-0.1,0.7,0c-0.3,0.1-0.5,0.2-0.7,0.3c-0.1,0.1-0.3,0.1-0.3,0.3
		C148.5,90.7,148.3,90.8,148,90.9z M148.7,86.3c-0.4,0.1-0.6,0.2-0.6,0.6L148.7,86.3z M150.5,102.6c0.1,0,0.1,0,0.2-0.1
		C150.6,102.8,150.7,102.7,150.5,102.6C150.5,102.7,150.5,102.7,150.5,102.6z M156.4,99c0.1-0.2,0.1-0.1,0-0.3
		C156.2,99,156.2,98.9,156.4,99L156.4,99z M161.4,97C161.4,97,161.4,97,161.4,97l0,0.2C161.3,97,161.2,97,161.4,97z"/>
	<path d="M164,89.6c-0.5,0-0.5,0-0.4,0.5c0.1,0.3,0,0.6,0.1,0.9c0,0.3-0.2,0.5-0.1,0.7c0,0.1,0,0.1-0.1,0.2c0,0.1-0.1,0.2-0.1,0.3
		c-0.2,1.5-0.5,0.2,0,2c-0.3,0.1-0.3,0.2-0.2,0.5c0,0.3,0,0.9,0,1.2c0.1,0,0.2,0.1,0.4,0.2c-0.1,0.1-0.3,0.3-0.3,0.4
		c0,0.3,0,0.6-0.2,0.8c-0.1,0.1,0,0.4,0,0.6l0.1,0.8c0.4,0.1,0.5,0.2,1,0c0.2-0.1,0.2-0.3,0.2-0.5c0,0,0-0.1,0-0.1
		c-0.3-0.3-0.3-0.4,0.1-0.6c0.3-0.1,0.3-0.4,0.3-0.6c0-0.1,0.1-0.3,0.2-0.3c0.4-0.3,0.2-1,0.9-1.5c0.3-0.2,0.4-0.5,0.2-0.9
		c-0.2-0.4,0.3-0.5,0.3-0.5c0.1-0.5,0.7-0.6,0.7-1.3c0.2,0.1,0.3,0.2,0.5,0.3c0.1,0.1,0.1,0.3-0.1,0.5c-0.3,0.4-0.3,0.8-0.5,1.2
		l0,0.2c0.5,0.3-0.2,0.7,0.2,1c0.1,0,0.1,0.2,0.1,0.3c-0.1,0.1-0.2,0-0.3-0.1l-0.1,0c0,0.1-0.1,0.2-0.1,0.3c0.1,0.3,0,0.6-0.1,1
		c-0.1,0.3,0,0.7,0,1.1c0,0.5-0.2,0.9-0.3,1.2c0,0.2-0.1,0.3-0.2,0.3c-0.3,0-0.4,0.2-0.2,0.5c0.1,0.2,0.1,0.3,0,0.6
		c-0.2,0.6-0.2,1.3-0.3,1.4c-0.1,0.1-0.8,0.3-0.9,0.2c-0.3-0.2-0.5-0.2-0.8,0c-0.2,0.1-0.4,0.1-0.6-0.1c-0.2-0.2-0.4-0.2-0.7-0.4
		c-0.4-0.1-0.7-0.4-1-0.5c-0.5-0.3-0.5-0.1-1.7-1c-0.3-0.2,0-0.8-0.9-0.7c0,0,0-0.1,0-0.1c0.2-0.2,0.2-0.5,0-0.7
		c-0.1-0.2-0.1-0.2,0.2-2.1c0-0.3-0.1-0.7,0.3-1.2c0.1-0.1,0.2-0.3,0.2-0.5c0-0.3,0.2-0.5,0.1-0.8c0,0,0-0.1,0-0.1
		c0.2-0.2,0.1-0.4,0.1-0.6c0-0.5,0-0.5,0.4-0.5c0.1,0,0.1-0.1,0.2-0.1c-0.1-0.2-0.4-0.3-0.2-0.6l0.3,0c-0.1-0.2-0.2-0.3-0.3-0.4
		c0.1-0.1,0.2-0.1,0.3-0.1c0.1-0.3,0.1-0.6,0.2-0.8c0-0.2-0.3-0.5,0-0.8c0.1-0.1,0.2-0.2,0.3-0.2c0.2,0,0.3-0.2,0.3-0.4
		c0-0.1,0.1-0.1,0.1-0.3c0.2-0.3,0.1-0.3-0.1-0.6c0.1-0.1,0.3-0.2,0.4-0.3c0.1-0.2,0.2-0.8,0.5-1.1c0.2-0.3,0.2-0.7,0.4-1
		c0.2-0.4,0.5-0.8,0.7-1.3c0.1-0.4,0.5-0.5,0.6-0.9c0.1-0.3,0.2-0.4,0.5-0.4c0.4,0,0.7-0.6,0.2-0.8c0.5-0.7,0.6-0.7,0.5-1
		c0-0.2,0.1-0.4,0.2-0.5c0-0.1,0.2-0.2,0.2-0.1c0.3,0.1,0.3-0.1,0.4-0.2l-0.2-0.5c0.2-0.1,0.3-0.1,0.4-0.1c-0.1-0.4,0.2-0.5,0.4-0.7
		c0.1-0.1,0.2-0.1,0.2-0.2c0-0.4,0.4-0.6,0.6-0.9c0.5-0.8,0.1-0.3,0.8-1.1c0,0.1,0,0.2,0,0.3c0.3-0.1,0.1-0.4,0.3-0.6
		c0.3,0,0.5,0,0.5-0.3c0-0.1,0-0.1,0.1-0.3c0.1-0.3,0.1-0.4,0.4-0.3c0.2,0,0.4-0.1,0.5-0.3c0.1-0.2,0.3-0.4,0.4-0.6
		c0.6-0.8,1-0.5,1.3-1c0.3-0.5,0.8-0.8,1.2-1.1c0.2-0.1,0.3-0.3,0.5-0.5c0.2-0.1,0.7-0.3,0.9-0.3c0,0,0.1,0,0.1,0
		c0.1,0.2,0.3,0.3,0.6,0.3c0.2,0,0.4,0.7,0.6,0.7c0.6,0.1,0.8,0.5,1.3,0.8c0.1,0.1,0.3,0.1,0.4,0.2c0.6,0.6,0.5,0.8,0.7,1.2
		c0.1,0.2,0,0.3-0.1,0.3c-0.2,0.1-0.7,0.4-0.9,0.4c-0.8-0.2-1.4,0.2-2,0.6c-2.4,1.4-3.3,2.9-5,4.2c-0.2-0.4,0.2-0.5,0.2-0.8
		c-0.6,0.5-1,1.2-1.6,1.7c0-0.1,0-0.1,0-0.2c0.1-0.2,0.3-0.4,0.4-0.6c0.5-0.8,0-0.3,0.9-1.3c0.1-0.1,0.2-0.2,0.3-0.3
		c0,0,0.1-0.1,0.1-0.1c0-0.5,0.5-0.6,0.7-1c0.2-0.2,0.4-0.4,0.6-0.7c0.2-0.2,0.5-0.4,0.7-0.7c0-0.1,0.3-0.2,0.5-0.3
		c-0.4-0.1-0.8,0-1,0.3c-0.6,0.6-0.6,0.2-1.4,1.3c-0.6,0.4-0.4,0.3-0.8,0.4c0.1,0.1,0.1,0.2,0.2,0.2c-1.2,1.3-1.3,1.4-1,1.7
		c-0.2,0.1-0.4,0.1-0.7,0.2c0.1,0.1,0.2,0.2,0.2,0.2c-0.1,0.6-0.9,0.3-0.9,0.9c0,0-0.1,0.1-0.2,0.2l-0.4,0.1
		c0.2,0.3,0.2,0.3-0.1,0.7c-0.2,0.3-0.4,0.6-0.6,0.9c0,0.1,0,0.2,0,0.3c-0.4,0.1-0.6,0.2-0.6,0.5c-0.5,0.1-0.3,0.5-0.5,0.8
		c-0.1,0.1,0.3,0.8-0.5,1c0,0,0,0.1,0,0.2c-0.2,0.1-0.4,0-0.4,0.4c0,0.1,0,0.2,0,0.2c0.1,0.3,0,0.4-0.3,0.6
		c-0.2,0.1-0.4,0.4-0.5,0.6c0,0,0,0,0,0.1c-0.1,0.2-0.2,0.4,0,0.5C164,89.4,164,89.5,164,89.6z M160.7,94.9l0.1,0
		c0.1-0.1,0.1-0.3,0.2-0.5l-0.1,0L160.7,94.9z M161.3,93.5c-0.2,0.1-0.2,0.1-0.1,0.3C161.2,93.8,161.2,93.7,161.3,93.5L161.3,93.5z
		 M161.4,89.4C161.3,89.4,161.4,89.4,161.4,89.4L161.4,89.4L161.4,89.4z M161.5,90.9C161.5,90.9,161.6,90.9,161.5,90.9
		c0.3,0,0.3,0,0.3-0.2C161.7,90.8,161.6,90.8,161.5,90.9z M163.1,91.1c0,0-0.1,0-0.1-0.1c-0.1,0.1-0.1,0.2-0.2,0.2
		c0,0,0.1,0,0.1,0.1C163,91.3,163,91.2,163.1,91.1z M163.7,94.4c-0.1,0.3-0.1,0.5-0.1,0.8c-0.2-0.1-0.3-0.2-0.4-0.3
		C163.4,94.7,163.5,94.5,163.7,94.4C163.7,94.4,163.7,94.4,163.7,94.4z M163.5,95.8L163.5,95.8C163.5,95.8,163.5,95.9,163.5,95.8
		L163.5,95.8C163.4,95.8,163.4,95.8,163.5,95.8z M163.6,93.7c0,0.1,0,0.2,0.1,0.4c-0.3-0.1-0.3,0-0.2-0.4
		C163.6,93.7,163.6,93.7,163.6,93.7z M163.9,85.3c0.4-0.1,0.3-0.4,0.4-0.7C163.9,84.7,164,85.1,163.9,85.3L163.9,85.3z M164.1,92.4
		l0.3,0l0,0.2c-0.1,0-0.2,0-0.3-0.1L164.1,92.4z M164.5,84.3L164.5,84.3L164.5,84.3C164.5,84.3,164.5,84.3,164.5,84.3z M164.7,83
		l0.1,0.4c0,0,0,0-0.1,0c-0.1,0-0.2-0.1-0.2-0.2C164.6,83.2,164.6,83.1,164.7,83C164.7,83,164.7,83,164.7,83z M165.6,82.8
		c-0.1-0.1-0.1-0.1-0.1,0C165.5,82.9,165.5,82.9,165.6,82.8L165.6,82.8z M166.3,93.3C166.3,93.3,166.3,93.3,166.3,93.3
		C166.3,93.3,166.3,93.3,166.3,93.3L166.3,93.3z M166.9,82.9c-0.1,0-0.1-0.1-0.2-0.1c0,0-0.1,0.1-0.1,0.1
		C166.8,83,166.7,83,166.9,82.9z M167,92.4c0-0.1-0.1-0.2-0.2-0.3l0.3,0l0,0.3L167,92.4z M167,81.1c-0.1,0.1-0.1,0,0,0.1
		C167.1,81.2,167.1,81.2,167,81.1L167,81.1z M167.2,81.9c0.2,0.3,0.5-0.2,0.9-0.6c0.2-0.1,0.2-0.3,0.3-0.5c0,0,0,0-0.1,0
		C167.9,81.1,167.5,81.5,167.2,81.9z M167.6,92.6c-0.2-0.2-0.1-0.3,0.1-0.4c0,0,0.1,0,0.1,0L167.6,92.6z M167.8,80.2
		C167.8,80.2,167.8,80.3,167.8,80.2l0.2,0c0,0,0,0,0-0.1L167.8,80.2z M169.2,78.3c0,0,0,0,0,0.1C169.3,78.3,169.3,78.4,169.2,78.3
		L169.2,78.3z M169.7,77.9l-0.1-0.1c0,0-0.1,0-0.1,0.1c0,0,0.1,0.1,0.1,0.1C169.6,78,169.7,78,169.7,77.9L169.7,77.9z M171.2,80.2
		C171.1,80.2,171.1,80.1,171.2,80.2c-0.1,0-0.1,0-0.1,0c0,0,0,0.1,0,0.1C171.1,80.2,171.1,80.2,171.2,80.2L171.2,80.2z M173.7,77
		l0.5-0.3C173.9,76.5,173.8,76.6,173.7,77z"/>
	<path d="M173.8,90.9c-0.5-0.1-0.5-0.1-0.4,0.5c0.1,0.3,0,0.6-0.1,0.9c-0.1,0.3-0.2,0.4-0.2,0.7c0,0.1-0.1,0.1-0.1,0.2
		c-0.1,0.1-0.1,0.2-0.1,0.3c-0.4,1.4-0.5,0.1-0.3,2c-0.3,0.1-0.3,0.2-0.3,0.5c0,0.3-0.1,0.9-0.2,1.1c0.1,0.1,0.2,0.2,0.3,0.2
		c-0.1,0.1-0.4,0.2-0.3,0.3c0,0.3-0.1,0.6-0.3,0.8c-0.1,0.1-0.1,0.4-0.1,0.6l0,0.8c0.4,0.1,0.4,0.2,1,0.1c0.2,0,0.2-0.3,0.3-0.4
		c0,0,0.1-0.1,0.1-0.1c-0.3-0.3-0.3-0.4,0.1-0.5c0.3-0.1,0.4-0.3,0.4-0.6c0-0.1,0.1-0.2,0.2-0.3c0.4-0.3,0.4-1,1.1-1.3
		c0.3-0.2,0.5-0.5,0.4-0.9c-0.1-0.4,0.3-0.4,0.3-0.5c0.2-0.5,0.8-0.5,0.8-1.2c0.2,0.1,0.3,0.2,0.4,0.4c0.1,0.1,0,0.3-0.2,0.5
		c-0.4,0.3-0.4,0.8-0.6,1.1l0,0.2c0.4,0.4-0.3,0.7,0,1c0.1,0.1,0.1,0.2,0.1,0.3c-0.1,0.1-0.2,0-0.2-0.1l-0.1,0
		c-0.1,0.1-0.1,0.2-0.1,0.2c0,0.3-0.1,0.6-0.2,0.9c-0.1,0.3-0.1,0.7-0.2,1.1c-0.1,0.5-0.3,0.9-0.4,1.1c0,0.2-0.1,0.2-0.3,0.2
		c-0.3,0-0.4,0.1-0.3,0.4c0.1,0.2,0.1,0.4,0,0.6c-0.3,0.6-0.4,1.2-0.5,1.4c-0.1,0.1-0.9,0.2-1,0.1c-0.3-0.2-0.5-0.3-0.8-0.1
		c-0.2,0.1-0.4,0.1-0.5-0.1c-0.1-0.2-0.4-0.3-0.6-0.5c-0.3-0.2-0.6-0.5-1-0.7c-0.5-0.4-0.5-0.2-1.5-1.2c-0.2-0.2,0.1-0.8-0.7-0.8
		c0,0,0-0.1,0-0.1c0.2-0.2,0.2-0.4,0.1-0.7c-0.1-0.2-0.1-0.2,0.5-2.1c0.1-0.3-0.1-0.7,0.4-1.1c0.1-0.1,0.2-0.3,0.3-0.4
		c0.1-0.3,0.3-0.5,0.2-0.8c0,0,0-0.1,0.1-0.1c0.2-0.1,0.2-0.3,0.2-0.5c0-0.5,0.1-0.5,0.5-0.4c0.1,0,0.1-0.1,0.2-0.1
		c-0.1-0.2-0.3-0.4-0.1-0.6l0.3,0.1c-0.1-0.2-0.2-0.3-0.3-0.4c0.1-0.1,0.2,0,0.3-0.1c0.1-0.3,0.2-0.5,0.3-0.8
		c0.1-0.2-0.3-0.5,0.2-0.8c0.1-0.1,0.2-0.2,0.3-0.2c0.2,0,0.3-0.1,0.4-0.3c0-0.1,0.1-0.1,0.2-0.2c0.2-0.2,0.2-0.3,0-0.6
		c0.1-0.1,0.3-0.2,0.4-0.3c0.1-0.2,0.3-0.7,0.7-1c0.3-0.3,0.3-0.7,0.5-1c0.3-0.4,0.6-0.7,0.9-1.2c0.2-0.4,0.5-0.4,0.8-0.8
		c0.1-0.3,0.2-0.3,0.6-0.3c0.4,0,0.8-0.5,0.4-0.8c0.6-0.6,0.7-0.7,0.7-0.9c0-0.2,0.1-0.4,0.3-0.5c0.1-0.1,0.2-0.2,0.2-0.1
		c0.2,0.1,0.3-0.1,0.4-0.2l-0.1-0.5c0.2,0,0.3-0.1,0.4-0.1c-0.1-0.4,0.3-0.5,0.5-0.7c0.1-0.1,0.2-0.1,0.2-0.2c0-0.4,0.4-0.5,0.7-0.8
		c0.6-0.7,0.2-0.3,1-0.9c0,0.1,0,0.2,0,0.3c0.3-0.1,0.1-0.4,0.3-0.5c0.3,0.1,0.5,0,0.6-0.3c0-0.1,0.1-0.1,0.1-0.2
		c0.1-0.3,0.2-0.3,0.5-0.2c0.2,0.1,0.4,0,0.6-0.2c0.2-0.2,0.3-0.4,0.5-0.5c0.8-0.7,1.1-0.4,1.4-0.8c0.4-0.5,0.9-0.7,1.3-0.9
		c0.2-0.1,0.4-0.3,0.6-0.4c0.2-0.1,0.7-0.2,1-0.2c0,0,0.1,0,0.1,0.1c0.1,0.2,0.3,0.4,0.5,0.4c0.2,0,0.3,0.7,0.5,0.8
		c0.5,0.1,0.7,0.6,1.1,1c0.1,0.1,0.3,0.2,0.4,0.3c0.5,0.6,0.4,0.9,0.6,1.3c0,0.2,0,0.3-0.2,0.3c-0.2,0.1-0.7,0.3-0.9,0.3
		c-0.7-0.3-1.4,0-2.1,0.3c-2.6,1-3.7,2.4-5.6,3.4c-0.1-0.4,0.2-0.4,0.3-0.7c-0.7,0.4-1.2,1.1-1.8,1.5c0-0.1,0-0.1,0.1-0.2
		c0.2-0.2,0.3-0.4,0.5-0.5c0.6-0.7,0.1-0.3,1-1.1c0.1-0.1,0.2-0.1,0.3-0.2c0,0,0.1-0.1,0.1-0.1c0.1-0.5,0.6-0.6,0.9-0.9
		c0.2-0.2,0.5-0.4,0.7-0.6c0.2-0.2,0.6-0.3,0.8-0.6c0.1-0.1,0.3-0.2,0.5-0.3c-0.4-0.2-0.8-0.1-1.1,0.1c-0.6,0.5-0.6,0.1-1.6,1.1
		c-0.6,0.3-0.4,0.2-0.8,0.2c0.1,0.1,0.1,0.2,0.1,0.3c-1.3,1.2-1.5,1.2-1.3,1.5c-0.2,0-0.4,0.1-0.7,0.1c0.1,0.1,0.2,0.2,0.2,0.2
		c-0.2,0.6-0.9,0.2-1,0.8c0,0-0.1,0.1-0.2,0.2l-0.4,0c0.2,0.4,0.2,0.4-0.2,0.7c-0.2,0.3-0.5,0.5-0.7,0.8c-0.1,0.1,0,0.2-0.1,0.3
		c-0.4,0.1-0.6,0.1-0.6,0.4c-0.5,0-0.3,0.5-0.6,0.7c-0.1,0.1,0.2,0.8-0.6,0.9c0,0,0,0.1,0,0.2c-0.2,0.1-0.4,0-0.4,0.3
		c0,0.1,0,0.2,0,0.2c0.1,0.3-0.1,0.4-0.3,0.6c-0.2,0.1-0.4,0.3-0.6,0.5c0,0,0,0-0.1,0.1c-0.1,0.2-0.2,0.3-0.1,0.5
		C173.8,90.7,173.8,90.8,173.8,90.9z M169.8,95.7l0.1,0c0.1-0.1,0.2-0.3,0.3-0.5l-0.1,0L169.8,95.7z M170.5,94.5
		c-0.2,0.1-0.2,0.1-0.2,0.3C170.4,94.7,170.5,94.6,170.5,94.5z M171.2,91.9C171.2,91.9,171.2,91.9,171.2,91.9
		c0.3,0.1,0.3,0.1,0.3-0.2C171.3,91.8,171.3,91.8,171.2,91.9z M171.2,90.4C171.2,90.4,171.2,90.4,171.2,90.4L171.2,90.4L171.2,90.4z
		 M172.9,95.6c-0.1,0.2-0.2,0.5-0.2,0.8c-0.2-0.1-0.3-0.2-0.3-0.4C172.5,95.9,172.6,95.7,172.9,95.6
		C172.8,95.6,172.9,95.6,172.9,95.6z M172.4,97L172.4,97C172.5,97,172.4,97.1,172.4,97L172.4,97C172.4,97,172.4,97,172.4,97z
		 M172.7,92.3C172.7,92.3,172.7,92.2,172.7,92.3c-0.2,0-0.2,0.1-0.3,0.1c0,0,0.1,0.1,0.1,0.1C172.5,92.4,172.6,92.4,172.7,92.3z
		 M172.9,95c0,0.1,0,0.2,0,0.4c-0.3-0.1-0.3,0-0.1-0.4C172.8,94.9,172.8,94.9,172.9,95z M173.5,93.8l0.3,0.1l0,0.2
		c-0.1-0.1-0.2-0.1-0.2-0.1L173.5,93.8z M174.3,86.7c0.4,0,0.4-0.4,0.5-0.6C174.4,86.1,174.5,86.5,174.3,86.7L174.3,86.7z
		 M175.1,85.7L175.1,85.7L175.1,85.7C175.1,85.7,175,85.7,175.1,85.7z M175.4,84.5l0,0.4c0,0,0,0-0.1,0c-0.1-0.1-0.2-0.1-0.2-0.2
		C175.2,84.7,175.3,84.6,175.4,84.5C175.4,84.5,175.4,84.5,175.4,84.5z M175.6,94.9C175.6,94.9,175.6,94.9,175.6,94.9
		C175.6,94.9,175.6,94.9,175.6,94.9L175.6,94.9z M176.3,84.4c-0.1-0.1-0.1-0.1-0.1,0C176.2,84.5,176.2,84.5,176.3,84.4L176.3,84.4z
		 M176.4,94.1c0-0.1-0.1-0.2-0.2-0.3l0.3,0.1l-0.1,0.3L176.4,94.1z M177,94.4c-0.2-0.3,0-0.3,0.1-0.4c0,0,0.1,0.1,0.1,0.1L177,94.4z
		 M177.6,84.7c-0.1-0.1-0.1-0.1-0.2-0.1c0,0-0.1,0.1-0.1,0.1C177.5,84.8,177.4,84.8,177.6,84.7z M178,82.9c-0.1,0.1-0.1,0-0.1,0.1
		C178,83,178,83,178,82.9L178,82.9z M178,83.7c0.2,0.3,0.5-0.1,1-0.5c0.2-0.1,0.3-0.3,0.3-0.5c0,0,0,0-0.1-0.1
		C178.8,83.1,178.4,83.4,178,83.7z M178.9,82.2C178.9,82.2,178.9,82.2,178.9,82.2l0.2,0c0,0,0,0,0-0.1L178.9,82.2z M180.5,80.5
		c0,0,0,0-0.1,0.1C180.6,80.5,180.6,80.5,180.5,80.5L180.5,80.5z M181.1,80.1L181.1,80.1c-0.1-0.1-0.2-0.1-0.2,0
		c0,0,0.1,0.1,0.1,0.1C181,80.2,181,80.2,181.1,80.1L181.1,80.1z M182.2,82.6C182.2,82.6,182.1,82.5,182.2,82.6
		c-0.1-0.1-0.1-0.1-0.1,0c0,0,0,0.1,0,0.1C182.1,82.6,182.2,82.6,182.2,82.6L182.2,82.6z M185.2,79.8l0.5-0.3
		C185.4,79.3,185.3,79.4,185.2,79.8z"/>
	<path d="M189.5,99c0,0.3-0.3,0.5-0.5,0.6c-0.1,0-0.2,0-0.3-0.1c-0.3-0.1-0.3,0-0.5,0.2c-0.1,0.2-0.3,0.4-0.5,0.6
		c-0.3,0.5-0.7,1.1-1,1.6c-0.3,0.5-0.6,0.9-0.9,1.3c-0.2,0.2-0.9,1.6-0.9,1.7c0,0.1-0.1,0.3-0.1,0.4c0.2,0.3,0.7,0.2,1.1,0.2
		c0.3,0,0.8,0,0.9,0c0.9-0.3,1.7-0.5,2.6-0.6c0.3,0,0.6-0.2,0.9-0.3c0,0,0.1-0.1,0.1-0.1c0.6,0.1,1.1-0.3,1.7-0.3
		c1.4-0.1,2.3-0.8,3.7-0.4c0.6,0.1,0.9-0.2,1.1,0.3c0.1,0.4,0.4,0.7,0.8,0.8c0.5,0.1,0.5,0.5,1.6,2.8c0.1,0.2,0.2,0.5,0.2,0.7
		c0,0.2,0.2,0.3,0,0.7c-0.1,0.1-0.1,0.3-0.1,0.4c-1.3-0.2-1.1-0.2-1.4-0.4c-0.1-0.1-0.7-0.6-0.7-0.7c-0.3-0.6-0.9-0.6-1.3-1
		c-0.5-0.6-2-0.3-2.9-0.6c-0.2-0.1-0.5,0.1-0.5-0.3c0-0.2-0.2-0.2-0.3-0.2c-0.9-0.1-1.7,0.2-3,0.7c-0.1,0-0.1,0.1-0.2,0
		c-0.4-0.1-0.5,0.2-1.5,0.4c-0.9,0.2-1.7,0.4-2.6,0.2c-0.9-0.3-1.6-0.7-2.2-1.3c-0.3-0.3-0.9-0.5-1.2-0.9c-0.1-0.1-0.5-0.6-0.6-0.7
		c-0.1-0.5-0.5-1-0.4-1.6c0.3-0.2,0.3-0.2,0.3-0.6c0-0.2,0.1-0.3,0.2-0.3c0.4-0.3,0.4-0.8,0.7-1.1c0,0,0,0-0.1-0.1
		c-0.5,0.1,0.1-0.1-1.3,0.6c-0.1,0.1-0.3,0.1-0.5,0.2c0,0-0.1,0-0.1,0.1c-0.2,0.3-0.5,0.3-0.7,0.4c-1.5,0.8-1.6,1.2-2.2,1.2l-0.2,0
		c-0.6,0.4-1-0.2-1.4-0.3c-0.9-0.1-0.9-0.7-1.8-1.2c-0.5-0.3-0.6-1.4-0.4-2.7c0.1-0.4,0.4-0.8,0.5-1.2c0.1-0.3,0.3-0.5,0.5-0.8
		c0.1-0.1,0.1-0.3,0.3-0.4c0.4-0.2,0.7-0.6,1-0.8c0.3-0.3,0.7-0.6,1-1c0.4-0.4,0.3-0.8,0.7-1.1c0.6-0.4,0.7-0.4,0.8-0.3
		c0.2,0.1,0.4,0,0.6-0.1c1.7-1,1.2-0.6,1.5-0.9c-0.1-0.1-0.1-0.2-0.2-0.3c0.5-0.3,0.1-0.3,1.5-0.4c0.6,0,0.1-0.4,1-0.4
		c0.4,0,1.2-0.3,1.7,0c0.3,0.2,0.4-0.2,0.7,0.2c0.4,0.5,0.8,0.8,1.2,1.3l0.9,1.2c0.4,0.4,0.9,0.5,0.9,1.1c0,0.1,0,0.2,0.1,0.4
		c1.3-0.5,1.6-0.8,1.9-0.4c0,0,0.1,0.1,0.1,0.1c0.6-0.1,1,0.4,2.3,2.2c0.2,0.2,0.1,0.5-0.2,0.6l-1.5,0.3c-0.2,0.1-0.4,0-0.5,0.2
		C189.9,99,189.7,99,189.5,99z M176.8,98.4c0.5,0.8-0.5,0.3-0.4,1c0.1,0.5-0.5,0.7-0.5,1.3c0,0.1,0,0.2-0.1,0.2
		c-0.3,0.2-0.3,0.5-0.4,0.8c-0.1,0.1-0.1,0.3-0.1,0.4c0,0.3,0.3,0.3,0.5,0.1c0.4-0.2,0.8-0.5,1.2-0.7c0.6-0.4,1.3-0.6,1.8-1
		c0.3-0.2,0.7-0.4,1-0.5c0.5-0.2,0.9-0.7,1.5-0.9c0,0,0.1,0,0.1-0.1c1.2-0.8,1.7-0.8,2.4-1.4c0.2-0.1,0.8-0.3,1.1-0.5
		c0.3-0.3,0.6-0.2,1.2-0.7l-0.2-0.2c-0.4-0.3-0.9-0.4-1.1-0.8c-0.1-0.1-0.6-0.1-0.6-0.1c-0.4,0-0.7,0-1,0.2
		c-0.1,0.1-0.3,0.1-0.5,0.2c0,0.4-0.4,0.1-1.1,0.4c-0.3,0.1-0.6,0.3-0.9,0.3c-0.4,0.1-0.7,0.1-0.9,0.4c0,0-0.1,0-0.2,0.1
		c-1.8,1-1,0.8-1.6,1C177.6,98,178.1,97.7,176.8,98.4z M177.9,97.7c0.1,0,0.2-0.1,0.2-0.2c0,0,0-0.2,0-0.1
		C177.8,97.4,177.9,97.5,177.9,97.7z M182,101.7C182,101.6,182,101.6,182,101.7c-0.1-0.1-0.1,0-0.1,0
		C181.9,101.7,181.9,101.7,182,101.7C182,101.7,182,101.7,182,101.7z"/>
	<path class="st38" d="M116.3,229.3c-0.2-0.4-0.5-0.8-0.9-1.1c-0.4-0.2-0.7-0.4-1.1-0.4s-0.7,0-1,0.1c-0.3,0.1-0.6,0.3-0.9,0.5
		c-0.3,0.2-0.5,0.5-0.7,0.8c-0.2,0.3-0.4,0.7-0.5,1.1c-0.1,0.4-0.2,0.7-0.2,1.1c0,0.3,0.1,0.7,0.3,1c0.2,0.3,0.4,0.6,0.8,0.8
		c0.3,0.2,0.5,0.3,0.8,0.3c0.3,0,0.5,0,0.8,0c0.3-0.1,0.5-0.2,0.7-0.3c0.2-0.2,0.4-0.4,0.6-0.6l0.8,0.5c-0.6,0.7-1.2,1.1-2,1.3
		c-0.7,0.1-1.5-0.1-2.3-0.6c-0.5-0.3-0.8-0.7-1.1-1.1c-0.2-0.4-0.4-0.8-0.4-1.3c0-0.4,0-0.9,0.1-1.4c0.1-0.5,0.4-0.9,0.6-1.4
		c0.3-0.4,0.6-0.8,1-1.1c0.4-0.3,0.8-0.5,1.2-0.7c0.4-0.1,0.9-0.2,1.4-0.1c0.5,0.1,0.9,0.3,1.4,0.6c0.3,0.2,0.6,0.5,0.8,0.7
		c0.2,0.3,0.4,0.6,0.5,0.9c0.1,0.3,0.2,0.6,0.1,1c0,0.3-0.1,0.7-0.3,1.1l-0.8-0.5C116.5,230.2,116.5,229.8,116.3,229.3z"/>
	<path class="st38" d="M119.7,238.5c-0.2,0-0.4-0.1-0.6-0.2c-0.2-0.1-0.3-0.3-0.4-0.4c-0.1-0.2,0-0.4,0.1-0.6
		c-0.3,0.1-0.7,0.2-1,0.1c-0.3,0-0.7-0.2-1-0.3c-0.2-0.1-0.4-0.2-0.6-0.4c-0.2-0.2-0.3-0.3-0.4-0.5c-0.1-0.2-0.1-0.4-0.1-0.6
		c0-0.2,0.1-0.4,0.2-0.7c0.1-0.3,0.3-0.5,0.5-0.6c0.2-0.1,0.4-0.2,0.6-0.2s0.4,0,0.6,0c0.2,0,0.4,0.1,0.7,0.2
		c0.2,0.1,0.4,0.2,0.6,0.2c0.2,0.1,0.4,0.1,0.5,0.2c0.2,0,0.3,0,0.4,0c0.1,0,0.2-0.1,0.3-0.3c0.1-0.2,0.1-0.3,0.1-0.5
		c0-0.1,0-0.3-0.1-0.4c-0.1-0.1-0.2-0.2-0.3-0.3c-0.1-0.1-0.2-0.2-0.3-0.2c-0.3-0.2-0.6-0.3-0.9-0.3c-0.3,0-0.5,0.2-0.7,0.5
		l-0.8-0.4c0.2-0.3,0.4-0.5,0.6-0.6c0.2-0.1,0.4-0.2,0.7-0.2c0.2,0,0.5,0,0.8,0.1c0.3,0.1,0.5,0.2,0.8,0.3c0.2,0.1,0.4,0.2,0.6,0.4
		c0.2,0.1,0.3,0.3,0.5,0.5c0.1,0.2,0.2,0.4,0.2,0.6c0,0.2-0.1,0.5-0.2,0.7l-1.3,2.4c-0.1,0.2-0.2,0.3-0.2,0.4c0,0.1,0,0.2,0.1,0.2
		c0.1,0,0.2,0.1,0.3,0.1L119.7,238.5z M119.8,235.4c-0.1,0-0.3,0-0.5-0.1c-0.2-0.1-0.4-0.1-0.5-0.2c-0.2-0.1-0.4-0.1-0.6-0.2
		c-0.2-0.1-0.4-0.1-0.5-0.1c-0.2,0-0.3,0-0.5,0.1s-0.3,0.2-0.4,0.4c-0.1,0.1-0.1,0.2-0.1,0.4c0,0.1,0,0.2,0.1,0.3
		c0.1,0.1,0.1,0.2,0.2,0.3c0.1,0.1,0.2,0.2,0.3,0.2c0.3,0.1,0.5,0.2,0.7,0.3s0.4,0,0.6,0c0.2,0,0.3-0.1,0.4-0.2
		c0.1-0.1,0.2-0.2,0.3-0.3L119.8,235.4z"/>
	<path class="st38" d="M122.1,234.6l0.3-0.7l0.8,0.4l0.3-0.7c0.2-0.4,0.4-0.6,0.8-0.7c0.3-0.1,0.7,0,1.1,0.2c0.1,0,0.2,0.1,0.2,0.1
		c0.1,0.1,0.2,0.1,0.2,0.2l-0.3,0.7c-0.1-0.1-0.1-0.1-0.2-0.2c-0.1,0-0.1-0.1-0.2-0.1c-0.2-0.1-0.4-0.1-0.5-0.1
		c-0.1,0-0.3,0.1-0.4,0.3l-0.3,0.7l0.9,0.4l-0.3,0.7l-0.9-0.4l-2,4.1l-0.8-0.4l2-4.1L122.1,234.6z"/>
	<path class="st38" d="M127.1,241.5c-0.5,0.1-1,0.1-1.6-0.2c-0.4-0.2-0.7-0.4-0.9-0.6c-0.2-0.2-0.4-0.5-0.5-0.8
		c-0.1-0.3-0.1-0.6-0.1-1c0-0.4,0.1-0.7,0.3-1.1c0.2-0.4,0.4-0.7,0.6-0.9c0.2-0.3,0.5-0.5,0.8-0.6c0.3-0.1,0.6-0.2,1-0.2
		c0.3,0,0.7,0.1,1,0.2c0.4,0.2,0.8,0.4,1,0.7c0.2,0.3,0.3,0.6,0.4,1c0.1,0.4,0,0.7,0,1.1c-0.1,0.4-0.2,0.7-0.3,1l-3.7-1.5
		c-0.1,0.2-0.2,0.4-0.2,0.6c0,0.2,0,0.4,0.1,0.6c0.1,0.2,0.2,0.4,0.3,0.6c0.2,0.2,0.4,0.3,0.6,0.4c0.3,0.1,0.7,0.2,0.9,0.1
		c0.3-0.1,0.5-0.2,0.7-0.5l0.8,0.3C128,241.1,127.6,241.4,127.1,241.5z M128.3,238.3c0-0.2,0-0.4-0.1-0.6c-0.1-0.2-0.2-0.3-0.3-0.5
		c-0.1-0.1-0.3-0.3-0.5-0.3c-0.2-0.1-0.4-0.1-0.6-0.1c-0.2,0-0.4,0-0.6,0.1c-0.2,0.1-0.3,0.2-0.5,0.3c-0.1,0.1-0.3,0.3-0.3,0.5
		l2.8,1.2C128.2,238.7,128.3,238.5,128.3,238.3z M128.9,234.1l-1.6,1.1l0.6,0.3l2-1L128.9,234.1z"/>
	<path class="st38" d="M133,237.2l0.2-0.8l5.6,1.7l-0.2,0.8l-2.3-0.7l-1.9,6.2l-0.9-0.3l1.9-6.2L133,237.2z"/>
	<path class="st38" d="M137.3,241.4c0.2-0.3,0.4-0.5,0.7-0.7c0.3-0.2,0.6-0.3,0.9-0.4c0.3-0.1,0.7,0,1.1,0.1c0.4,0.1,0.8,0.3,1,0.5
		c0.3,0.2,0.5,0.5,0.6,0.8c0.2,0.3,0.2,0.6,0.3,1c0,0.4,0,0.7-0.1,1.1c-0.1,0.4-0.2,0.7-0.4,1c-0.2,0.3-0.4,0.5-0.7,0.7
		c-0.3,0.2-0.6,0.3-0.9,0.4c-0.3,0.1-0.7,0-1.1-0.1c-0.4-0.1-0.7-0.3-1-0.5c-0.3-0.2-0.5-0.5-0.6-0.8c-0.2-0.3-0.2-0.6-0.3-1
		c0-0.4,0-0.7,0.1-1.1C137,242,137.1,241.7,137.3,241.4z M137.7,243.5c0,0.3,0.1,0.5,0.2,0.7c0.1,0.2,0.2,0.4,0.4,0.5
		c0.2,0.1,0.4,0.2,0.6,0.3s0.4,0.1,0.7,0c0.2,0,0.4-0.1,0.6-0.2c0.2-0.1,0.4-0.3,0.5-0.5c0.1-0.2,0.3-0.5,0.3-0.8
		c0.1-0.3,0.1-0.6,0.1-0.9c0-0.3-0.1-0.5-0.2-0.7c-0.1-0.2-0.2-0.4-0.4-0.5c-0.2-0.1-0.4-0.2-0.6-0.3s-0.4-0.1-0.7,0
		c-0.2,0-0.4,0.1-0.6,0.3s-0.4,0.3-0.5,0.5c-0.1,0.2-0.3,0.5-0.3,0.8S137.7,243.2,137.7,243.5z"/>
	<path class="st38" d="M143.4,245.4c0.1,0.1,0.1,0.3,0.3,0.4c0.1,0.1,0.3,0.2,0.4,0.2c0.2,0.1,0.3,0.1,0.5,0.1c0.1,0,0.3,0,0.4,0
		c0.2,0,0.3,0,0.4,0c0.1,0,0.3-0.1,0.3-0.2c0.1-0.1,0.2-0.2,0.2-0.4c0-0.2,0-0.4-0.2-0.5s-0.3-0.3-0.6-0.4c-0.2-0.1-0.5-0.2-0.8-0.3
		s-0.5-0.2-0.8-0.4c-0.2-0.1-0.4-0.3-0.6-0.6c-0.1-0.2-0.2-0.5-0.1-0.8c0-0.3,0.1-0.5,0.3-0.6s0.3-0.3,0.5-0.4
		c0.2-0.1,0.4-0.1,0.7-0.2c0.2,0,0.5,0,0.7,0c0.3,0.1,0.6,0.1,0.8,0.2c0.2,0.1,0.4,0.2,0.6,0.4c0.2,0.2,0.3,0.4,0.4,0.6
		c0.1,0.2,0.1,0.5,0.1,0.8l-0.9-0.2c0-0.2,0-0.3-0.1-0.4c-0.1-0.1-0.1-0.2-0.2-0.3c-0.1-0.1-0.2-0.2-0.4-0.2
		c-0.1-0.1-0.3-0.1-0.4-0.1c-0.1,0-0.3,0-0.4,0c-0.1,0-0.3,0-0.4,0c-0.1,0-0.2,0.1-0.3,0.2c-0.1,0.1-0.1,0.2-0.2,0.3
		c0,0.1,0,0.3,0.1,0.4c0.1,0.1,0.2,0.2,0.4,0.3c0.2,0.1,0.3,0.2,0.5,0.3s0.4,0.2,0.6,0.2c0.2,0.1,0.4,0.2,0.6,0.3
		c0.2,0.1,0.4,0.2,0.5,0.4c0.1,0.1,0.2,0.3,0.3,0.5c0.1,0.2,0.1,0.4,0,0.7c-0.1,0.3-0.2,0.6-0.3,0.8s-0.4,0.3-0.6,0.4
		c-0.2,0.1-0.5,0.1-0.8,0.1c-0.3,0-0.5,0-0.8-0.1c-0.3-0.1-0.6-0.1-0.8-0.2c-0.3-0.1-0.5-0.2-0.6-0.4s-0.3-0.4-0.4-0.6
		c-0.1-0.2-0.1-0.5-0.1-0.9l0.9,0.2C143.3,245.1,143.3,245.3,143.4,245.4z"/>
	<path class="st38" d="M150.7,242.3l-0.1,0.8l-1-0.1l-0.4,3.3c0,0.1,0,0.2,0,0.2c0,0.1,0,0.1,0.1,0.2c0,0,0.1,0.1,0.2,0.1
		s0.2,0,0.3,0.1l0.4,0l-0.1,0.8l-0.7-0.1c-0.2,0-0.4-0.1-0.6-0.1c-0.2-0.1-0.3-0.1-0.4-0.2s-0.1-0.2-0.2-0.4s0-0.4,0-0.6l0.4-3.3
		l-0.9-0.1l0.1-0.8l0.9,0.1l0.2-1.6l0.9,0.1l-0.2,1.6L150.7,242.3z"/>
	<path class="st38" d="M155.9,248.1c-0.2,0.1-0.4,0.1-0.6,0.1c-0.2,0-0.4-0.1-0.5-0.2c-0.1-0.1-0.2-0.3-0.2-0.6
		c-0.3,0.3-0.6,0.5-0.9,0.6c-0.3,0.1-0.7,0.1-1,0.1c-0.2,0-0.5-0.1-0.7-0.1c-0.2-0.1-0.4-0.2-0.5-0.3s-0.3-0.3-0.3-0.5
		c-0.1-0.2-0.1-0.4-0.1-0.7c0-0.3,0.1-0.5,0.2-0.7c0.1-0.2,0.3-0.3,0.4-0.4c0.2-0.1,0.4-0.2,0.6-0.2c0.2,0,0.4-0.1,0.7-0.1
		c0.2,0,0.5,0,0.7-0.1c0.2,0,0.4,0,0.6-0.1c0.2,0,0.3-0.1,0.4-0.2c0.1-0.1,0.2-0.2,0.2-0.4c0-0.2,0-0.3-0.1-0.5s-0.1-0.2-0.3-0.3
		c-0.1-0.1-0.2-0.1-0.4-0.2c-0.1,0-0.3-0.1-0.4-0.1c-0.4,0-0.7,0-0.9,0.1c-0.3,0.1-0.4,0.4-0.5,0.8l-0.9-0.1c0-0.3,0.1-0.6,0.3-0.8
		c0.1-0.2,0.3-0.4,0.5-0.5c0.2-0.1,0.5-0.2,0.7-0.3c0.3,0,0.5-0.1,0.8,0c0.2,0,0.5,0.1,0.7,0.1c0.2,0.1,0.4,0.1,0.6,0.3
		c0.2,0.1,0.3,0.3,0.4,0.5c0.1,0.2,0.1,0.5,0.1,0.8l-0.2,2.7c0,0.2,0,0.4,0,0.5c0,0.1,0.1,0.2,0.2,0.2c0.1,0,0.2,0,0.3,0
		L155.9,248.1z M154.7,245.3c-0.1,0.1-0.3,0.1-0.4,0.1c-0.2,0-0.4,0-0.6,0.1c-0.2,0-0.4,0-0.6,0c-0.2,0-0.4,0.1-0.5,0.1
		c-0.2,0.1-0.3,0.1-0.4,0.3c-0.1,0.1-0.2,0.3-0.2,0.5c0,0.1,0,0.3,0.1,0.4c0.1,0.1,0.1,0.2,0.2,0.3c0.1,0.1,0.2,0.1,0.3,0.2
		c0.1,0,0.2,0.1,0.4,0.1c0.3,0,0.5,0,0.7-0.1c0.2-0.1,0.4-0.1,0.5-0.3c0.1-0.1,0.2-0.2,0.3-0.4c0.1-0.1,0.1-0.3,0.1-0.4L154.7,245.3
		z"/>
	<path class="st38" d="M160.8,248.2l0-0.7l0,0c-0.1,0.3-0.4,0.5-0.7,0.6c-0.3,0.1-0.6,0.2-1,0.2c-0.4,0-0.8-0.1-1.1-0.2
		c-0.3-0.2-0.6-0.4-0.7-0.6c-0.2-0.3-0.3-0.6-0.4-0.9c-0.1-0.3-0.1-0.7-0.1-1.1c0-0.4,0.1-0.7,0.2-1.1c0.1-0.3,0.3-0.6,0.5-0.9
		c0.2-0.2,0.5-0.4,0.8-0.6c0.3-0.1,0.7-0.2,1.1-0.2c0.1,0,0.3,0,0.4,0c0.2,0,0.3,0.1,0.5,0.1c0.2,0.1,0.3,0.2,0.4,0.3
		c0.1,0.1,0.3,0.2,0.3,0.4h0l0-2.7l0.9,0l-0.1,7.3L160.8,248.2z M157.7,246.2c0.1,0.2,0.2,0.4,0.3,0.6c0.1,0.2,0.3,0.3,0.5,0.4
		c0.2,0.1,0.5,0.2,0.7,0.2c0.3,0,0.5,0,0.8-0.2c0.2-0.1,0.4-0.3,0.5-0.4c0.1-0.2,0.2-0.4,0.3-0.6c0.1-0.2,0.1-0.5,0.1-0.7
		c0-0.3,0-0.5-0.1-0.8c-0.1-0.2-0.2-0.5-0.3-0.6c-0.1-0.2-0.3-0.3-0.5-0.5c-0.2-0.1-0.5-0.2-0.8-0.2c-0.3,0-0.5,0-0.8,0.2
		c-0.2,0.1-0.4,0.3-0.5,0.5c-0.1,0.2-0.2,0.4-0.3,0.7s-0.1,0.5-0.1,0.8C157.6,245.7,157.7,246,157.7,246.2z"/>
	<path class="st38" d="M163,244.4c0.1-0.3,0.2-0.6,0.4-0.9c0.2-0.3,0.5-0.5,0.8-0.6c0.3-0.2,0.7-0.3,1.1-0.3c0.4,0,0.8,0,1.1,0.1
		c0.3,0.1,0.6,0.3,0.8,0.5c0.2,0.2,0.4,0.5,0.5,0.8c0.1,0.3,0.2,0.7,0.2,1.1c0,0.4,0,0.8-0.1,1.1c-0.1,0.3-0.2,0.6-0.4,0.9
		c-0.2,0.3-0.5,0.5-0.8,0.6c-0.3,0.2-0.7,0.3-1.1,0.3c-0.4,0-0.8,0-1.1-0.1c-0.3-0.1-0.6-0.3-0.8-0.5c-0.2-0.2-0.4-0.5-0.5-0.8
		c-0.1-0.3-0.2-0.7-0.2-1.1C162.9,245.1,162.9,244.7,163,244.4z M164,246.3c0.1,0.2,0.2,0.4,0.4,0.6c0.2,0.2,0.3,0.3,0.6,0.3
		c0.2,0.1,0.4,0.1,0.6,0.1c0.2,0,0.4-0.1,0.6-0.2c0.2-0.1,0.4-0.2,0.5-0.4c0.1-0.2,0.2-0.4,0.3-0.6c0.1-0.3,0.1-0.5,0.1-0.9
		s-0.1-0.6-0.2-0.8c-0.1-0.2-0.2-0.4-0.4-0.6c-0.2-0.2-0.3-0.3-0.6-0.4c-0.2-0.1-0.4-0.1-0.6-0.1c-0.2,0-0.4,0.1-0.6,0.2
		c-0.2,0.1-0.4,0.2-0.5,0.4c-0.1,0.2-0.2,0.4-0.3,0.7c-0.1,0.3-0.1,0.5-0.1,0.9S163.9,246,164,246.3z"/>
	<path class="st38" d="M174.7,247.6c-0.1,0.3-0.1,0.5-0.2,0.7c-0.1,0.2-0.2,0.4-0.3,0.5c-0.1,0.1-0.2,0.2-0.4,0.3
		c-0.1,0.1-0.3,0.1-0.5,0.2c-0.1,0-0.2,0-0.3,0c-0.1,0-0.2,0-0.3,0l-0.1-0.8c0.1,0,0.2,0,0.3,0s0.2,0,0.3,0c0.2,0,0.3-0.1,0.4-0.2
		c0.1-0.1,0.2-0.2,0.2-0.4l0.2-0.9l-2.9-4.9l1-0.2l2.2,4l0,0l0.8-4.5l0.9-0.2L174.7,247.6z"/>
	<path class="st38" d="M180.2,238.2l3.9,5.3l0.5-6.6l1.3-0.4l2,7l-0.9,0.3l-1.7-5.8l0,0l-0.5,6.5l-0.8,0.2l-3.9-5.2l0,0l1.7,5.8
		l-0.9,0.3l-2-7L180.2,238.2z"/>
	<path class="st38" d="M188.3,239.5c0-0.4,0-0.7,0.1-1c0.1-0.3,0.3-0.6,0.5-0.8c0.2-0.3,0.6-0.5,1-0.6c0.4-0.2,0.8-0.2,1.1-0.2
		c0.3,0,0.7,0.1,1,0.3c0.3,0.2,0.6,0.4,0.8,0.6c0.2,0.3,0.4,0.6,0.6,1c0.1,0.4,0.2,0.7,0.2,1.1c0,0.4,0,0.7-0.1,1
		c-0.1,0.3-0.3,0.6-0.5,0.8c-0.2,0.2-0.6,0.4-1,0.6c-0.4,0.2-0.8,0.2-1.1,0.2c-0.4,0-0.7-0.1-1-0.2c-0.3-0.2-0.6-0.4-0.8-0.6
		c-0.2-0.3-0.4-0.6-0.5-1C188.4,240.2,188.3,239.9,188.3,239.5z M189.8,241c0.2,0.2,0.4,0.4,0.6,0.5c0.2,0.1,0.4,0.2,0.6,0.2
		c0.2,0,0.4,0,0.6-0.1c0.2-0.1,0.4-0.2,0.5-0.4c0.2-0.2,0.3-0.3,0.4-0.6c0.1-0.2,0.1-0.4,0.1-0.7c0-0.3-0.1-0.5-0.2-0.8
		c-0.1-0.3-0.3-0.5-0.4-0.8c-0.2-0.2-0.4-0.4-0.6-0.5c-0.2-0.1-0.4-0.2-0.6-0.2c-0.2,0-0.4,0-0.6,0.1c-0.2,0.1-0.4,0.2-0.5,0.4
		c-0.2,0.2-0.3,0.3-0.3,0.6c-0.1,0.2-0.1,0.5-0.1,0.7c0,0.3,0.1,0.5,0.2,0.8C189.5,240.6,189.7,240.8,189.8,241z"/>
	<path class="st38" d="M193.3,233.6l3,6.7l-0.8,0.4l-3-6.7L193.3,233.6z"/>
	<path class="st38" d="M194.9,234l-0.5-1l0.8-0.4l0.5,1L194.9,234z M196.1,234.5l2.3,4.8l-0.8,0.4l-2.3-4.8L196.1,234.5z"/>
	<path class="st38" d="M203.2,236.7l-0.3-0.6l0,0c0,0.3-0.1,0.6-0.3,0.9c-0.2,0.3-0.5,0.5-0.8,0.7c-0.4,0.2-0.7,0.3-1,0.3
		c-0.3,0-0.7,0-1-0.2c-0.3-0.1-0.6-0.3-0.8-0.6c-0.3-0.2-0.5-0.5-0.6-0.9s-0.3-0.7-0.4-1s-0.1-0.7,0-1c0.1-0.3,0.2-0.6,0.4-0.9
		c0.2-0.3,0.5-0.5,0.8-0.7c0.1-0.1,0.3-0.1,0.4-0.2c0.2-0.1,0.3-0.1,0.5-0.1c0.2,0,0.3,0,0.5,0c0.2,0,0.3,0.1,0.5,0.2l0,0l-1.3-2.4
		l0.8-0.4l3.5,6.4L203.2,236.7z M199.6,236.6c0.2,0.2,0.4,0.3,0.6,0.4c0.2,0.1,0.4,0.1,0.7,0.1s0.5-0.1,0.7-0.2
		c0.3-0.1,0.4-0.3,0.6-0.5c0.1-0.2,0.2-0.4,0.2-0.6c0-0.2,0-0.5-0.1-0.7c-0.1-0.2-0.2-0.5-0.3-0.7c-0.1-0.2-0.3-0.4-0.4-0.6
		c-0.2-0.2-0.4-0.3-0.6-0.4c-0.2-0.1-0.4-0.1-0.7-0.1c-0.2,0-0.5,0.1-0.8,0.2c-0.3,0.1-0.4,0.3-0.6,0.5c-0.1,0.2-0.2,0.4-0.2,0.6
		c0,0.2,0,0.5,0.1,0.7c0.1,0.2,0.2,0.5,0.3,0.7C199.3,236.2,199.4,236.4,199.6,236.6z"/>
	<path class="st38" d="M203.3,232.4c-0.1-0.3-0.1-0.7-0.1-1c0-0.3,0.2-0.6,0.4-0.9c0.2-0.3,0.5-0.6,0.8-0.8c0.4-0.2,0.7-0.4,1.1-0.4
		c0.3-0.1,0.7,0,1,0.1c0.3,0.1,0.6,0.3,0.9,0.5c0.3,0.2,0.5,0.5,0.7,0.8c0.2,0.3,0.4,0.7,0.4,1c0.1,0.3,0.1,0.7,0.1,1
		c0,0.3-0.2,0.6-0.4,0.9c-0.2,0.3-0.5,0.5-0.8,0.8c-0.4,0.2-0.7,0.4-1,0.4c-0.3,0.1-0.7,0-1-0.1c-0.3-0.1-0.6-0.2-0.9-0.5
		c-0.3-0.2-0.5-0.5-0.7-0.8C203.5,233.1,203.4,232.7,203.3,232.4z M205.1,233.6c0.2,0.2,0.4,0.3,0.6,0.3c0.2,0.1,0.4,0.1,0.7,0
		c0.2,0,0.4-0.1,0.6-0.2c0.2-0.1,0.3-0.3,0.5-0.5c0.1-0.2,0.2-0.4,0.2-0.6c0-0.2,0-0.5,0-0.7c-0.1-0.3-0.2-0.5-0.4-0.8
		c-0.2-0.3-0.4-0.5-0.6-0.7c-0.2-0.2-0.4-0.3-0.6-0.3c-0.2-0.1-0.4-0.1-0.7,0c-0.2,0-0.4,0.1-0.6,0.2c-0.2,0.1-0.3,0.3-0.5,0.5
		c-0.1,0.2-0.2,0.4-0.2,0.6c0,0.2,0,0.5,0,0.7c0.1,0.3,0.2,0.5,0.4,0.8C204.7,233.2,204.9,233.4,205.1,233.6z"/>
	<path class="st38" d="M210.9,230.4l0.7,0.9l-0.9,0.7l-0.7-0.9L210.9,230.4z"/>
</g>
</svg>
